STARTFONT 2.1
COMMENT
COMMENT Converted from OpenType font "Q:\font stuff\winfont\Ubuntu-L.ttf" by "otf2bdf 3.0".
COMMENT
FONT -FreeType-Ubuntu Light-Medium-R-Normal--20-200-72-72-P-103-ISO10646-1
SIZE 20 72 72
FONTBOUNDINGBOX 74 24 -3 -4
STARTPROPERTIES 19
FOUNDRY "FreeType"
FAMILY_NAME "Ubuntu Light"
WEIGHT_NAME "Medium"
SLANT "R"
SETWIDTH_NAME "Normal"
ADD_STYLE_NAME ""
PIXEL_SIZE 20
POINT_SIZE 200
RESOLUTION_X 72
RESOLUTION_Y 72
SPACING "P"
AVERAGE_WIDTH 103
CHARSET_REGISTRY "ISO10646"
CHARSET_ENCODING "1"
FONT_ASCENT 18
FONT_DESCENT 6
COPYRIGHT "Copyright 2011 Canonical Ltd.  Licensed under the Ubuntu Font Licence 1.0"
_OTF_FONTFILE "Q:\font stuff\winfont\Ubuntu-L.ttf"
_OTF_PSNAME "Ubuntu-Light"
ENDPROPERTIES
CHARS 1193
STARTCHAR 0008
ENCODING 8
SWIDTH 0 0
DWIDTH 0 0
BBX 0 0 0 0
BITMAP
ENDCHAR
STARTCHAR 0009
ENCODING 9
SWIDTH 250 0
DWIDTH 5 0
BBX 0 0 0 0
BITMAP
ENDCHAR
STARTCHAR 000D
ENCODING 13
SWIDTH 250 0
DWIDTH 5 0
BBX 0 0 0 0
BITMAP
ENDCHAR
STARTCHAR 001D
ENCODING 29
SWIDTH 0 0
DWIDTH 0 0
BBX 0 0 0 0
BITMAP
ENDCHAR
STARTCHAR 0020
ENCODING 32
SWIDTH 250 0
DWIDTH 5 0
BBX 0 0 0 0
BITMAP
ENDCHAR
STARTCHAR 0021
ENCODING 33
SWIDTH 250 0
DWIDTH 5 0
BBX 1 14 2 0
BITMAP
80
80
80
80
80
80
80
80
80
80
00
00
80
80
ENDCHAR
STARTCHAR 0022
ENCODING 34
SWIDTH 400 0
DWIDTH 8 0
BBX 4 5 2 10
BITMAP
90
90
90
90
90
ENDCHAR
STARTCHAR 0023
ENCODING 35
SWIDTH 650 0
DWIDTH 13 0
BBX 11 14 1 0
BITMAP
0840
0840
1080
1080
FFE0
1080
1080
2100
2100
FFE0
2100
2100
4200
4200
ENDCHAR
STARTCHAR 0024
ENCODING 36
SWIDTH 550 0
DWIDTH 11 0
BBX 7 18 2 -3
BITMAP
10
10
3C
42
80
80
80
40
38
04
02
02
02
84
78
10
10
10
ENDCHAR
STARTCHAR 0025
ENCODING 37
SWIDTH 850 0
DWIDTH 17 0
BBX 15 14 1 0
BITMAP
7810
8420
8420
8440
8480
8480
7900
013C
0242
0242
0442
0842
0842
103C
ENDCHAR
STARTCHAR 0026
ENCODING 38
SWIDTH 650 0
DWIDTH 13 0
BBX 11 14 1 0
BITMAP
1C00
2200
4100
4100
4200
2400
3800
4840
8440
8240
8180
8080
4340
3C20
ENDCHAR
STARTCHAR 0027
ENCODING 39
SWIDTH 250 0
DWIDTH 5 0
BBX 1 5 2 10
BITMAP
80
80
80
80
80
ENDCHAR
STARTCHAR 0028
ENCODING 40
SWIDTH 300 0
DWIDTH 6 0
BBX 4 20 2 -4
BITMAP
10
20
20
40
40
40
80
80
80
80
80
80
80
80
40
40
40
20
20
10
ENDCHAR
STARTCHAR 0029
ENCODING 41
SWIDTH 300 0
DWIDTH 6 0
BBX 4 20 0 -4
BITMAP
80
40
40
20
20
20
10
10
10
10
10
10
10
10
20
20
20
40
40
80
ENDCHAR
STARTCHAR 002A
ENCODING 42
SWIDTH 450 0
DWIDTH 9 0
BBX 7 8 1 6
BITMAP
10
10
10
D6
38
30
28
44
ENDCHAR
STARTCHAR 002B
ENCODING 43
SWIDTH 550 0
DWIDTH 11 0
BBX 9 9 1 1
BITMAP
0800
0800
0800
0800
FF80
0800
0800
0800
0800
ENDCHAR
STARTCHAR 002C
ENCODING 44
SWIDTH 250 0
DWIDTH 5 0
BBX 2 5 1 -3
BITMAP
40
40
40
40
80
ENDCHAR
STARTCHAR 002D
ENCODING 45
SWIDTH 350 0
DWIDTH 7 0
BBX 5 1 1 5
BITMAP
F8
ENDCHAR
STARTCHAR 002E
ENCODING 46
SWIDTH 150 0
DWIDTH 3 0
BBX 1 2 1 0
BITMAP
80
80
ENDCHAR
STARTCHAR 002F
ENCODING 47
SWIDTH 350 0
DWIDTH 7 0
BBX 7 20 0 -4
BITMAP
02
02
04
04
04
08
08
08
10
10
10
10
20
20
20
40
40
40
80
80
ENDCHAR
STARTCHAR 0030
ENCODING 48
SWIDTH 550 0
DWIDTH 11 0
BBX 9 14 1 0
BITMAP
1C00
2200
4100
8080
8080
8080
8080
8080
8080
8080
8080
4100
2200
1C00
ENDCHAR
STARTCHAR 0031
ENCODING 49
SWIDTH 550 0
DWIDTH 11 0
BBX 4 14 3 0
BITMAP
10
30
50
90
10
10
10
10
10
10
10
10
10
10
ENDCHAR
STARTCHAR 0032
ENCODING 50
SWIDTH 550 0
DWIDTH 11 0
BBX 7 14 2 0
BITMAP
78
84
02
02
02
02
04
08
10
20
40
80
80
FE
ENDCHAR
STARTCHAR 0033
ENCODING 51
SWIDTH 550 0
DWIDTH 11 0
BBX 8 14 1 0
BITMAP
78
84
02
02
02
04
3C
06
01
01
01
01
82
7C
ENDCHAR
STARTCHAR 0034
ENCODING 52
SWIDTH 550 0
DWIDTH 11 0
BBX 9 14 1 0
BITMAP
0200
0600
0A00
1200
2200
2200
4200
4200
8200
FF80
0200
0200
0200
0200
ENDCHAR
STARTCHAR 0035
ENCODING 53
SWIDTH 550 0
DWIDTH 11 0
BBX 8 14 1 0
BITMAP
3F
20
20
20
40
78
06
02
01
01
01
01
82
7C
ENDCHAR
STARTCHAR 0036
ENCODING 54
SWIDTH 550 0
DWIDTH 11 0
BBX 8 14 2 0
BITMAP
06
18
20
40
40
80
BC
C2
81
81
81
81
42
3C
ENDCHAR
STARTCHAR 0037
ENCODING 55
SWIDTH 550 0
DWIDTH 11 0
BBX 9 14 1 0
BITMAP
FF80
0080
0100
0200
0400
0400
0800
0800
1000
1000
1000
2000
2000
2000
ENDCHAR
STARTCHAR 0038
ENCODING 56
SWIDTH 550 0
DWIDTH 11 0
BBX 9 14 1 0
BITMAP
3E00
4100
8080
8080
8080
4100
3E00
4100
8080
8080
8080
8080
4100
3E00
ENDCHAR
STARTCHAR 0039
ENCODING 57
SWIDTH 550 0
DWIDTH 11 0
BBX 9 14 1 0
BITMAP
3E00
4100
8080
8080
8080
8080
4180
3E80
0080
0100
0100
0200
0C00
7000
ENDCHAR
STARTCHAR 003A
ENCODING 58
SWIDTH 150 0
DWIDTH 3 0
BBX 1 10 1 0
BITMAP
80
80
00
00
00
00
00
00
80
80
ENDCHAR
STARTCHAR 003B
ENCODING 59
SWIDTH 250 0
DWIDTH 5 0
BBX 2 13 1 -3
BITMAP
80
80
00
00
00
00
00
00
40
40
40
40
80
ENDCHAR
STARTCHAR 003C
ENCODING 60
SWIDTH 550 0
DWIDTH 11 0
BBX 8 9 1 1
BITMAP
01
06
08
30
C0
30
08
06
01
ENDCHAR
STARTCHAR 003D
ENCODING 61
SWIDTH 550 0
DWIDTH 11 0
BBX 9 5 1 3
BITMAP
FF80
0000
0000
0000
FF80
ENDCHAR
STARTCHAR 003E
ENCODING 62
SWIDTH 550 0
DWIDTH 11 0
BBX 8 9 2 1
BITMAP
80
60
10
0C
03
0C
10
60
80
ENDCHAR
STARTCHAR 003F
ENCODING 63
SWIDTH 400 0
DWIDTH 8 0
BBX 6 14 1 0
BITMAP
70
88
04
04
04
08
10
20
20
20
00
00
20
20
ENDCHAR
STARTCHAR 0040
ENCODING 64
SWIDTH 950 0
DWIDTH 19 0
BBX 17 17 1 -3
BITMAP
07F000
180C00
200200
400100
43F100
841080
881080
881080
881080
881080
881080
841100
43EE00
400000
200000
180000
07F000
ENDCHAR
STARTCHAR 0041
ENCODING 65
SWIDTH 650 0
DWIDTH 13 0
BBX 13 14 0 0
BITMAP
0200
0200
0500
0500
0880
0880
1040
1040
1040
3FE0
2020
4010
4010
8008
ENDCHAR
STARTCHAR 0042
ENCODING 66
SWIDTH 650 0
DWIDTH 13 0
BBX 10 14 2 0
BITMAP
FE00
8100
8080
8080
8080
8100
FE00
8180
8040
8040
8040
8040
8180
FE00
ENDCHAR
STARTCHAR 0043
ENCODING 67
SWIDTH 600 0
DWIDTH 12 0
BBX 10 14 1 0
BITMAP
0F80
3040
6000
4000
8000
8000
8000
8000
8000
8000
4000
4000
3040
0F80
ENDCHAR
STARTCHAR 0044
ENCODING 68
SWIDTH 700 0
DWIDTH 14 0
BBX 11 14 2 0
BITMAP
FE00
8180
8040
8040
8020
8020
8020
8020
8020
8020
8040
8040
8180
FE00
ENDCHAR
STARTCHAR 0045
ENCODING 69
SWIDTH 550 0
DWIDTH 11 0
BBX 8 14 2 0
BITMAP
FE
80
80
80
80
80
FC
80
80
80
80
80
80
FF
ENDCHAR
STARTCHAR 0046
ENCODING 70
SWIDTH 500 0
DWIDTH 10 0
BBX 7 14 2 0
BITMAP
FE
80
80
80
80
80
FC
80
80
80
80
80
80
80
ENDCHAR
STARTCHAR 0047
ENCODING 71
SWIDTH 650 0
DWIDTH 13 0
BBX 10 14 1 0
BITMAP
0F80
3040
4000
4000
8000
8000
8000
8040
8040
8040
4040
4040
3040
0FC0
ENDCHAR
STARTCHAR 0048
ENCODING 72
SWIDTH 700 0
DWIDTH 14 0
BBX 10 14 2 0
BITMAP
8040
8040
8040
8040
8040
8040
FFC0
8040
8040
8040
8040
8040
8040
8040
ENDCHAR
STARTCHAR 0049
ENCODING 73
SWIDTH 250 0
DWIDTH 5 0
BBX 1 14 2 0
BITMAP
80
80
80
80
80
80
80
80
80
80
80
80
80
80
ENDCHAR
STARTCHAR 004A
ENCODING 74
SWIDTH 500 0
DWIDTH 10 0
BBX 7 14 1 0
BITMAP
02
02
02
02
02
02
02
02
02
02
02
02
84
78
ENDCHAR
STARTCHAR 004B
ENCODING 75
SWIDTH 600 0
DWIDTH 12 0
BBX 10 14 2 0
BITMAP
8040
8180
8200
8400
8800
B000
C000
A000
9800
8400
8200
8100
8080
8040
ENDCHAR
STARTCHAR 004C
ENCODING 76
SWIDTH 500 0
DWIDTH 10 0
BBX 7 14 2 0
BITMAP
80
80
80
80
80
80
80
80
80
80
80
80
80
FE
ENDCHAR
STARTCHAR 004D
ENCODING 77
SWIDTH 950 0
DWIDTH 19 0
BBX 15 14 2 0
BITMAP
4004
600C
600C
5014
5014
8824
8822
8442
8442
8282
8282
8102
8002
8002
ENDCHAR
STARTCHAR 004E
ENCODING 78
SWIDTH 700 0
DWIDTH 14 0
BBX 10 14 2 0
BITMAP
8040
C040
C040
A040
9040
9040
8840
8440
8440
8240
8140
8140
80C0
8040
ENDCHAR
STARTCHAR 004F
ENCODING 79
SWIDTH 750 0
DWIDTH 15 0
BBX 13 14 1 0
BITMAP
0F80
3060
4010
4010
8008
8008
8008
8008
8008
8008
4010
4010
3060
0F80
ENDCHAR
STARTCHAR 0050
ENCODING 80
SWIDTH 600 0
DWIDTH 12 0
BBX 9 14 2 0
BITMAP
FE00
8100
8080
8080
8080
8080
8080
8100
FE00
8000
8000
8000
8000
8000
ENDCHAR
STARTCHAR 0051
ENCODING 81
SWIDTH 750 0
DWIDTH 15 0
BBX 13 18 1 -4
BITMAP
0F80
3060
4010
4010
8008
8008
8008
8008
8008
8008
4010
4010
3060
0F80
0200
0100
00C0
0030
ENDCHAR
STARTCHAR 0052
ENCODING 82
SWIDTH 600 0
DWIDTH 12 0
BBX 9 14 2 0
BITMAP
FC00
8200
8100
8100
8100
8100
8200
FC00
8400
8400
8200
8100
8100
8080
ENDCHAR
STARTCHAR 0053
ENCODING 83
SWIDTH 500 0
DWIDTH 10 0
BBX 8 14 1 0
BITMAP
3E
41
80
80
80
40
30
0C
02
01
01
01
82
7C
ENDCHAR
STARTCHAR 0054
ENCODING 84
SWIDTH 550 0
DWIDTH 11 0
BBX 9 14 1 0
BITMAP
FF80
0800
0800
0800
0800
0800
0800
0800
0800
0800
0800
0800
0800
0800
ENDCHAR
STARTCHAR 0055
ENCODING 85
SWIDTH 700 0
DWIDTH 14 0
BBX 10 14 2 0
BITMAP
8040
8040
8040
8040
8040
8040
8040
8040
8040
8040
8040
4080
2100
1E00
ENDCHAR
STARTCHAR 0056
ENCODING 86
SWIDTH 750 0
DWIDTH 15 0
BBX 13 14 1 0
BITMAP
8008
4010
4010
2020
2020
2020
1040
1040
0880
0880
0500
0500
0200
0200
ENDCHAR
STARTCHAR 0057
ENCODING 87
SWIDTH 950 0
DWIDTH 19 0
BBX 17 14 1 0
BITMAP
800080
800080
408100
408100
414100
214200
214200
222200
222200
122400
141400
141400
080800
080800
ENDCHAR
STARTCHAR 0058
ENCODING 88
SWIDTH 600 0
DWIDTH 12 0
BBX 10 14 1 0
BITMAP
8040
4080
2100
2100
1200
1400
0C00
0C00
1E00
1200
2100
6100
4080
8040
ENDCHAR
STARTCHAR 0059
ENCODING 89
SWIDTH 650 0
DWIDTH 13 0
BBX 11 14 1 0
BITMAP
8020
4040
4040
2080
1100
1100
0A00
0400
0400
0400
0400
0400
0400
0400
ENDCHAR
STARTCHAR 005A
ENCODING 90
SWIDTH 550 0
DWIDTH 11 0
BBX 9 14 1 0
BITMAP
FF80
0080
0100
0200
0400
0400
0800
1000
1000
2000
2000
4000
8000
FF80
ENDCHAR
STARTCHAR 005B
ENCODING 91
SWIDTH 300 0
DWIDTH 6 0
BBX 4 20 2 -4
BITMAP
F0
80
80
80
80
80
80
80
80
80
80
80
80
80
80
80
80
80
80
F0
ENDCHAR
STARTCHAR 005C
ENCODING 92
SWIDTH 350 0
DWIDTH 7 0
BBX 7 20 0 -4
BITMAP
80
80
40
40
40
20
20
20
10
10
10
10
08
08
08
04
04
04
02
02
ENDCHAR
STARTCHAR 005D
ENCODING 93
SWIDTH 300 0
DWIDTH 6 0
BBX 4 20 0 -4
BITMAP
F0
10
10
10
10
10
10
10
10
10
10
10
10
10
10
10
10
10
10
F0
ENDCHAR
STARTCHAR 005E
ENCODING 94
SWIDTH 550 0
DWIDTH 11 0
BBX 9 7 1 6
BITMAP
0800
1400
1400
2200
4100
4100
8080
ENDCHAR
STARTCHAR 005F
ENCODING 95
SWIDTH 500 0
DWIDTH 10 0
BBX 10 1 0 -4
BITMAP
FFC0
ENDCHAR
STARTCHAR 0060
ENCODING 96
SWIDTH 400 0
DWIDTH 8 0
BBX 4 4 1 12
BITMAP
80
40
20
10
ENDCHAR
STARTCHAR 0061
ENCODING 97
SWIDTH 500 0
DWIDTH 10 0
BBX 7 11 1 0
BITMAP
78
04
02
02
3E
42
82
82
82
42
3E
ENDCHAR
STARTCHAR 0062
ENCODING 98
SWIDTH 600 0
DWIDTH 12 0
BBX 9 16 2 0
BITMAP
8000
8000
8000
8000
8000
BC00
C200
8100
8080
8080
8080
8080
8080
8100
8200
FC00
ENDCHAR
STARTCHAR 0063
ENCODING 99
SWIDTH 450 0
DWIDTH 9 0
BBX 7 11 1 0
BITMAP
1C
22
40
80
80
80
80
80
40
22
1C
ENDCHAR
STARTCHAR 0064
ENCODING 100
SWIDTH 600 0
DWIDTH 12 0
BBX 9 16 1 0
BITMAP
0080
0080
0080
0080
0080
1E80
2180
4080
8080
8080
8080
8080
8080
4080
2080
1F80
ENDCHAR
STARTCHAR 0065
ENCODING 101
SWIDTH 550 0
DWIDTH 11 0
BBX 9 11 1 0
BITMAP
1C00
2200
4100
8080
8080
FF80
8000
8000
4000
2100
1E00
ENDCHAR
STARTCHAR 0066
ENCODING 102
SWIDTH 400 0
DWIDTH 8 0
BBX 6 16 2 0
BITMAP
3C
40
80
80
80
FC
80
80
80
80
80
80
80
80
80
80
ENDCHAR
STARTCHAR 0067
ENCODING 103
SWIDTH 600 0
DWIDTH 12 0
BBX 9 15 1 -4
BITMAP
1F80
2080
4080
8080
8080
8080
8080
8080
4080
2180
1E80
0080
0080
0100
7E00
ENDCHAR
STARTCHAR 0068
ENCODING 104
SWIDTH 600 0
DWIDTH 12 0
BBX 8 16 2 0
BITMAP
80
80
80
80
80
FC
82
81
81
81
81
81
81
81
81
81
ENDCHAR
STARTCHAR 0069
ENCODING 105
SWIDTH 250 0
DWIDTH 5 0
BBX 1 14 2 0
BITMAP
80
80
00
80
80
80
80
80
80
80
80
80
80
80
ENDCHAR
STARTCHAR 006A
ENCODING 106
SWIDTH 250 0
DWIDTH 5 0
BBX 4 18 -1 -4
BITMAP
10
10
00
10
10
10
10
10
10
10
10
10
10
10
10
10
10
E0
ENDCHAR
STARTCHAR 006B
ENCODING 107
SWIDTH 500 0
DWIDTH 10 0
BBX 8 16 2 0
BITMAP
80
80
80
80
80
81
82
8C
90
A0
C0
A0
98
84
82
81
ENDCHAR
STARTCHAR 006C
ENCODING 108
SWIDTH 300 0
DWIDTH 6 0
BBX 3 16 2 0
BITMAP
80
80
80
80
80
80
80
80
80
80
80
80
80
80
80
60
ENDCHAR
STARTCHAR 006D
ENCODING 109
SWIDTH 850 0
DWIDTH 17 0
BBX 13 11 2 0
BITMAP
F9E0
8610
8208
8208
8208
8208
8208
8208
8208
8208
8208
ENDCHAR
STARTCHAR 006E
ENCODING 110
SWIDTH 600 0
DWIDTH 12 0
BBX 8 11 2 0
BITMAP
FC
82
81
81
81
81
81
81
81
81
81
ENDCHAR
STARTCHAR 006F
ENCODING 111
SWIDTH 600 0
DWIDTH 12 0
BBX 10 11 1 0
BITMAP
1E00
2100
4080
8040
8040
8040
8040
8040
4080
2100
1E00
ENDCHAR
STARTCHAR 0070
ENCODING 112
SWIDTH 600 0
DWIDTH 12 0
BBX 9 15 2 -4
BITMAP
FC00
8200
8100
8080
8080
8080
8080
8080
8100
C200
BC00
8000
8000
8000
8000
ENDCHAR
STARTCHAR 0071
ENCODING 113
SWIDTH 600 0
DWIDTH 12 0
BBX 9 15 1 -4
BITMAP
1F80
2080
4080
8080
8080
8080
8080
8080
4080
2180
1E80
0080
0080
0080
0080
ENDCHAR
STARTCHAR 0072
ENCODING 114
SWIDTH 350 0
DWIDTH 7 0
BBX 4 11 2 0
BITMAP
F0
80
80
80
80
80
80
80
80
80
80
ENDCHAR
STARTCHAR 0073
ENCODING 115
SWIDTH 450 0
DWIDTH 9 0
BBX 7 11 1 0
BITMAP
38
44
80
80
40
38
04
02
02
84
78
ENDCHAR
STARTCHAR 0074
ENCODING 116
SWIDTH 400 0
DWIDTH 8 0
BBX 5 14 2 0
BITMAP
80
80
80
F8
80
80
80
80
80
80
80
80
80
78
ENDCHAR
STARTCHAR 0075
ENCODING 117
SWIDTH 600 0
DWIDTH 12 0
BBX 8 11 2 0
BITMAP
81
81
81
81
81
81
81
81
81
41
3F
ENDCHAR
STARTCHAR 0076
ENCODING 118
SWIDTH 550 0
DWIDTH 11 0
BBX 9 11 1 0
BITMAP
8080
8080
4100
4100
4100
2200
2200
2200
1400
1400
0800
ENDCHAR
STARTCHAR 0077
ENCODING 119
SWIDTH 850 0
DWIDTH 17 0
BBX 15 11 1 0
BITMAP
8102
8104
4284
4284
2288
2488
2448
1450
1450
0830
0820
ENDCHAR
STARTCHAR 0078
ENCODING 120
SWIDTH 550 0
DWIDTH 11 0
BBX 9 11 1 0
BITMAP
8080
4100
2200
1400
1400
0800
1400
1200
2200
4100
8080
ENDCHAR
STARTCHAR 0079
ENCODING 121
SWIDTH 450 0
DWIDTH 9 0
BBX 7 15 1 -4
BITMAP
82
82
44
44
44
44
28
28
28
28
10
10
10
20
C0
ENDCHAR
STARTCHAR 007A
ENCODING 122
SWIDTH 450 0
DWIDTH 9 0
BBX 7 11 1 0
BITMAP
FE
02
04
08
08
10
20
20
40
80
FE
ENDCHAR
STARTCHAR 007B
ENCODING 123
SWIDTH 300 0
DWIDTH 6 0
BBX 5 19 1 -4
BITMAP
18
20
20
20
20
20
20
20
40
80
40
20
20
20
20
20
20
20
18
ENDCHAR
STARTCHAR 007C
ENCODING 124
SWIDTH 250 0
DWIDTH 5 0
BBX 1 20 2 -4
BITMAP
80
80
80
80
80
80
80
80
80
80
80
80
80
80
80
80
80
80
80
80
ENDCHAR
STARTCHAR 007D
ENCODING 125
SWIDTH 300 0
DWIDTH 6 0
BBX 5 19 0 -4
BITMAP
C0
20
20
20
20
20
20
20
10
08
10
20
20
20
20
20
20
20
C0
ENDCHAR
STARTCHAR 007E
ENCODING 126
SWIDTH 550 0
DWIDTH 11 0
BBX 9 3 1 5
BITMAP
3080
4900
8600
ENDCHAR
STARTCHAR 00A0
ENCODING 160
SWIDTH 250 0
DWIDTH 5 0
BBX 0 0 0 0
BITMAP
ENDCHAR
STARTCHAR 00A1
ENCODING 161
SWIDTH 250 0
DWIDTH 5 0
BBX 1 15 2 -4
BITMAP
80
80
00
00
80
80
80
80
80
80
80
80
80
80
80
ENDCHAR
STARTCHAR 00A2
ENCODING 162
SWIDTH 550 0
DWIDTH 11 0
BBX 8 16 2 -2
BITMAP
08
08
08
1E
21
40
80
80
80
80
40
21
1E
08
08
08
ENDCHAR
STARTCHAR 00A3
ENCODING 163
SWIDTH 550 0
DWIDTH 11 0
BBX 8 14 2 0
BITMAP
0F
10
20
20
20
20
20
FE
20
20
20
20
40
7F
ENDCHAR
STARTCHAR 00A4
ENCODING 164
SWIDTH 550 0
DWIDTH 11 0
BBX 9 10 1 2
BITMAP
8080
5D00
2200
4100
4100
4100
4100
2200
5D00
8080
ENDCHAR
STARTCHAR 00A5
ENCODING 165
SWIDTH 550 0
DWIDTH 11 0
BBX 9 14 1 0
BITMAP
8080
4100
4100
2200
1400
1400
0800
7F00
0800
0800
0800
7F00
0800
0800
ENDCHAR
STARTCHAR 00A6
ENCODING 166
SWIDTH 250 0
DWIDTH 5 0
BBX 1 20 2 -4
BITMAP
80
80
80
80
80
80
80
80
00
00
00
00
80
80
80
80
80
80
80
80
ENDCHAR
STARTCHAR 00A7
ENCODING 167
SWIDTH 500 0
DWIDTH 10 0
BBX 8 16 1 -2
BITMAP
3E
42
40
40
30
4C
82
81
81
81
72
0C
02
02
02
7C
ENDCHAR
STARTCHAR 00A8
ENCODING 168
SWIDTH 400 0
DWIDTH 8 0
BBX 4 2 2 13
BITMAP
90
90
ENDCHAR
STARTCHAR 00A9
ENCODING 169
SWIDTH 800 0
DWIDTH 16 0
BBX 14 14 1 0
BITMAP
0FC0
3020
6018
4788
8844
9004
9004
9004
9004
8844
4788
6010
1020
0FC0
ENDCHAR
STARTCHAR 00AA
ENCODING 170
SWIDTH 400 0
DWIDTH 8 0
BBX 6 8 1 6
BITMAP
78
04
04
7C
84
84
84
7C
ENDCHAR
STARTCHAR 00AB
ENCODING 171
SWIDTH 450 0
DWIDTH 9 0
BBX 7 9 1 1
BITMAP
22
22
44
44
88
44
44
22
22
ENDCHAR
STARTCHAR 00AC
ENCODING 172
SWIDTH 550 0
DWIDTH 11 0
BBX 9 7 1 1
BITMAP
FF80
0080
0080
0080
0080
0080
0080
ENDCHAR
STARTCHAR 00AD
ENCODING 173
SWIDTH 350 0
DWIDTH 7 0
BBX 5 1 1 5
BITMAP
F8
ENDCHAR
STARTCHAR 00AE
ENCODING 174
SWIDTH 800 0
DWIDTH 16 0
BBX 14 14 1 0
BITMAP
0FC0
3020
6018
4F88
8844
8844
8844
8F84
8884
8844
4828
6010
1020
0FC0
ENDCHAR
STARTCHAR 00AF
ENCODING 175
SWIDTH 400 0
DWIDTH 8 0
BBX 6 1 1 13
BITMAP
FC
ENDCHAR
STARTCHAR 00B0
ENCODING 176
SWIDTH 350 0
DWIDTH 7 0
BBX 5 5 1 10
BITMAP
70
88
88
88
70
ENDCHAR
STARTCHAR 00B1
ENCODING 177
SWIDTH 550 0
DWIDTH 11 0
BBX 9 12 1 0
BITMAP
0800
0800
0800
0800
FF80
0800
0800
0800
0800
0000
0000
FF80
ENDCHAR
STARTCHAR 00B2
ENCODING 178
SWIDTH 350 0
DWIDTH 7 0
BBX 5 8 1 6
BITMAP
70
88
08
10
20
40
80
F8
ENDCHAR
STARTCHAR 00B3
ENCODING 179
SWIDTH 350 0
DWIDTH 7 0
BBX 5 8 1 6
BITMAP
70
88
08
70
18
08
08
70
ENDCHAR
STARTCHAR 00B4
ENCODING 180
SWIDTH 400 0
DWIDTH 8 0
BBX 4 4 2 12
BITMAP
10
20
40
80
ENDCHAR
STARTCHAR 00B5
ENCODING 181
SWIDTH 600 0
DWIDTH 12 0
BBX 8 15 2 -4
BITMAP
81
81
81
81
81
81
81
81
81
C1
BF
80
80
80
80
ENDCHAR
STARTCHAR 00B6
ENCODING 182
SWIDTH 600 0
DWIDTH 12 0
BBX 9 14 1 0
BITMAP
1F80
7C80
FC80
FC80
FC80
FC80
7C80
1C80
0480
0480
0480
0480
0480
0480
ENDCHAR
STARTCHAR 00B7
ENCODING 183
SWIDTH 150 0
DWIDTH 3 0
BBX 1 2 1 5
BITMAP
80
80
ENDCHAR
STARTCHAR 00B8
ENCODING 184
SWIDTH 400 0
DWIDTH 8 0
BBX 3 5 2 -4
BITMAP
40
40
20
20
C0
ENDCHAR
STARTCHAR 00B9
ENCODING 185
SWIDTH 350 0
DWIDTH 7 0
BBX 3 8 1 6
BITMAP
20
60
A0
20
20
20
20
20
ENDCHAR
STARTCHAR 00BA
ENCODING 186
SWIDTH 450 0
DWIDTH 9 0
BBX 7 8 1 6
BITMAP
38
44
82
82
82
82
44
38
ENDCHAR
STARTCHAR 00BB
ENCODING 187
SWIDTH 450 0
DWIDTH 9 0
BBX 7 9 1 1
BITMAP
88
88
44
44
22
44
44
88
88
ENDCHAR
STARTCHAR 00BC
ENCODING 188
SWIDTH 850 0
DWIDTH 17 0
BBX 14 14 2 0
BITMAP
2020
6040
A040
2080
2100
2100
2208
2218
0428
0428
0848
107C
1008
2008
ENDCHAR
STARTCHAR 00BD
ENCODING 189
SWIDTH 850 0
DWIDTH 17 0
BBX 14 14 2 0
BITMAP
2020
6040
A040
2080
2100
2100
2238
2244
0404
0408
0810
1020
1040
207C
ENDCHAR
STARTCHAR 00BE
ENCODING 190
SWIDTH 850 0
DWIDTH 17 0
BBX 15 14 1 0
BITMAP
7010
8820
0820
7040
1880
0880
0904
710C
0214
0214
0424
083E
0804
1004
ENDCHAR
STARTCHAR 00BF
ENCODING 191
SWIDTH 400 0
DWIDTH 8 0
BBX 6 14 1 -4
BITMAP
10
10
00
00
10
10
10
20
40
80
80
80
44
38
ENDCHAR
STARTCHAR 00C0
ENCODING 192
SWIDTH 650 0
DWIDTH 13 0
BBX 13 19 0 0
BITMAP
0800
0400
0200
0100
0000
0200
0200
0500
0500
0880
0880
1040
1040
1040
3FE0
2020
4010
4010
8008
ENDCHAR
STARTCHAR 00C1
ENCODING 193
SWIDTH 650 0
DWIDTH 13 0
BBX 13 19 0 0
BITMAP
0080
0100
0200
0400
0000
0200
0200
0500
0500
0880
0880
1040
1040
1040
3FE0
2020
4010
4010
8008
ENDCHAR
STARTCHAR 00C2
ENCODING 194
SWIDTH 650 0
DWIDTH 13 0
BBX 13 19 0 0
BITMAP
0200
0500
0900
0880
0000
0200
0200
0500
0500
0880
0880
1040
1040
1040
3FE0
2020
4010
4010
8008
ENDCHAR
STARTCHAR 00C3
ENCODING 195
SWIDTH 650 0
DWIDTH 13 0
BBX 13 18 0 0
BITMAP
0C80
1300
0000
0000
0200
0200
0500
0500
0880
0880
1040
1040
1040
3FE0
2020
4010
4010
8008
ENDCHAR
STARTCHAR 00C4
ENCODING 196
SWIDTH 650 0
DWIDTH 13 0
BBX 13 18 0 0
BITMAP
0900
0900
0000
0000
0200
0200
0500
0500
0880
0880
1040
1040
1040
3FE0
2020
4010
4010
8008
ENDCHAR
STARTCHAR 00C5
ENCODING 197
SWIDTH 650 0
DWIDTH 13 0
BBX 13 17 0 0
BITMAP
0700
0880
0880
0700
0200
0500
0500
0880
0880
1040
1040
1040
3FE0
2020
4010
4010
8008
ENDCHAR
STARTCHAR 00C6
ENCODING 198
SWIDTH 900 0
DWIDTH 18 0
BBX 17 14 0 0
BITMAP
007F00
00C000
014000
024000
024000
044000
047E00
084000
104000
1FC000
204000
204000
404000
807F80
ENDCHAR
STARTCHAR 00C7
ENCODING 199
SWIDTH 600 0
DWIDTH 12 0
BBX 10 18 1 -4
BITMAP
0F80
3040
6000
4000
8000
8000
8000
8000
8000
8000
4000
4000
3040
0F80
0200
0100
0100
0600
ENDCHAR
STARTCHAR 00C8
ENCODING 200
SWIDTH 550 0
DWIDTH 11 0
BBX 8 19 2 0
BITMAP
40
20
10
08
00
FE
80
80
80
80
80
FC
80
80
80
80
80
80
FF
ENDCHAR
STARTCHAR 00C9
ENCODING 201
SWIDTH 550 0
DWIDTH 11 0
BBX 8 19 2 0
BITMAP
04
08
10
20
00
FE
80
80
80
80
80
FC
80
80
80
80
80
80
FF
ENDCHAR
STARTCHAR 00CA
ENCODING 202
SWIDTH 550 0
DWIDTH 11 0
BBX 8 19 2 0
BITMAP
10
28
48
44
00
FE
80
80
80
80
80
FC
80
80
80
80
80
80
FF
ENDCHAR
STARTCHAR 00CB
ENCODING 203
SWIDTH 550 0
DWIDTH 11 0
BBX 8 18 2 0
BITMAP
24
24
00
00
FE
80
80
80
80
80
FC
80
80
80
80
80
80
FF
ENDCHAR
STARTCHAR 00CC
ENCODING 204
SWIDTH 250 0
DWIDTH 5 0
BBX 4 19 0 0
BITMAP
80
40
20
10
00
20
20
20
20
20
20
20
20
20
20
20
20
20
20
ENDCHAR
STARTCHAR 00CD
ENCODING 205
SWIDTH 250 0
DWIDTH 5 0
BBX 4 19 1 0
BITMAP
10
20
40
80
00
40
40
40
40
40
40
40
40
40
40
40
40
40
40
ENDCHAR
STARTCHAR 00CE
ENCODING 206
SWIDTH 250 0
DWIDTH 5 0
BBX 5 19 0 0
BITMAP
20
50
90
88
00
20
20
20
20
20
20
20
20
20
20
20
20
20
20
ENDCHAR
STARTCHAR 00CF
ENCODING 207
SWIDTH 250 0
DWIDTH 5 0
BBX 4 18 1 0
BITMAP
90
90
00
00
40
40
40
40
40
40
40
40
40
40
40
40
40
40
ENDCHAR
STARTCHAR 00D0
ENCODING 208
SWIDTH 700 0
DWIDTH 14 0
BBX 13 14 0 0
BITMAP
3F80
2060
2010
2010
2008
2008
FC08
2008
2008
2008
2010
2010
2060
3F80
ENDCHAR
STARTCHAR 00D1
ENCODING 209
SWIDTH 700 0
DWIDTH 14 0
BBX 10 18 2 0
BITMAP
1900
2600
0000
0000
8040
C040
C040
A040
9040
9040
8840
8440
8440
8240
8140
8140
80C0
8040
ENDCHAR
STARTCHAR 00D2
ENCODING 210
SWIDTH 750 0
DWIDTH 15 0
BBX 13 19 1 0
BITMAP
0800
0400
0200
0100
0000
0F80
3060
4010
4010
8008
8008
8008
8008
8008
8008
4010
4010
3060
0F80
ENDCHAR
STARTCHAR 00D3
ENCODING 211
SWIDTH 750 0
DWIDTH 15 0
BBX 13 19 1 0
BITMAP
0080
0100
0200
0400
0000
0F80
3060
4010
4010
8008
8008
8008
8008
8008
8008
4010
4010
3060
0F80
ENDCHAR
STARTCHAR 00D4
ENCODING 212
SWIDTH 750 0
DWIDTH 15 0
BBX 13 19 1 0
BITMAP
0200
0500
0900
0880
0000
0F80
3060
4010
4010
8008
8008
8008
8008
8008
8008
4010
4010
3060
0F80
ENDCHAR
STARTCHAR 00D5
ENCODING 213
SWIDTH 750 0
DWIDTH 15 0
BBX 13 18 1 0
BITMAP
1900
0600
0000
0000
0F80
3060
4010
4010
8008
8008
8008
8008
8008
8008
4010
4010
3060
0F80
ENDCHAR
STARTCHAR 00D6
ENCODING 214
SWIDTH 750 0
DWIDTH 15 0
BBX 13 18 1 0
BITMAP
1100
0100
0000
0000
0F80
3060
4010
4010
8008
8008
8008
8008
8008
8008
4010
4010
3060
0F80
ENDCHAR
STARTCHAR 00D7
ENCODING 215
SWIDTH 550 0
DWIDTH 11 0
BBX 7 7 2 3
BITMAP
82
44
28
10
28
44
82
ENDCHAR
STARTCHAR 00D8
ENCODING 216
SWIDTH 750 0
DWIDTH 15 0
BBX 13 14 1 0
BITMAP
0F88
3050
4020
4050
8088
8108
8208
8208
8408
8808
5010
2010
5060
8F80
ENDCHAR
STARTCHAR 00D9
ENCODING 217
SWIDTH 700 0
DWIDTH 14 0
BBX 10 19 2 0
BITMAP
2000
1000
0800
0400
0000
8040
8040
8040
8040
8040
8040
8040
8040
8040
8040
8040
4080
2100
1E00
ENDCHAR
STARTCHAR 00DA
ENCODING 218
SWIDTH 700 0
DWIDTH 14 0
BBX 10 19 2 0
BITMAP
0100
0200
0400
0800
0000
8040
8040
8040
8040
8040
8040
8040
8040
8040
8040
8040
4080
2100
1E00
ENDCHAR
STARTCHAR 00DB
ENCODING 219
SWIDTH 700 0
DWIDTH 14 0
BBX 10 19 2 0
BITMAP
0800
1400
2400
2200
0000
8040
8040
8040
8040
8040
8040
8040
8040
8040
8040
8040
4080
2100
1E00
ENDCHAR
STARTCHAR 00DC
ENCODING 220
SWIDTH 700 0
DWIDTH 14 0
BBX 10 18 2 0
BITMAP
1200
1200
0000
0000
8040
8040
8040
8040
8040
8040
8040
8040
8040
8040
8040
4080
2100
1E00
ENDCHAR
STARTCHAR 00DD
ENCODING 221
SWIDTH 650 0
DWIDTH 13 0
BBX 11 19 1 0
BITMAP
0100
0200
0400
0800
0000
8020
4040
4040
2080
1100
1100
0A00
0400
0400
0400
0400
0400
0400
0400
ENDCHAR
STARTCHAR 00DE
ENCODING 222
SWIDTH 600 0
DWIDTH 12 0
BBX 9 14 2 0
BITMAP
8000
8000
FE00
8300
8080
8080
8080
8080
8080
8100
FE00
8000
8000
8000
ENDCHAR
STARTCHAR 00DF
ENCODING 223
SWIDTH 600 0
DWIDTH 12 0
BBX 9 16 2 0
BITMAP
3C00
4200
8200
8200
8200
8400
8800
8800
8800
8600
8100
8080
8080
8080
8100
8E00
ENDCHAR
STARTCHAR 00E0
ENCODING 224
SWIDTH 500 0
DWIDTH 10 0
BBX 7 16 1 0
BITMAP
40
20
10
08
00
78
04
02
02
3E
42
82
82
82
42
3E
ENDCHAR
STARTCHAR 00E1
ENCODING 225
SWIDTH 500 0
DWIDTH 10 0
BBX 7 16 1 0
BITMAP
02
04
08
10
00
78
04
02
02
3E
42
82
82
82
42
3E
ENDCHAR
STARTCHAR 00E2
ENCODING 226
SWIDTH 500 0
DWIDTH 10 0
BBX 7 16 1 0
BITMAP
10
28
48
44
00
78
04
02
02
3E
42
82
82
82
42
3E
ENDCHAR
STARTCHAR 00E3
ENCODING 227
SWIDTH 500 0
DWIDTH 10 0
BBX 7 15 1 0
BITMAP
32
4C
00
00
78
04
02
02
3E
42
82
82
82
42
3E
ENDCHAR
STARTCHAR 00E4
ENCODING 228
SWIDTH 500 0
DWIDTH 10 0
BBX 7 15 1 0
BITMAP
24
24
00
00
78
04
02
02
3E
42
82
82
82
42
3E
ENDCHAR
STARTCHAR 00E5
ENCODING 229
SWIDTH 500 0
DWIDTH 10 0
BBX 7 16 1 0
BITMAP
18
24
24
18
00
78
04
02
02
3E
42
82
82
82
42
3E
ENDCHAR
STARTCHAR 00E6
ENCODING 230
SWIDTH 850 0
DWIDTH 17 0
BBX 15 11 1 0
BITMAP
78F8
0504
0202
0202
3E02
43FE
8200
8200
8300
4480
387C
ENDCHAR
STARTCHAR 00E7
ENCODING 231
SWIDTH 450 0
DWIDTH 9 0
BBX 7 15 1 -4
BITMAP
1C
22
40
80
80
80
80
80
40
22
1C
10
08
08
30
ENDCHAR
STARTCHAR 00E8
ENCODING 232
SWIDTH 550 0
DWIDTH 11 0
BBX 9 16 1 0
BITMAP
2000
1000
0800
0400
0000
1C00
2200
4100
8080
8080
FF80
8000
8000
4000
2100
1E00
ENDCHAR
STARTCHAR 00E9
ENCODING 233
SWIDTH 550 0
DWIDTH 11 0
BBX 9 16 1 0
BITMAP
0200
0400
0800
1000
0000
1C00
2200
4100
8080
8080
FF80
8000
8000
4000
2100
1E00
ENDCHAR
STARTCHAR 00EA
ENCODING 234
SWIDTH 550 0
DWIDTH 11 0
BBX 9 16 1 0
BITMAP
0800
1400
2400
2200
0000
1C00
2200
4100
8080
8080
FF80
8000
8000
4000
2100
1E00
ENDCHAR
STARTCHAR 00EB
ENCODING 235
SWIDTH 550 0
DWIDTH 11 0
BBX 9 15 1 0
BITMAP
1200
1200
0000
0000
1C00
2200
4100
8080
8080
FF80
8000
8000
4000
2100
1E00
ENDCHAR
STARTCHAR 00EC
ENCODING 236
SWIDTH 250 0
DWIDTH 5 0
BBX 4 16 0 0
BITMAP
80
40
20
10
00
20
20
20
20
20
20
20
20
20
20
20
ENDCHAR
STARTCHAR 00ED
ENCODING 237
SWIDTH 250 0
DWIDTH 5 0
BBX 4 16 1 0
BITMAP
10
20
40
80
00
40
40
40
40
40
40
40
40
40
40
40
ENDCHAR
STARTCHAR 00EE
ENCODING 238
SWIDTH 250 0
DWIDTH 5 0
BBX 5 16 0 0
BITMAP
20
50
90
88
00
20
20
20
20
20
20
20
20
20
20
20
ENDCHAR
STARTCHAR 00EF
ENCODING 239
SWIDTH 250 0
DWIDTH 5 0
BBX 4 15 0 0
BITMAP
90
90
00
00
20
20
20
20
20
20
20
20
20
20
20
ENDCHAR
STARTCHAR 00F0
ENCODING 240
SWIDTH 600 0
DWIDTH 12 0
BBX 10 16 1 0
BITMAP
0800
0440
0280
0300
0480
0080
1E40
21C0
4040
8040
8040
8040
8040
4080
2180
1E00
ENDCHAR
STARTCHAR 00F1
ENCODING 241
SWIDTH 600 0
DWIDTH 12 0
BBX 8 15 2 0
BITMAP
32
4C
00
00
FC
82
81
81
81
81
81
81
81
81
81
ENDCHAR
STARTCHAR 00F2
ENCODING 242
SWIDTH 600 0
DWIDTH 12 0
BBX 10 16 1 0
BITMAP
2000
1000
0800
0400
0000
1E00
2100
4080
8040
8040
8040
8040
8040
4080
2100
1E00
ENDCHAR
STARTCHAR 00F3
ENCODING 243
SWIDTH 600 0
DWIDTH 12 0
BBX 10 16 1 0
BITMAP
0100
0200
0400
0800
0000
1E00
2100
4080
8040
8040
8040
8040
8040
4080
2100
1E00
ENDCHAR
STARTCHAR 00F4
ENCODING 244
SWIDTH 600 0
DWIDTH 12 0
BBX 10 16 1 0
BITMAP
0400
0A00
1200
1100
0000
1E00
2100
4080
8040
8040
8040
8040
8040
4080
2100
1E00
ENDCHAR
STARTCHAR 00F5
ENCODING 245
SWIDTH 600 0
DWIDTH 12 0
BBX 10 15 1 0
BITMAP
1900
2600
0000
0000
1E00
2100
4080
8040
8040
8040
8040
8040
4080
2100
1E00
ENDCHAR
STARTCHAR 00F6
ENCODING 246
SWIDTH 600 0
DWIDTH 12 0
BBX 10 15 1 0
BITMAP
1200
1200
0000
0000
1E00
2100
4080
8040
8040
8040
8040
8040
4080
2100
1E00
ENDCHAR
STARTCHAR 00F7
ENCODING 247
SWIDTH 550 0
DWIDTH 11 0
BBX 9 9 1 1
BITMAP
0800
0800
0000
0000
FF80
0000
0000
0800
0800
ENDCHAR
STARTCHAR 00F8
ENCODING 248
SWIDTH 600 0
DWIDTH 12 0
BBX 10 11 1 0
BITMAP
1E40
2180
4180
8240
8440
8840
8840
9040
6080
6100
9E00
ENDCHAR
STARTCHAR 00F9
ENCODING 249
SWIDTH 600 0
DWIDTH 12 0
BBX 8 16 2 0
BITMAP
40
20
10
08
00
81
81
81
81
81
81
81
81
81
41
3F
ENDCHAR
STARTCHAR 00FA
ENCODING 250
SWIDTH 600 0
DWIDTH 12 0
BBX 8 16 2 0
BITMAP
02
04
08
10
00
81
81
81
81
81
81
81
81
81
41
3F
ENDCHAR
STARTCHAR 00FB
ENCODING 251
SWIDTH 600 0
DWIDTH 12 0
BBX 8 16 2 0
BITMAP
08
14
24
22
00
81
81
81
81
81
81
81
81
81
41
3F
ENDCHAR
STARTCHAR 00FC
ENCODING 252
SWIDTH 600 0
DWIDTH 12 0
BBX 8 15 2 0
BITMAP
24
24
00
00
81
81
81
81
81
81
81
81
81
41
3F
ENDCHAR
STARTCHAR 00FD
ENCODING 253
SWIDTH 450 0
DWIDTH 9 0
BBX 7 20 1 -4
BITMAP
02
04
08
10
00
82
82
44
44
44
44
28
28
28
28
10
10
10
20
C0
ENDCHAR
STARTCHAR 00FE
ENCODING 254
SWIDTH 600 0
DWIDTH 12 0
BBX 9 20 2 -4
BITMAP
8000
8000
8000
8000
8000
FC00
8200
8100
8080
8080
8080
8080
8080
8100
C200
BC00
8000
8000
8000
8000
ENDCHAR
STARTCHAR 00FF
ENCODING 255
SWIDTH 450 0
DWIDTH 9 0
BBX 7 19 1 -4
BITMAP
24
24
00
00
82
82
44
44
44
44
28
28
28
28
10
10
10
20
C0
ENDCHAR
STARTCHAR 0100
ENCODING 256
SWIDTH 650 0
DWIDTH 13 0
BBX 13 17 0 0
BITMAP
1F80
0000
0000
0200
0200
0500
0500
0880
0880
1040
1040
1040
3FE0
2020
4010
4010
8008
ENDCHAR
STARTCHAR 0101
ENCODING 257
SWIDTH 500 0
DWIDTH 10 0
BBX 7 14 1 0
BITMAP
7E
00
00
78
04
02
02
3E
42
82
82
82
42
3E
ENDCHAR
STARTCHAR 0102
ENCODING 258
SWIDTH 650 0
DWIDTH 13 0
BBX 13 18 0 0
BITMAP
0880
0880
0700
0000
0200
0200
0500
0500
0880
0880
1040
1040
1040
3FE0
2020
4010
4010
8008
ENDCHAR
STARTCHAR 0103
ENCODING 259
SWIDTH 500 0
DWIDTH 10 0
BBX 7 15 1 0
BITMAP
44
44
38
00
78
04
02
02
3E
42
82
82
82
42
3E
ENDCHAR
STARTCHAR 0104
ENCODING 260
SWIDTH 650 0
DWIDTH 13 0
BBX 13 18 0 -4
BITMAP
0200
0200
0500
0500
0880
0880
1040
1040
1040
3FE0
2020
4010
4010
8008
0018
0020
0020
0018
ENDCHAR
STARTCHAR 0105
ENCODING 261
SWIDTH 500 0
DWIDTH 10 0
BBX 7 15 1 -4
BITMAP
78
04
02
02
3E
42
82
82
82
42
3E
04
08
08
0E
ENDCHAR
STARTCHAR 0106
ENCODING 262
SWIDTH 600 0
DWIDTH 12 0
BBX 10 19 1 0
BITMAP
0080
0100
0200
0400
0000
0F80
3040
6000
4000
8000
8000
8000
8000
8000
8000
4000
4000
3040
0F80
ENDCHAR
STARTCHAR 0107
ENCODING 263
SWIDTH 450 0
DWIDTH 9 0
BBX 7 16 1 0
BITMAP
02
04
08
10
00
1C
22
40
80
80
80
80
80
40
22
1C
ENDCHAR
STARTCHAR 0108
ENCODING 264
SWIDTH 600 0
DWIDTH 12 0
BBX 10 19 1 0
BITMAP
0400
0A00
1200
1100
0000
0F80
3040
6000
4000
8000
8000
8000
8000
8000
8000
4000
4000
3040
0F80
ENDCHAR
STARTCHAR 0109
ENCODING 265
SWIDTH 450 0
DWIDTH 9 0
BBX 7 16 1 0
BITMAP
08
14
24
22
00
1C
22
40
80
80
80
80
80
40
22
1C
ENDCHAR
STARTCHAR 010A
ENCODING 266
SWIDTH 600 0
DWIDTH 12 0
BBX 10 17 1 0
BITMAP
0400
0400
0000
0F80
3040
6000
4000
8000
8000
8000
8000
8000
8000
4000
4000
3040
0F80
ENDCHAR
STARTCHAR 010B
ENCODING 267
SWIDTH 450 0
DWIDTH 9 0
BBX 7 14 1 0
BITMAP
08
08
00
1C
22
40
80
80
80
80
80
40
22
1C
ENDCHAR
STARTCHAR 010C
ENCODING 268
SWIDTH 600 0
DWIDTH 12 0
BBX 10 19 1 0
BITMAP
1100
1200
0A00
0400
0000
0F80
3040
6000
4000
8000
8000
8000
8000
8000
8000
4000
4000
3040
0F80
ENDCHAR
STARTCHAR 010D
ENCODING 269
SWIDTH 450 0
DWIDTH 9 0
BBX 7 16 1 0
BITMAP
22
24
14
08
00
1C
22
40
80
80
80
80
80
40
22
1C
ENDCHAR
STARTCHAR 010E
ENCODING 270
SWIDTH 700 0
DWIDTH 14 0
BBX 11 19 2 0
BITMAP
1100
1200
0A00
0400
0000
FE00
8180
8040
8040
8020
8020
8020
8020
8020
8020
8040
8040
8180
FE00
ENDCHAR
STARTCHAR 010F
ENCODING 271
SWIDTH 600 0
DWIDTH 12 0
BBX 12 16 1 0
BITMAP
0090
0090
0090
0090
0080
1E80
2180
4080
8080
8080
8080
8080
8080
4080
2080
1F80
ENDCHAR
STARTCHAR 0110
ENCODING 272
SWIDTH 700 0
DWIDTH 14 0
BBX 13 14 0 0
BITMAP
3F80
2060
2010
2010
2008
2008
FC08
2008
2008
2008
2010
2010
2060
3F80
ENDCHAR
STARTCHAR 0111
ENCODING 273
SWIDTH 600 0
DWIDTH 12 0
BBX 11 16 1 0
BITMAP
0080
0080
0FE0
0080
0080
1E80
2180
4080
8080
8080
8080
8080
8080
4080
2080
1F80
ENDCHAR
STARTCHAR 0112
ENCODING 274
SWIDTH 550 0
DWIDTH 11 0
BBX 8 17 2 0
BITMAP
7E
00
00
FE
80
80
80
80
80
FC
80
80
80
80
80
80
FF
ENDCHAR
STARTCHAR 0113
ENCODING 275
SWIDTH 550 0
DWIDTH 11 0
BBX 9 14 1 0
BITMAP
3F00
0000
0000
1C00
2200
4100
8080
8080
FF80
8000
8000
4000
2100
1E00
ENDCHAR
STARTCHAR 0114
ENCODING 276
SWIDTH 550 0
DWIDTH 11 0
BBX 8 18 2 0
BITMAP
44
44
38
00
FE
80
80
80
80
80
FC
80
80
80
80
80
80
FF
ENDCHAR
STARTCHAR 0115
ENCODING 277
SWIDTH 550 0
DWIDTH 11 0
BBX 9 15 1 0
BITMAP
2200
2200
1C00
0000
1C00
2200
4100
8080
8080
FF80
8000
8000
4000
2100
1E00
ENDCHAR
STARTCHAR 0116
ENCODING 278
SWIDTH 550 0
DWIDTH 11 0
BBX 8 17 2 0
BITMAP
10
10
00
FE
80
80
80
80
80
FC
80
80
80
80
80
80
FF
ENDCHAR
STARTCHAR 0117
ENCODING 279
SWIDTH 550 0
DWIDTH 11 0
BBX 9 14 1 0
BITMAP
0800
0800
0000
1C00
2200
4100
8080
8080
FF80
8000
8000
4000
2100
1E00
ENDCHAR
STARTCHAR 0118
ENCODING 280
SWIDTH 550 0
DWIDTH 11 0
BBX 8 18 2 -4
BITMAP
FE
80
80
80
80
80
FC
80
80
80
80
80
80
FF
02
04
04
07
ENDCHAR
STARTCHAR 0119
ENCODING 281
SWIDTH 550 0
DWIDTH 11 0
BBX 9 15 1 -4
BITMAP
1C00
2200
4100
8080
8080
FF80
8000
8000
4000
2100
1F00
0200
0400
0400
0700
ENDCHAR
STARTCHAR 011A
ENCODING 282
SWIDTH 550 0
DWIDTH 11 0
BBX 8 19 2 0
BITMAP
44
48
28
10
00
FE
80
80
80
80
80
FC
80
80
80
80
80
80
FF
ENDCHAR
STARTCHAR 011B
ENCODING 283
SWIDTH 550 0
DWIDTH 11 0
BBX 9 16 1 0
BITMAP
2200
2400
1400
0800
0000
1C00
2200
4100
8080
8080
FF80
8000
8000
4000
2100
1E00
ENDCHAR
STARTCHAR 011C
ENCODING 284
SWIDTH 650 0
DWIDTH 13 0
BBX 10 19 1 0
BITMAP
0400
0A00
1200
1100
0000
0F80
3040
4000
4000
8000
8000
8000
8040
8040
8040
4040
4040
3040
0FC0
ENDCHAR
STARTCHAR 011D
ENCODING 285
SWIDTH 600 0
DWIDTH 12 0
BBX 9 20 1 -4
BITMAP
0400
0A00
1200
1100
0000
1F80
2080
4080
8080
8080
8080
8080
8080
4080
2180
1E80
0080
0080
0100
7E00
ENDCHAR
STARTCHAR 011E
ENCODING 286
SWIDTH 650 0
DWIDTH 13 0
BBX 10 18 1 0
BITMAP
1100
1100
0E00
0000
0F80
3040
4000
4000
8000
8000
8000
8040
8040
8040
4040
4040
3040
0FC0
ENDCHAR
STARTCHAR 011F
ENCODING 287
SWIDTH 600 0
DWIDTH 12 0
BBX 9 19 1 -4
BITMAP
1100
1100
0E00
0000
1F80
2080
4080
8080
8080
8080
8080
8080
4080
2180
1E80
0080
0080
0100
7E00
ENDCHAR
STARTCHAR 0120
ENCODING 288
SWIDTH 650 0
DWIDTH 13 0
BBX 10 17 1 0
BITMAP
0400
0400
0000
0F80
3040
4000
4000
8000
8000
8000
8040
8040
8040
4040
4040
3040
0FC0
ENDCHAR
STARTCHAR 0121
ENCODING 289
SWIDTH 600 0
DWIDTH 12 0
BBX 9 18 1 -4
BITMAP
0400
0400
0000
1F80
2080
4080
8080
8080
8080
8080
8080
4080
2180
1E80
0080
0080
0100
7E00
ENDCHAR
STARTCHAR 0122
ENCODING 290
SWIDTH 650 0
DWIDTH 13 0
BBX 10 18 1 -4
BITMAP
0F80
3040
4000
4000
8000
8000
8000
8040
8040
8040
4040
4040
3040
0FC0
0000
0400
0400
0800
ENDCHAR
STARTCHAR 0123
ENCODING 291
SWIDTH 600 0
DWIDTH 12 0
BBX 9 19 1 -4
BITMAP
0400
0800
0800
0000
1F80
2080
4080
8080
8080
8080
8080
8080
4080
2180
1E80
0080
0080
0100
7E00
ENDCHAR
STARTCHAR 0124
ENCODING 292
SWIDTH 700 0
DWIDTH 14 0
BBX 10 19 2 0
BITMAP
0400
0A00
1200
1100
0000
8040
8040
8040
8040
8040
8040
FFC0
8040
8040
8040
8040
8040
8040
8040
ENDCHAR
STARTCHAR 0125
ENCODING 293
SWIDTH 600 0
DWIDTH 12 0
BBX 9 20 1 0
BITMAP
2000
5000
8800
0000
4000
4000
4000
4000
4000
7E00
4100
4080
4080
4080
4080
4080
4080
4080
4080
4080
ENDCHAR
STARTCHAR 0126
ENCODING 294
SWIDTH 700 0
DWIDTH 14 0
BBX 14 14 0 0
BITMAP
2010
2010
FFFC
2010
2010
2010
3FF0
2010
2010
2010
2010
2010
2010
2010
ENDCHAR
STARTCHAR 0127
ENCODING 295
SWIDTH 600 0
DWIDTH 12 0
BBX 10 16 0 0
BITMAP
2000
2000
FE00
2000
2000
3F00
2080
2040
2040
2040
2040
2040
2040
2040
2040
2040
ENDCHAR
STARTCHAR 0128
ENCODING 296
SWIDTH 250 0
DWIDTH 5 0
BBX 6 18 0 0
BITMAP
64
98
00
00
20
20
20
20
20
20
20
20
20
20
20
20
20
20
ENDCHAR
STARTCHAR 0129
ENCODING 297
SWIDTH 250 0
DWIDTH 5 0
BBX 6 15 0 0
BITMAP
64
98
00
00
20
20
20
20
20
20
20
20
20
20
20
ENDCHAR
STARTCHAR 012A
ENCODING 298
SWIDTH 250 0
DWIDTH 5 0
BBX 6 17 0 0
BITMAP
FC
00
00
20
20
20
20
20
20
20
20
20
20
20
20
20
20
ENDCHAR
STARTCHAR 012B
ENCODING 299
SWIDTH 250 0
DWIDTH 5 0
BBX 6 14 0 0
BITMAP
FC
00
00
20
20
20
20
20
20
20
20
20
20
20
ENDCHAR
STARTCHAR 012C
ENCODING 300
SWIDTH 250 0
DWIDTH 5 0
BBX 5 18 0 0
BITMAP
88
88
70
00
20
20
20
20
20
20
20
20
20
20
20
20
20
20
ENDCHAR
STARTCHAR 012D
ENCODING 301
SWIDTH 250 0
DWIDTH 5 0
BBX 5 15 0 0
BITMAP
88
88
70
00
20
20
20
20
20
20
20
20
20
20
20
ENDCHAR
STARTCHAR 012E
ENCODING 302
SWIDTH 250 0
DWIDTH 5 0
BBX 3 18 0 -4
BITMAP
20
20
20
20
20
20
20
20
20
20
20
20
20
20
40
80
80
E0
ENDCHAR
STARTCHAR 012F
ENCODING 303
SWIDTH 250 0
DWIDTH 5 0
BBX 3 18 0 -4
BITMAP
20
20
00
20
20
20
20
20
20
20
20
20
20
20
40
80
80
E0
ENDCHAR
STARTCHAR 0130
ENCODING 304
SWIDTH 250 0
DWIDTH 5 0
BBX 1 17 2 0
BITMAP
80
80
00
80
80
80
80
80
80
80
80
80
80
80
80
80
80
ENDCHAR
STARTCHAR 0131
ENCODING 305
SWIDTH 250 0
DWIDTH 5 0
BBX 1 11 2 0
BITMAP
80
80
80
80
80
80
80
80
80
80
80
ENDCHAR
STARTCHAR 0132
ENCODING 306
SWIDTH 750 0
DWIDTH 15 0
BBX 11 14 2 0
BITMAP
8020
8020
8020
8020
8020
8020
8020
8020
8020
8020
8020
8020
8840
8780
ENDCHAR
STARTCHAR 0133
ENCODING 307
SWIDTH 450 0
DWIDTH 9 0
BBX 6 18 2 -4
BITMAP
84
84
00
84
84
84
84
84
84
84
84
84
84
84
04
04
04
38
ENDCHAR
STARTCHAR 0134
ENCODING 308
SWIDTH 500 0
DWIDTH 10 0
BBX 9 19 1 0
BITMAP
0200
0500
0900
0880
0000
0200
0200
0200
0200
0200
0200
0200
0200
0200
0200
0200
0200
8400
7800
ENDCHAR
STARTCHAR 0135
ENCODING 309
SWIDTH 250 0
DWIDTH 5 0
BBX 6 20 -1 -4
BITMAP
10
28
48
44
00
10
10
10
10
10
10
10
10
10
10
10
10
10
10
E0
ENDCHAR
STARTCHAR 0136
ENCODING 310
SWIDTH 600 0
DWIDTH 12 0
BBX 10 18 2 -4
BITMAP
8040
8180
8200
8400
8800
B000
C000
A000
9800
8400
8200
8100
8080
8040
0000
0800
0800
1000
ENDCHAR
STARTCHAR 0137
ENCODING 311
SWIDTH 500 0
DWIDTH 10 0
BBX 8 20 2 -4
BITMAP
80
80
80
80
80
81
82
8C
90
A0
C0
A0
98
84
82
81
00
10
10
20
ENDCHAR
STARTCHAR 0138
ENCODING 312
SWIDTH 500 0
DWIDTH 10 0
BBX 8 11 2 0
BITMAP
83
84
88
90
A0
C0
B0
88
84
82
81
ENDCHAR
STARTCHAR 0139
ENCODING 313
SWIDTH 500 0
DWIDTH 10 0
BBX 8 19 1 0
BITMAP
10
20
40
80
00
40
40
40
40
40
40
40
40
40
40
40
40
40
7F
ENDCHAR
STARTCHAR 013A
ENCODING 314
SWIDTH 300 0
DWIDTH 6 0
BBX 5 19 2 0
BITMAP
38
60
00
80
80
80
80
80
80
80
80
80
80
80
80
80
80
80
60
ENDCHAR
STARTCHAR 013B
ENCODING 315
SWIDTH 500 0
DWIDTH 10 0
BBX 7 18 2 -4
BITMAP
80
80
80
80
80
80
80
80
80
80
80
80
80
FE
00
10
10
20
ENDCHAR
STARTCHAR 013C
ENCODING 316
SWIDTH 300 0
DWIDTH 6 0
BBX 3 20 2 -4
BITMAP
80
80
80
80
80
80
80
80
80
80
80
80
80
80
80
60
00
20
20
C0
ENDCHAR
STARTCHAR 013D
ENCODING 317
SWIDTH 500 0
DWIDTH 10 0
BBX 7 14 2 0
BITMAP
90
90
90
90
80
80
80
80
80
80
80
80
80
FE
ENDCHAR
STARTCHAR 013E
ENCODING 318
SWIDTH 250 0
DWIDTH 5 0
BBX 3 16 2 0
BITMAP
A0
A0
A0
A0
80
80
80
80
80
80
80
80
80
80
80
60
ENDCHAR
STARTCHAR 013F
ENCODING 319
SWIDTH 500 0
DWIDTH 10 0
BBX 7 14 2 0
BITMAP
80
80
80
80
80
80
84
84
80
80
80
80
80
FE
ENDCHAR
STARTCHAR 0140
ENCODING 320
SWIDTH 300 0
DWIDTH 6 0
BBX 4 16 2 0
BITMAP
80
80
80
80
80
80
80
80
90
90
80
80
80
80
80
60
ENDCHAR
STARTCHAR 0141
ENCODING 321
SWIDTH 500 0
DWIDTH 10 0
BBX 9 14 0 0
BITMAP
2000
2000
2000
2000
2400
2800
3000
6000
A000
2000
2000
2000
2000
3F80
ENDCHAR
STARTCHAR 0142
ENCODING 322
SWIDTH 300 0
DWIDTH 6 0
BBX 4 16 1 0
BITMAP
40
40
40
40
40
40
50
60
C0
40
40
40
40
40
40
30
ENDCHAR
STARTCHAR 0143
ENCODING 323
SWIDTH 700 0
DWIDTH 14 0
BBX 10 19 2 0
BITMAP
0100
0200
0400
0800
0000
8040
C040
C040
A040
9040
9040
8840
8440
8440
8240
8140
8140
80C0
8040
ENDCHAR
STARTCHAR 0144
ENCODING 324
SWIDTH 600 0
DWIDTH 12 0
BBX 8 16 2 0
BITMAP
02
04
08
10
00
FC
82
81
81
81
81
81
81
81
81
81
ENDCHAR
STARTCHAR 0145
ENCODING 325
SWIDTH 700 0
DWIDTH 14 0
BBX 10 18 2 -4
BITMAP
8040
C040
C040
A040
9040
9040
8840
8440
8440
8240
8140
8140
80C0
8040
0000
0800
0800
1000
ENDCHAR
STARTCHAR 0146
ENCODING 326
SWIDTH 600 0
DWIDTH 12 0
BBX 8 15 2 -4
BITMAP
FC
82
81
81
81
81
81
81
81
81
81
00
10
10
20
ENDCHAR
STARTCHAR 0147
ENCODING 327
SWIDTH 700 0
DWIDTH 14 0
BBX 10 19 2 0
BITMAP
1100
1200
0A00
0400
0000
8040
C040
C040
A040
9040
9040
8840
8440
8440
8240
8140
8140
80C0
8040
ENDCHAR
STARTCHAR 0148
ENCODING 328
SWIDTH 600 0
DWIDTH 12 0
BBX 8 16 2 0
BITMAP
22
24
14
08
00
FC
82
81
81
81
81
81
81
81
81
81
ENDCHAR
STARTCHAR 0149
ENCODING 329
SWIDTH 600 0
DWIDTH 12 0
BBX 9 16 1 0
BITMAP
4000
4000
4000
8000
0000
7E00
4100
4080
4080
4080
4080
4080
4080
4080
4080
4080
ENDCHAR
STARTCHAR 014A
ENCODING 330
SWIDTH 700 0
DWIDTH 14 0
BBX 10 18 2 -4
BITMAP
8040
C040
C040
A040
9040
8840
8840
8440
8240
8140
8140
80C0
8040
8040
0040
0040
0040
0180
ENDCHAR
STARTCHAR 014B
ENCODING 331
SWIDTH 600 0
DWIDTH 12 0
BBX 8 15 2 -4
BITMAP
FC
82
81
81
81
81
81
81
81
81
81
01
01
01
06
ENDCHAR
STARTCHAR 014C
ENCODING 332
SWIDTH 750 0
DWIDTH 15 0
BBX 13 17 1 0
BITMAP
1F80
0000
0000
0F80
3060
4010
4010
8008
8008
8008
8008
8008
8008
4010
4010
3060
0F80
ENDCHAR
STARTCHAR 014D
ENCODING 333
SWIDTH 600 0
DWIDTH 12 0
BBX 10 14 1 0
BITMAP
3F00
0000
0000
1E00
2100
4080
8040
8040
8040
8040
8040
4080
2100
1E00
ENDCHAR
STARTCHAR 014E
ENCODING 334
SWIDTH 750 0
DWIDTH 15 0
BBX 13 18 1 0
BITMAP
0880
0880
0700
0000
0F80
3060
4010
4010
8008
8008
8008
8008
8008
8008
4010
4010
3060
0F80
ENDCHAR
STARTCHAR 014F
ENCODING 335
SWIDTH 600 0
DWIDTH 12 0
BBX 10 15 1 0
BITMAP
1100
1100
0E00
0000
1E00
2100
4080
8040
8040
8040
8040
8040
4080
2100
1E00
ENDCHAR
STARTCHAR 0150
ENCODING 336
SWIDTH 750 0
DWIDTH 15 0
BBX 13 19 1 0
BITMAP
0120
0240
0480
0900
0000
0F80
3060
4010
4010
8008
8008
8008
8008
8008
8008
4010
4010
3060
0F80
ENDCHAR
STARTCHAR 0151
ENCODING 337
SWIDTH 600 0
DWIDTH 12 0
BBX 10 16 1 0
BITMAP
0240
0480
0900
1200
0000
1E00
2100
4080
8040
8040
8040
8040
8040
4080
2100
1E00
ENDCHAR
STARTCHAR 0152
ENCODING 338
SWIDTH 1000 0
DWIDTH 20 0
BBX 18 14 1 0
BITMAP
0FFF80
302000
402000
402000
802000
802000
803F80
802000
802000
802000
402000
402000
302000
0FFFC0
ENDCHAR
STARTCHAR 0153
ENCODING 339
SWIDTH 950 0
DWIDTH 19 0
BBX 17 11 1 0
BITMAP
1C1E00
222100
414080
808080
808080
80FF80
808000
808000
414000
222100
1C1E00
ENDCHAR
STARTCHAR 0154
ENCODING 340
SWIDTH 600 0
DWIDTH 12 0
BBX 9 19 2 0
BITMAP
0400
0800
1000
2000
0000
FC00
8200
8100
8100
8100
8100
8200
FC00
8400
8400
8200
8100
8100
8080
ENDCHAR
STARTCHAR 0155
ENCODING 341
SWIDTH 350 0
DWIDTH 7 0
BBX 5 16 2 0
BITMAP
08
10
20
40
00
F0
80
80
80
80
80
80
80
80
80
80
ENDCHAR
STARTCHAR 0156
ENCODING 342
SWIDTH 600 0
DWIDTH 12 0
BBX 9 18 2 -4
BITMAP
FC00
8200
8100
8100
8100
8100
8200
FC00
8400
8400
8200
8100
8100
8080
0000
1000
1000
2000
ENDCHAR
STARTCHAR 0157
ENCODING 343
SWIDTH 350 0
DWIDTH 7 0
BBX 6 15 0 -4
BITMAP
3C
20
20
20
20
20
20
20
20
20
20
00
40
40
80
ENDCHAR
STARTCHAR 0158
ENCODING 344
SWIDTH 600 0
DWIDTH 12 0
BBX 9 19 2 0
BITMAP
4400
4800
2800
1000
0000
FC00
8200
8100
8100
8100
8100
8200
FC00
8400
8400
8200
8100
8100
8080
ENDCHAR
STARTCHAR 0159
ENCODING 345
SWIDTH 350 0
DWIDTH 7 0
BBX 5 16 2 0
BITMAP
88
90
50
20
00
F0
80
80
80
80
80
80
80
80
80
80
ENDCHAR
STARTCHAR 015A
ENCODING 346
SWIDTH 500 0
DWIDTH 10 0
BBX 8 19 1 0
BITMAP
02
04
08
10
00
3E
41
80
80
80
40
30
0C
02
01
01
01
82
7C
ENDCHAR
STARTCHAR 015B
ENCODING 347
SWIDTH 450 0
DWIDTH 9 0
BBX 7 16 1 0
BITMAP
04
08
10
20
00
38
44
80
80
40
38
04
02
02
84
78
ENDCHAR
STARTCHAR 015C
ENCODING 348
SWIDTH 500 0
DWIDTH 10 0
BBX 8 19 1 0
BITMAP
08
14
24
22
00
3E
41
80
80
80
40
30
0C
02
01
01
01
82
7C
ENDCHAR
STARTCHAR 015D
ENCODING 349
SWIDTH 450 0
DWIDTH 9 0
BBX 7 16 1 0
BITMAP
10
28
48
44
00
38
44
80
80
40
38
04
02
02
84
78
ENDCHAR
STARTCHAR 015E
ENCODING 350
SWIDTH 500 0
DWIDTH 10 0
BBX 8 18 1 -4
BITMAP
3E
41
80
80
80
40
30
0C
02
01
01
01
82
7C
10
10
10
30
ENDCHAR
STARTCHAR 015F
ENCODING 351
SWIDTH 450 0
DWIDTH 9 0
BBX 7 15 1 -4
BITMAP
38
40
80
80
40
38
04
02
02
84
78
10
10
10
30
ENDCHAR
STARTCHAR 0160
ENCODING 352
SWIDTH 500 0
DWIDTH 10 0
BBX 8 19 1 0
BITMAP
22
24
14
08
00
3E
41
80
80
80
40
30
0C
02
01
01
01
82
7C
ENDCHAR
STARTCHAR 0161
ENCODING 353
SWIDTH 450 0
DWIDTH 9 0
BBX 7 16 1 0
BITMAP
44
48
28
10
00
38
44
80
80
40
38
04
02
02
84
78
ENDCHAR
STARTCHAR 0162
ENCODING 354
SWIDTH 550 0
DWIDTH 11 0
BBX 9 18 1 -4
BITMAP
FF80
0800
0800
0800
0800
0800
0800
0800
0800
0800
0800
0800
0800
0800
0800
0800
0800
1800
ENDCHAR
STARTCHAR 0163
ENCODING 355
SWIDTH 400 0
DWIDTH 8 0
BBX 5 18 2 -4
BITMAP
80
80
80
F8
80
80
80
80
80
80
80
80
80
78
20
20
20
60
ENDCHAR
STARTCHAR 0164
ENCODING 356
SWIDTH 550 0
DWIDTH 11 0
BBX 9 19 1 0
BITMAP
2200
2400
1400
0800
0000
FF80
0800
0800
0800
0800
0800
0800
0800
0800
0800
0800
0800
0800
0800
ENDCHAR
STARTCHAR 0165
ENCODING 357
SWIDTH 400 0
DWIDTH 8 0
BBX 5 15 2 0
BITMAP
20
A0
A0
80
F8
80
80
80
80
80
80
80
80
80
78
ENDCHAR
STARTCHAR 0166
ENCODING 358
SWIDTH 550 0
DWIDTH 11 0
BBX 9 14 1 0
BITMAP
FF80
0800
0800
0800
0800
0800
3E00
0800
0800
0800
0800
0800
0800
0800
ENDCHAR
STARTCHAR 0167
ENCODING 359
SWIDTH 400 0
DWIDTH 8 0
BBX 5 14 2 0
BITMAP
80
80
80
F8
80
80
80
80
F8
80
80
80
80
78
ENDCHAR
STARTCHAR 0168
ENCODING 360
SWIDTH 700 0
DWIDTH 14 0
BBX 10 18 2 0
BITMAP
1900
2600
0000
0000
8040
8040
8040
8040
8040
8040
8040
8040
8040
8040
8040
4080
2100
1E00
ENDCHAR
STARTCHAR 0169
ENCODING 361
SWIDTH 600 0
DWIDTH 12 0
BBX 8 15 2 0
BITMAP
32
4C
00
00
81
81
81
81
81
81
81
81
81
41
3F
ENDCHAR
STARTCHAR 016A
ENCODING 362
SWIDTH 700 0
DWIDTH 14 0
BBX 10 17 2 0
BITMAP
3F00
0000
0000
8040
8040
8040
8040
8040
8040
8040
8040
8040
8040
8040
4080
2100
1E00
ENDCHAR
STARTCHAR 016B
ENCODING 363
SWIDTH 600 0
DWIDTH 12 0
BBX 8 14 2 0
BITMAP
7E
00
00
81
81
81
81
81
81
81
81
81
41
3F
ENDCHAR
STARTCHAR 016C
ENCODING 364
SWIDTH 700 0
DWIDTH 14 0
BBX 10 18 2 0
BITMAP
1100
1100
0E00
0000
8040
8040
8040
8040
8040
8040
8040
8040
8040
8040
8040
4080
2100
1E00
ENDCHAR
STARTCHAR 016D
ENCODING 365
SWIDTH 600 0
DWIDTH 12 0
BBX 8 15 2 0
BITMAP
22
22
1C
00
81
81
81
81
81
81
81
81
81
41
3F
ENDCHAR
STARTCHAR 016E
ENCODING 366
SWIDTH 700 0
DWIDTH 14 0
BBX 10 19 2 0
BITMAP
0C00
1200
1200
0C00
0000
8040
8040
8040
8040
8040
8040
8040
8040
8040
8040
8040
4080
2100
1E00
ENDCHAR
STARTCHAR 016F
ENCODING 367
SWIDTH 600 0
DWIDTH 12 0
BBX 8 16 2 0
BITMAP
18
24
24
18
00
81
81
81
81
81
81
81
81
81
41
3F
ENDCHAR
STARTCHAR 0170
ENCODING 368
SWIDTH 700 0
DWIDTH 14 0
BBX 10 19 2 0
BITMAP
0240
0480
0900
1200
0000
8040
8040
8040
8040
8040
8040
8040
8040
8040
8040
8040
4080
2100
1E00
ENDCHAR
STARTCHAR 0171
ENCODING 369
SWIDTH 600 0
DWIDTH 12 0
BBX 9 16 2 0
BITMAP
0480
0900
1200
2400
0000
8100
8100
8100
8100
8100
8100
8100
8100
8100
4100
3F00
ENDCHAR
STARTCHAR 0172
ENCODING 370
SWIDTH 700 0
DWIDTH 14 0
BBX 10 18 2 -4
BITMAP
8040
8040
8040
8040
8040
8040
8040
8040
8040
8040
8040
4080
2100
1E00
0400
0800
0800
0E00
ENDCHAR
STARTCHAR 0173
ENCODING 371
SWIDTH 600 0
DWIDTH 12 0
BBX 8 15 2 -4
BITMAP
81
81
81
81
81
81
81
81
81
41
3F
02
04
04
07
ENDCHAR
STARTCHAR 0174
ENCODING 372
SWIDTH 950 0
DWIDTH 19 0
BBX 17 19 1 0
BITMAP
008000
014000
024000
022000
000000
800080
800080
408100
408100
414100
214200
214200
222200
222200
122400
141400
141400
080800
080800
ENDCHAR
STARTCHAR 0175
ENCODING 373
SWIDTH 850 0
DWIDTH 17 0
BBX 15 16 1 0
BITMAP
0100
0280
0480
0440
0000
8102
8104
4284
4284
2288
2488
2448
1450
1450
0830
0820
ENDCHAR
STARTCHAR 0176
ENCODING 374
SWIDTH 650 0
DWIDTH 13 0
BBX 11 19 1 0
BITMAP
0400
0A00
1200
1100
0000
8020
4040
4040
2080
1100
1100
0A00
0400
0400
0400
0400
0400
0400
0400
ENDCHAR
STARTCHAR 0177
ENCODING 375
SWIDTH 450 0
DWIDTH 9 0
BBX 7 20 1 -4
BITMAP
10
28
48
44
00
82
82
44
44
44
44
28
28
28
28
10
10
10
20
C0
ENDCHAR
STARTCHAR 0178
ENCODING 376
SWIDTH 650 0
DWIDTH 13 0
BBX 11 18 1 0
BITMAP
0900
0900
0000
0000
8020
4040
4040
2080
1100
1100
0A00
0400
0400
0400
0400
0400
0400
0400
ENDCHAR
STARTCHAR 0179
ENCODING 377
SWIDTH 550 0
DWIDTH 11 0
BBX 9 19 1 0
BITMAP
0200
0400
0800
1000
0000
FF80
0080
0100
0200
0400
0400
0800
1000
1000
2000
2000
4000
8000
FF80
ENDCHAR
STARTCHAR 017A
ENCODING 378
SWIDTH 450 0
DWIDTH 9 0
BBX 7 16 1 0
BITMAP
04
08
10
20
00
FE
02
04
08
08
10
20
20
40
80
FE
ENDCHAR
STARTCHAR 017B
ENCODING 379
SWIDTH 550 0
DWIDTH 11 0
BBX 9 17 1 0
BITMAP
0800
0800
0000
FF80
0080
0100
0200
0400
0400
0800
1000
1000
2000
2000
4000
8000
FF80
ENDCHAR
STARTCHAR 017C
ENCODING 380
SWIDTH 450 0
DWIDTH 9 0
BBX 7 14 1 0
BITMAP
10
10
00
FE
02
04
08
08
10
20
20
40
80
FE
ENDCHAR
STARTCHAR 017D
ENCODING 381
SWIDTH 550 0
DWIDTH 11 0
BBX 9 19 1 0
BITMAP
2200
2400
1400
0800
0000
FF80
0080
0100
0200
0400
0400
0800
1000
1000
2000
2000
4000
8000
FF80
ENDCHAR
STARTCHAR 017E
ENCODING 382
SWIDTH 450 0
DWIDTH 9 0
BBX 7 16 1 0
BITMAP
44
48
28
10
00
FE
02
04
08
08
10
20
20
40
80
FE
ENDCHAR
STARTCHAR 017F
ENCODING 383
SWIDTH 250 0
DWIDTH 5 0
BBX 5 15 2 0
BITMAP
38
40
80
80
80
80
80
80
80
80
80
80
80
80
80
ENDCHAR
STARTCHAR 0180
ENCODING 384
SWIDTH 600 0
DWIDTH 12 0
BBX 11 16 0 0
BITMAP
2000
2000
FE00
2000
2000
2F00
3080
2040
2020
2020
2020
2020
2020
2040
2080
3F00
ENDCHAR
STARTCHAR 0181
ENCODING 385
SWIDTH 700 0
DWIDTH 14 0
BBX 13 14 0 0
BITMAP
7FC0
9020
9010
9010
1010
1020
1FC0
1030
1008
1008
1008
1008
1030
1FC0
ENDCHAR
STARTCHAR 0182
ENCODING 386
SWIDTH 600 0
DWIDTH 12 0
BBX 9 14 2 0
BITMAP
FF00
8000
8000
8000
8000
FC00
8300
8080
8080
8080
8080
8080
8300
FC00
ENDCHAR
STARTCHAR 0183
ENCODING 387
SWIDTH 600 0
DWIDTH 12 0
BBX 9 16 2 0
BITMAP
FE00
8000
8000
8000
8000
BC00
C200
8100
8080
8080
8080
8080
8080
8100
8200
FC00
ENDCHAR
STARTCHAR 0184
ENCODING 388
SWIDTH 600 0
DWIDTH 12 0
BBX 10 16 1 0
BITMAP
4000
C000
4000
4000
4000
5E00
6100
4080
4040
4040
4040
4040
4040
4080
4100
7E00
ENDCHAR
STARTCHAR 0185
ENCODING 389
SWIDTH 600 0
DWIDTH 12 0
BBX 10 14 1 0
BITMAP
4000
C000
4000
4000
4000
7F00
4080
4040
4040
4040
4040
4040
4080
7F00
ENDCHAR
STARTCHAR 0186
ENCODING 390
SWIDTH 600 0
DWIDTH 12 0
BBX 10 14 1 0
BITMAP
7C00
8300
0080
0080
0040
0040
0040
0040
0040
0040
0080
0080
8300
7C00
ENDCHAR
STARTCHAR 0187
ENCODING 391
SWIDTH 600 0
DWIDTH 12 0
BBX 12 16 1 0
BITMAP
0030
0040
0FC0
3000
4000
4000
8000
8000
8000
8000
8000
8000
4000
4000
3040
0F80
ENDCHAR
STARTCHAR 0188
ENCODING 392
SWIDTH 450 0
DWIDTH 9 0
BBX 9 13 1 0
BITMAP
0180
0200
1E00
2000
4000
8000
8000
8000
8000
8000
4000
6000
1C00
ENDCHAR
STARTCHAR 0189
ENCODING 393
SWIDTH 700 0
DWIDTH 14 0
BBX 13 14 0 0
BITMAP
3F80
2060
2010
2010
2008
2008
FC08
2008
2008
2008
2010
2010
2060
3F80
ENDCHAR
STARTCHAR 018A
ENCODING 394
SWIDTH 750 0
DWIDTH 15 0
BBX 14 14 0 1
BITMAP
3FC0
D030
9008
9008
1004
1004
1004
1004
1004
1004
1008
1008
1030
1FC0
ENDCHAR
STARTCHAR 018B
ENCODING 395
SWIDTH 600 0
DWIDTH 12 0
BBX 9 14 1 0
BITMAP
7F80
0080
0080
0080
0080
1F80
6080
8080
8080
8080
8080
8080
6080
1F80
ENDCHAR
STARTCHAR 018C
ENCODING 396
SWIDTH 600 0
DWIDTH 12 0
BBX 9 16 1 0
BITMAP
7F80
0080
0080
0080
0080
1E80
2180
4080
8080
8080
8080
8080
8080
4080
2080
1F80
ENDCHAR
STARTCHAR 018D
ENCODING 397
SWIDTH 550 0
DWIDTH 11 0
BBX 9 15 1 -4
BITMAP
0800
3600
4100
8080
8080
8080
8080
8080
4100
2200
1C00
0200
0100
0100
7E00
ENDCHAR
STARTCHAR 018E
ENCODING 398
SWIDTH 550 0
DWIDTH 11 0
BBX 8 14 1 0
BITMAP
7F
01
01
01
01
01
3F
01
01
01
01
01
01
FF
ENDCHAR
STARTCHAR 018F
ENCODING 399
SWIDTH 700 0
DWIDTH 14 0
BBX 12 14 1 0
BITMAP
3F00
40C0
0020
0020
0010
0010
0010
FFF0
8010
8010
8020
4020
20C0
1F00
ENDCHAR
STARTCHAR 0190
ENCODING 400
SWIDTH 550 0
DWIDTH 11 0
BBX 9 14 1 0
BITMAP
1F00
2080
4000
4000
4000
2000
1E00
6000
8000
8000
8000
8000
4080
3F00
ENDCHAR
STARTCHAR 0191
ENCODING 401
SWIDTH 500 0
DWIDTH 10 0
BBX 10 17 -1 -3
BITMAP
1FC0
1000
1000
1000
1000
1000
1F80
1000
1000
1000
1000
1000
1000
1000
1000
1000
E000
ENDCHAR
STARTCHAR 0192
ENCODING 402
SWIDTH 400 0
DWIDTH 8 0
BBX 9 20 -1 -4
BITMAP
0780
0800
1000
1000
1000
1F80
1000
1000
1000
1000
1000
1000
1000
1000
1000
1000
1000
1000
1000
E000
ENDCHAR
STARTCHAR 0193
ENCODING 403
SWIDTH 650 0
DWIDTH 13 0
BBX 13 16 1 0
BITMAP
0018
0020
0FC0
3040
4000
4000
8000
8000
8000
8040
8040
8040
4040
4040
3040
0FC0
ENDCHAR
STARTCHAR 0194
ENCODING 404
SWIDTH 600 0
DWIDTH 12 0
BBX 12 18 0 -4
BITMAP
8010
4020
4020
2040
2040
1080
1080
0900
0900
0600
0200
0200
0500
0880
0880
0880
0880
0700
ENDCHAR
STARTCHAR 0195
ENCODING 405
SWIDTH 900 0
DWIDTH 18 0
BBX 14 16 2 0
BITMAP
8000
8000
8000
8000
8000
FC04
8204
8104
8104
8104
8104
8104
8104
8104
8088
8070
ENDCHAR
STARTCHAR 0196
ENCODING 406
SWIDTH 400 0
DWIDTH 8 0
BBX 5 14 2 0
BITMAP
80
80
80
80
80
80
80
80
80
80
80
80
80
78
ENDCHAR
STARTCHAR 0197
ENCODING 407
SWIDTH 250 0
DWIDTH 5 0
BBX 5 14 0 0
BITMAP
20
20
20
20
20
20
F8
20
20
20
20
20
20
20
ENDCHAR
STARTCHAR 0198
ENCODING 408
SWIDTH 650 0
DWIDTH 13 0
BBX 11 14 2 0
BITMAP
81C0
8220
8400
8800
9000
A000
C000
B000
8800
8400
8200
8100
8080
8040
ENDCHAR
STARTCHAR 0199
ENCODING 409
SWIDTH 500 0
DWIDTH 10 0
BBX 8 16 2 0
BITMAP
60
80
80
80
80
81
82
8C
90
A0
C0
A0
98
84
82
81
ENDCHAR
STARTCHAR 019A
ENCODING 410
SWIDTH 300 0
DWIDTH 6 0
BBX 5 16 0 0
BITMAP
20
20
20
20
20
20
20
F8
20
20
20
20
20
20
20
18
ENDCHAR
STARTCHAR 019B
ENCODING 411
SWIDTH 450 0
DWIDTH 9 0
BBX 8 16 1 0
BITMAP
C0
20
14
38
50
08
08
18
24
24
44
42
42
82
81
81
ENDCHAR
STARTCHAR 019C
ENCODING 412
SWIDTH 950 0
DWIDTH 19 0
BBX 15 14 2 0
BITMAP
8102
8102
8102
8102
8102
8102
8102
8102
8102
8102
8102
8102
4382
3C7E
ENDCHAR
STARTCHAR 019D
ENCODING 413
SWIDTH 700 0
DWIDTH 14 0
BBX 12 18 0 -4
BITMAP
2010
3010
3010
2810
2410
2410
2210
2110
2110
2090
2050
2050
2030
2010
2000
2000
2000
C000
ENDCHAR
STARTCHAR 019E
ENCODING 414
SWIDTH 600 0
DWIDTH 12 0
BBX 8 15 2 -4
BITMAP
FC
82
81
81
81
81
81
81
81
81
81
01
01
01
01
ENDCHAR
STARTCHAR 019F
ENCODING 415
SWIDTH 750 0
DWIDTH 15 0
BBX 13 14 1 0
BITMAP
0F80
3060
4010
4010
8008
8008
FFF8
8008
8008
8008
4010
4010
3060
0F80
ENDCHAR
STARTCHAR 01A0
ENCODING 416
SWIDTH 750 0
DWIDTH 15 0
BBX 13 16 1 0
BITMAP
0008
0008
0F88
3070
4010
4010
8008
8008
8008
8008
8008
8008
4010
4010
3060
0F80
ENDCHAR
STARTCHAR 01A1
ENCODING 417
SWIDTH 600 0
DWIDTH 12 0
BBX 11 13 1 0
BITMAP
0020
0020
1E20
2140
4080
8040
8040
8040
8040
8040
4080
2100
1E00
ENDCHAR
STARTCHAR 01A2
ENCODING 418
SWIDTH 1000 0
DWIDTH 20 0
BBX 17 14 1 0
BITMAP
0F1E00
30E100
402080
402080
801080
801080
801080
801080
801080
801080
402080
402080
30C080
0F0080
ENDCHAR
STARTCHAR 01A3
ENCODING 419
SWIDTH 800 0
DWIDTH 16 0
BBX 13 15 1 -4
BITMAP
1CE0
2310
4108
8088
8088
8088
8088
8088
4108
2208
1C08
0008
0008
0008
0008
ENDCHAR
STARTCHAR 01A4
ENCODING 420
SWIDTH 700 0
DWIDTH 14 0
BBX 12 14 1 0
BITMAP
3FC0
D020
9010
9010
1010
1010
1010
1020
1FC0
1000
1000
1000
1000
1000
ENDCHAR
STARTCHAR 01A5
ENCODING 421
SWIDTH 600 0
DWIDTH 12 0
BBX 9 20 2 -4
BITMAP
7000
8000
8000
8000
8000
FC00
8200
8100
8100
8080
8080
8080
8100
8100
C200
BC00
8000
8000
8000
8000
ENDCHAR
STARTCHAR 01A6
ENCODING 422
SWIDTH 600 0
DWIDTH 12 0
BBX 10 18 2 -2
BITMAP
8000
8000
FC00
8200
8100
8100
8100
8100
8200
FC00
8400
8400
8200
8100
8100
8080
0080
0040
ENDCHAR
STARTCHAR 01A7
ENCODING 423
SWIDTH 500 0
DWIDTH 10 0
BBX 8 14 1 0
BITMAP
7C
82
01
01
01
02
0C
30
40
80
80
80
41
3E
ENDCHAR
STARTCHAR 01A8
ENCODING 424
SWIDTH 450 0
DWIDTH 9 0
BBX 7 11 1 0
BITMAP
38
04
02
02
04
38
40
80
80
42
3C
ENDCHAR
STARTCHAR 01A9
ENCODING 425
SWIDTH 550 0
DWIDTH 11 0
BBX 9 14 1 0
BITMAP
FF80
8000
4000
2000
1000
0800
0400
0400
0800
1000
2000
4000
8000
FF80
ENDCHAR
STARTCHAR 01AA
ENCODING 426
SWIDTH 250 0
DWIDTH 5 0
BBX 6 20 -1 -4
BITMAP
70
88
88
88
78
08
08
08
08
08
08
08
08
08
08
08
08
08
08
04
ENDCHAR
STARTCHAR 01AB
ENCODING 427
SWIDTH 400 0
DWIDTH 8 0
BBX 5 18 2 -4
BITMAP
80
80
80
F8
80
80
80
80
80
80
80
80
80
78
08
08
08
70
ENDCHAR
STARTCHAR 01AC
ENCODING 428
SWIDTH 550 0
DWIDTH 11 0
BBX 9 14 1 0
BITMAP
7F80
8800
8800
8800
0800
0800
0800
0800
0800
0800
0800
0800
0800
0800
ENDCHAR
STARTCHAR 01AD
ENCODING 429
SWIDTH 400 0
DWIDTH 8 0
BBX 5 16 2 0
BITMAP
38
40
80
80
80
F8
80
80
80
80
80
80
80
80
80
78
ENDCHAR
STARTCHAR 01AE
ENCODING 430
SWIDTH 550 0
DWIDTH 11 0
BBX 9 18 1 -4
BITMAP
FF80
0800
0800
0800
0800
0800
0800
0800
0800
0800
0800
0800
0800
0800
0800
0800
0800
0700
ENDCHAR
STARTCHAR 01AF
ENCODING 431
SWIDTH 700 0
DWIDTH 14 0
BBX 12 16 2 0
BITMAP
0010
0010
8060
8040
8040
8040
8040
8040
8040
8040
8040
8040
8040
4080
2100
1E00
ENDCHAR
STARTCHAR 01B0
ENCODING 432
SWIDTH 600 0
DWIDTH 12 0
BBX 10 13 2 0
BITMAP
0040
0040
8180
8100
8100
8100
8100
8100
8100
8100
8100
4100
3F00
ENDCHAR
STARTCHAR 01B1
ENCODING 433
SWIDTH 750 0
DWIDTH 15 0
BBX 13 14 1 0
BITMAP
F8F8
1040
2020
4010
4010
8008
8008
8008
8008
8008
4010
4010
3060
0F80
ENDCHAR
STARTCHAR 01B2
ENCODING 434
SWIDTH 700 0
DWIDTH 14 0
BBX 11 14 2 0
BITMAP
8380
8040
8040
8020
8020
8020
8020
8020
8020
8020
8040
4040
2080
1F00
ENDCHAR
STARTCHAR 01B3
ENCODING 435
SWIDTH 650 0
DWIDTH 13 0
BBX 13 14 0 0
BITMAP
8030
4048
2080
2080
1100
1100
0A00
0400
0400
0400
0400
0400
0400
0400
ENDCHAR
STARTCHAR 01B4
ENCODING 436
SWIDTH 500 0
DWIDTH 10 0
BBX 9 15 1 -4
BITMAP
8180
8200
4200
4400
4400
4400
2400
2800
2800
2800
1000
1000
1000
2000
C000
ENDCHAR
STARTCHAR 01B5
ENCODING 437
SWIDTH 550 0
DWIDTH 11 0
BBX 9 14 1 0
BITMAP
FF80
0080
0100
0200
0200
0400
7F00
0800
1000
2000
2000
4000
8000
FF80
ENDCHAR
STARTCHAR 01B6
ENCODING 438
SWIDTH 450 0
DWIDTH 9 0
BBX 7 11 1 0
BITMAP
FE
02
04
08
08
7E
20
20
40
80
FE
ENDCHAR
STARTCHAR 01B7
ENCODING 439
SWIDTH 550 0
DWIDTH 11 0
BBX 9 14 1 0
BITMAP
7F80
0100
0100
0200
0400
0800
1E00
0100
0080
0080
0080
0080
8100
7E00
ENDCHAR
STARTCHAR 01B8
ENCODING 440
SWIDTH 550 0
DWIDTH 11 0
BBX 9 14 1 0
BITMAP
FF00
8000
4000
2000
1000
0800
3C00
4000
8000
8000
8000
8000
4080
3F00
ENDCHAR
STARTCHAR 01B9
ENCODING 441
SWIDTH 450 0
DWIDTH 9 0
BBX 8 15 1 -4
BITMAP
FF
80
40
20
10
08
0C
30
40
80
80
80
80
41
3E
ENDCHAR
STARTCHAR 01BA
ENCODING 442
SWIDTH 450 0
DWIDTH 9 0
BBX 8 15 0 -4
BITMAP
FF
02
02
04
08
1C
02
01
01
01
06
18
60
80
80
ENDCHAR
STARTCHAR 01BB
ENCODING 443
SWIDTH 550 0
DWIDTH 11 0
BBX 9 14 1 0
BITMAP
3E00
C100
0080
0080
0080
0100
0200
7F80
1000
2000
4000
8000
8000
FF80
ENDCHAR
STARTCHAR 01BC
ENCODING 444
SWIDTH 550 0
DWIDTH 11 0
BBX 9 14 1 0
BITMAP
FF00
2000
2000
4000
4000
7800
0600
0100
0080
0080
0080
0080
8300
7E00
ENDCHAR
STARTCHAR 01BD
ENCODING 445
SWIDTH 500 0
DWIDTH 10 0
BBX 8 11 1 0
BITMAP
FF
20
20
40
7C
02
01
01
01
82
7C
ENDCHAR
STARTCHAR 01BE
ENCODING 446
SWIDTH 450 0
DWIDTH 9 0
BBX 7 14 1 0
BITMAP
40
40
40
7C
40
40
40
20
18
04
02
02
84
78
ENDCHAR
STARTCHAR 01BF
ENCODING 447
SWIDTH 600 0
DWIDTH 12 0
BBX 9 15 2 -4
BITMAP
7C00
8200
8100
8100
8100
8080
8100
8100
8200
8400
9800
E000
8000
8000
8000
ENDCHAR
STARTCHAR 01C0
ENCODING 448
SWIDTH 250 0
DWIDTH 5 0
BBX 1 20 2 -4
BITMAP
80
80
80
80
80
80
80
80
80
80
80
80
80
80
80
80
80
80
80
80
ENDCHAR
STARTCHAR 01C1
ENCODING 449
SWIDTH 450 0
DWIDTH 9 0
BBX 5 20 2 -4
BITMAP
88
88
88
88
88
88
88
88
88
88
88
88
88
88
88
88
88
88
88
88
ENDCHAR
STARTCHAR 01C2
ENCODING 450
SWIDTH 550 0
DWIDTH 11 0
BBX 9 17 1 -4
BITMAP
0800
0800
0800
0800
0800
0800
FF80
0800
0800
FF80
0800
0800
0800
0800
0800
0800
0800
ENDCHAR
STARTCHAR 01C3
ENCODING 451
SWIDTH 250 0
DWIDTH 5 0
BBX 1 14 2 0
BITMAP
80
80
80
80
80
80
80
80
80
80
00
00
80
80
ENDCHAR
STARTCHAR 01C4
ENCODING 452
SWIDTH 1250 0
DWIDTH 25 0
BBX 22 19 2 0
BITMAP
000110
000120
0000A0
000040
000000
FE07FC
818004
804008
804010
802020
802020
802040
802080
802080
802100
804100
804200
818400
FE07FC
ENDCHAR
STARTCHAR 01C5
ENCODING 453
SWIDTH 1150 0
DWIDTH 23 0
BBX 20 16 2 0
BITMAP
000220
000240
FE0140
818080
804000
8047F0
802010
802020
802040
802040
802080
802100
804100
804200
818400
FE07F0
ENDCHAR
STARTCHAR 01C6
ENCODING 454
SWIDTH 1050 0
DWIDTH 21 0
BBX 19 16 1 0
BITMAP
008440
008480
008280
008100
008000
1E8FE0
218020
408040
808080
808080
808100
808200
808200
408400
208800
1F8FE0
ENDCHAR
STARTCHAR 01C7
ENCODING 455
SWIDTH 1000 0
DWIDTH 20 0
BBX 17 14 2 0
BITMAP
800080
800080
800080
800080
800080
800080
800080
800080
800080
800080
800080
800080
802100
FE1E00
ENDCHAR
STARTCHAR 01C8
ENCODING 456
SWIDTH 750 0
DWIDTH 15 0
BBX 11 18 2 -4
BITMAP
8020
8020
8000
8020
8020
8020
8020
8020
8020
8020
8020
8020
8020
FE20
0020
0020
0020
01C0
ENDCHAR
STARTCHAR 01C9
ENCODING 457
SWIDTH 500 0
DWIDTH 10 0
BBX 6 20 2 -4
BITMAP
80
80
84
84
80
84
84
84
84
84
84
84
84
84
84
64
04
04
04
38
ENDCHAR
STARTCHAR 01CA
ENCODING 458
SWIDTH 1200 0
DWIDTH 24 0
BBX 20 14 2 0
BITMAP
804010
C04010
C04010
A04010
904010
904010
884010
844010
844010
824010
814010
814010
80C420
8043C0
ENDCHAR
STARTCHAR 01CB
ENCODING 459
SWIDTH 950 0
DWIDTH 19 0
BBX 15 18 2 -4
BITMAP
8042
C042
C040
A042
9042
9042
8842
8442
8442
8242
8142
8142
80C2
8042
0002
0002
0002
001C
ENDCHAR
STARTCHAR 01CC
ENCODING 460
SWIDTH 800 0
DWIDTH 16 0
BBX 12 18 2 -4
BITMAP
0010
0010
0000
FC10
8210
8110
8110
8110
8110
8110
8110
8110
8110
8110
0010
0010
0010
00E0
ENDCHAR
STARTCHAR 01CD
ENCODING 461
SWIDTH 650 0
DWIDTH 13 0
BBX 13 19 0 0
BITMAP
0880
0900
0500
0200
0000
0200
0200
0500
0500
0880
0880
1040
1040
1040
3FE0
2020
4010
4010
8008
ENDCHAR
STARTCHAR 01CE
ENCODING 462
SWIDTH 500 0
DWIDTH 10 0
BBX 7 16 1 0
BITMAP
44
48
28
10
00
78
04
02
02
3E
42
82
82
82
42
3E
ENDCHAR
STARTCHAR 01CF
ENCODING 463
SWIDTH 250 0
DWIDTH 5 0
BBX 5 19 0 0
BITMAP
88
90
50
20
00
20
20
20
20
20
20
20
20
20
20
20
20
20
20
ENDCHAR
STARTCHAR 01D0
ENCODING 464
SWIDTH 250 0
DWIDTH 5 0
BBX 5 16 0 0
BITMAP
88
90
50
20
00
20
20
20
20
20
20
20
20
20
20
20
ENDCHAR
STARTCHAR 01D1
ENCODING 465
SWIDTH 750 0
DWIDTH 15 0
BBX 13 19 1 0
BITMAP
0880
0900
0500
0200
0000
0F80
3060
4010
4010
8008
8008
8008
8008
8008
8008
4010
4010
3060
0F80
ENDCHAR
STARTCHAR 01D2
ENCODING 466
SWIDTH 600 0
DWIDTH 12 0
BBX 10 16 1 0
BITMAP
1100
1200
0A00
0400
0000
1E00
2100
4080
8040
8040
8040
8040
8040
4080
2100
1E00
ENDCHAR
STARTCHAR 01D3
ENCODING 467
SWIDTH 700 0
DWIDTH 14 0
BBX 10 19 2 0
BITMAP
1100
1200
0A00
0400
0000
8040
8040
8040
8040
8040
8040
8040
8040
8040
8040
8040
4080
2100
1E00
ENDCHAR
STARTCHAR 01D4
ENCODING 468
SWIDTH 600 0
DWIDTH 12 0
BBX 8 16 2 0
BITMAP
22
24
14
08
00
81
81
81
81
81
81
81
81
81
41
3F
ENDCHAR
STARTCHAR 01D5
ENCODING 469
SWIDTH 700 0
DWIDTH 14 0
BBX 10 19 2 0
BITMAP
1F00
0000
0900
1900
0000
8040
8040
8040
8040
8040
8040
8040
8040
8040
8040
8040
4080
2100
1E00
ENDCHAR
STARTCHAR 01D6
ENCODING 470
SWIDTH 600 0
DWIDTH 12 0
BBX 8 16 2 0
BITMAP
7C
00
44
44
00
81
81
81
81
81
81
81
81
81
41
3F
ENDCHAR
STARTCHAR 01D7
ENCODING 471
SWIDTH 700 0
DWIDTH 14 0
BBX 10 19 2 0
BITMAP
0200
0400
2900
2100
0000
8040
8040
8040
8040
8040
8040
8040
8040
8040
8040
8040
4080
2100
1E00
ENDCHAR
STARTCHAR 01D8
ENCODING 472
SWIDTH 600 0
DWIDTH 12 0
BBX 8 17 2 1
BITMAP
08
10
00
24
24
00
81
81
81
81
81
81
81
81
81
41
3F
ENDCHAR
STARTCHAR 01D9
ENCODING 473
SWIDTH 700 0
DWIDTH 14 0
BBX 10 19 2 0
BITMAP
1100
0A00
2480
2080
0000
8040
8040
8040
8040
8040
8040
8040
8040
8040
8040
8040
4080
2100
1E00
ENDCHAR
STARTCHAR 01DA
ENCODING 474
SWIDTH 600 0
DWIDTH 12 0
BBX 8 17 2 0
BITMAP
44
28
10
84
84
00
81
81
81
81
81
81
81
81
81
41
3F
ENDCHAR
STARTCHAR 01DB
ENCODING 475
SWIDTH 700 0
DWIDTH 14 0
BBX 10 19 2 0
BITMAP
1000
0800
2500
2100
0000
8040
8040
8040
8040
8040
8040
8040
8040
8040
8040
8040
4080
2100
1E00
ENDCHAR
STARTCHAR 01DC
ENCODING 476
SWIDTH 600 0
DWIDTH 12 0
BBX 8 17 2 0
BITMAP
20
10
00
24
24
00
81
81
81
81
81
81
81
81
81
41
3F
ENDCHAR
STARTCHAR 01DD
ENCODING 477
SWIDTH 550 0
DWIDTH 11 0
BBX 9 11 1 0
BITMAP
3C00
0200
0100
0080
0080
FF80
8080
8080
4100
4200
3C00
ENDCHAR
STARTCHAR 01DE
ENCODING 478
SWIDTH 650 0
DWIDTH 13 0
BBX 13 19 0 0
BITMAP
0F80
0000
0880
0880
0000
0200
0200
0500
0500
0880
0880
1040
1040
1040
3FE0
2020
4010
4010
8008
ENDCHAR
STARTCHAR 01DF
ENCODING 479
SWIDTH 500 0
DWIDTH 10 0
BBX 7 16 1 0
BITMAP
7C
00
44
44
00
78
04
02
02
3E
42
82
82
82
42
3E
ENDCHAR
STARTCHAR 01E0
ENCODING 480
SWIDTH 650 0
DWIDTH 13 0
BBX 13 19 0 0
BITMAP
0F80
0000
0200
0200
0000
0200
0200
0500
0500
0880
0880
1040
1040
1040
3FE0
2020
4010
4010
8008
ENDCHAR
STARTCHAR 01E1
ENCODING 481
SWIDTH 500 0
DWIDTH 10 0
BBX 7 16 1 0
BITMAP
7C
00
10
10
00
78
04
02
02
3E
42
82
82
82
42
3E
ENDCHAR
STARTCHAR 01E2
ENCODING 482
SWIDTH 900 0
DWIDTH 18 0
BBX 17 17 0 0
BITMAP
00FC00
000000
000000
007F00
00C000
014000
024000
024000
044000
047E00
084000
104000
1FC000
204000
204000
404000
807F80
ENDCHAR
STARTCHAR 01E3
ENCODING 483
SWIDTH 850 0
DWIDTH 17 0
BBX 15 14 1 0
BITMAP
0FC0
0000
0000
78F8
0504
0202
0202
3E02
43FE
8200
8200
8300
4480
387C
ENDCHAR
STARTCHAR 01E4
ENCODING 484
SWIDTH 650 0
DWIDTH 13 0
BBX 12 14 1 0
BITMAP
0F80
3040
4000
4000
8000
8000
8000
8040
8040
81F0
4040
4040
3040
0FC0
ENDCHAR
STARTCHAR 01E5
ENCODING 485
SWIDTH 600 0
DWIDTH 12 0
BBX 11 15 1 -4
BITMAP
1F80
2080
4080
8080
8080
87E0
8080
8080
4080
2180
1E80
0080
0080
0100
7E00
ENDCHAR
STARTCHAR 01E6
ENCODING 486
SWIDTH 650 0
DWIDTH 13 0
BBX 10 19 1 0
BITMAP
1100
1200
0A00
0400
0000
0F80
3040
4000
4000
8000
8000
8000
8040
8040
8040
4040
4040
3040
0FC0
ENDCHAR
STARTCHAR 01E7
ENCODING 487
SWIDTH 600 0
DWIDTH 12 0
BBX 9 20 1 -4
BITMAP
1100
1200
0A00
0400
0000
1F80
2080
4080
8080
8080
8080
8080
8080
4080
2180
1E80
0080
0080
0100
7E00
ENDCHAR
STARTCHAR 01E8
ENCODING 488
SWIDTH 600 0
DWIDTH 12 0
BBX 10 19 2 0
BITMAP
2200
2400
1400
0800
0000
8040
8180
8200
8400
8800
B000
C000
A000
9800
8400
8200
8100
8080
8040
ENDCHAR
STARTCHAR 01E9
ENCODING 489
SWIDTH 500 0
DWIDTH 10 0
BBX 9 20 1 0
BITMAP
8800
5000
6000
0000
4000
4000
4000
4000
4000
4080
4100
4600
4800
5000
6000
5000
4C00
4200
4100
4080
ENDCHAR
STARTCHAR 01EA
ENCODING 490
SWIDTH 750 0
DWIDTH 15 0
BBX 13 18 1 -4
BITMAP
0F80
3060
4010
4010
8008
8008
8008
8008
8008
8008
4010
4010
3060
0F80
0200
0400
0400
0380
ENDCHAR
STARTCHAR 01EB
ENCODING 491
SWIDTH 600 0
DWIDTH 12 0
BBX 10 15 1 -4
BITMAP
1E00
2100
4080
8040
8040
8040
8040
8040
4080
2100
1E00
0400
0800
0800
0600
ENDCHAR
STARTCHAR 01EC
ENCODING 492
SWIDTH 750 0
DWIDTH 15 0
BBX 13 21 1 -4
BITMAP
1F80
0000
0000
0F80
3060
4010
4010
8008
8008
8008
8008
8008
8008
4010
4010
3060
0F80
0200
0400
0400
0380
ENDCHAR
STARTCHAR 01ED
ENCODING 493
SWIDTH 600 0
DWIDTH 12 0
BBX 10 18 1 -4
BITMAP
3F00
0000
0000
1E00
2100
4080
8040
8040
8040
8040
8040
4080
2100
1E00
0400
0800
0800
0600
ENDCHAR
STARTCHAR 01EE
ENCODING 494
SWIDTH 550 0
DWIDTH 11 0
BBX 9 19 1 0
BITMAP
2200
2400
1400
0800
0000
7F80
0100
0100
0200
0400
0800
1E00
0100
0080
0080
0080
0080
8100
7E00
ENDCHAR
STARTCHAR 01EF
ENCODING 495
SWIDTH 450 0
DWIDTH 9 0
BBX 8 20 0 -4
BITMAP
44
48
28
10
00
FF
02
02
04
08
10
3C
02
01
01
01
01
01
82
7C
ENDCHAR
STARTCHAR 01F0
ENCODING 496
SWIDTH 250 0
DWIDTH 5 0
BBX 6 20 -1 -4
BITMAP
44
48
28
10
00
10
10
10
10
10
10
10
10
10
10
10
10
10
10
E0
ENDCHAR
STARTCHAR 01F1
ENCODING 497
SWIDTH 1250 0
DWIDTH 25 0
BBX 22 14 2 0
BITMAP
FE07FC
818004
804008
804010
802020
802020
802040
802080
802080
802100
804100
804200
818400
FE07FC
ENDCHAR
STARTCHAR 01F2
ENCODING 498
SWIDTH 1150 0
DWIDTH 23 0
BBX 20 14 2 0
BITMAP
FE0000
818000
804000
8047F0
802010
802020
802040
802040
802080
802100
804100
804200
818400
FE07F0
ENDCHAR
STARTCHAR 01F3
ENCODING 499
SWIDTH 1050 0
DWIDTH 21 0
BBX 19 16 1 0
BITMAP
008000
008000
008000
008000
008000
1E8FE0
218020
408040
808080
808080
808100
808200
808200
408400
208800
1F8FE0
ENDCHAR
STARTCHAR 01F4
ENCODING 500
SWIDTH 650 0
DWIDTH 13 0
BBX 10 19 1 0
BITMAP
0080
0100
0200
0400
0000
0F80
3040
4000
4000
8000
8000
8000
8040
8040
8040
4040
4040
3040
0FC0
ENDCHAR
STARTCHAR 01F5
ENCODING 501
SWIDTH 600 0
DWIDTH 12 0
BBX 9 20 1 -4
BITMAP
0100
0200
0400
0800
0000
1F80
2080
4080
8080
8080
8080
8080
8080
4080
2180
1E80
0080
0080
0100
7E00
ENDCHAR
STARTCHAR 01F6
ENCODING 502
SWIDTH 1050 0
DWIDTH 21 0
BBX 17 14 2 0
BITMAP
804000
804000
804000
804080
804080
804080
FFC080
804080
804080
804080
804080
804080
802100
801E00
ENDCHAR
STARTCHAR 01F7
ENCODING 503
SWIDTH 650 0
DWIDTH 13 0
BBX 10 18 2 -4
BITMAP
7E00
8100
8080
8040
8040
8040
8040
8040
8080
8100
8200
8C00
B000
C000
8000
8000
8000
8000
ENDCHAR
STARTCHAR 01F8
ENCODING 504
SWIDTH 700 0
DWIDTH 14 0
BBX 10 19 2 0
BITMAP
2000
1000
0800
0400
0000
8040
C040
C040
A040
9040
9040
8840
8440
8440
8240
8140
8140
80C0
8040
ENDCHAR
STARTCHAR 01F9
ENCODING 505
SWIDTH 600 0
DWIDTH 12 0
BBX 8 16 2 0
BITMAP
40
20
10
08
00
FC
82
81
81
81
81
81
81
81
81
81
ENDCHAR
STARTCHAR 01FA
ENCODING 506
SWIDTH 650 0
DWIDTH 13 0
BBX 13 20 0 0
BITMAP
0180
0600
0000
0700
0880
0880
0700
0200
0500
0500
0880
0880
1040
1040
1040
3FE0
2020
4010
4010
8008
ENDCHAR
STARTCHAR 01FB
ENCODING 507
SWIDTH 500 0
DWIDTH 10 0
BBX 7 19 1 0
BITMAP
0C
30
00
18
24
24
18
00
78
04
02
02
3E
42
82
82
82
42
3E
ENDCHAR
STARTCHAR 01FC
ENCODING 508
SWIDTH 900 0
DWIDTH 18 0
BBX 17 19 0 0
BITMAP
000400
000800
001000
002000
000000
007F00
00C000
014000
024000
024000
044000
047E00
084000
104000
1FC000
204000
204000
404000
807F80
ENDCHAR
STARTCHAR 01FD
ENCODING 509
SWIDTH 850 0
DWIDTH 17 0
BBX 15 16 1 0
BITMAP
0040
0080
0100
0200
0000
78F8
0504
0202
0202
3E02
43FE
8200
8200
8300
4480
387C
ENDCHAR
STARTCHAR 01FE
ENCODING 510
SWIDTH 750 0
DWIDTH 15 0
BBX 13 19 1 0
BITMAP
0080
0100
0200
0400
0000
0F88
3050
4020
4050
8088
8108
8208
8208
8408
8808
5010
2010
5060
8F80
ENDCHAR
STARTCHAR 01FF
ENCODING 511
SWIDTH 600 0
DWIDTH 12 0
BBX 10 16 1 0
BITMAP
0100
0200
0400
0800
0000
1E40
2180
4180
8240
8440
8840
8840
9040
6080
6100
9E00
ENDCHAR
STARTCHAR 0200
ENCODING 512
SWIDTH 650 0
DWIDTH 13 0
BBX 13 19 0 1
BITMAP
2400
1200
0900
0480
0000
0200
0200
0500
0500
0880
0880
1040
1040
1040
3FE0
2020
4010
4010
8008
ENDCHAR
STARTCHAR 0201
ENCODING 513
SWIDTH 500 0
DWIDTH 10 0
BBX 8 16 0 1
BITMAP
90
48
24
12
00
3C
02
01
01
1F
21
41
41
41
21
1F
ENDCHAR
STARTCHAR 0202
ENCODING 514
SWIDTH 650 0
DWIDTH 13 0
BBX 13 18 0 0
BITMAP
0700
0880
0880
0000
0200
0200
0500
0500
0880
0880
1040
1040
1040
3FE0
2020
4010
4010
8008
ENDCHAR
STARTCHAR 0203
ENCODING 515
SWIDTH 500 0
DWIDTH 10 0
BBX 7 15 1 0
BITMAP
38
44
44
00
78
04
02
02
3E
42
82
82
82
42
3E
ENDCHAR
STARTCHAR 0204
ENCODING 516
SWIDTH 550 0
DWIDTH 11 0
BBX 9 19 1 1
BITMAP
9000
4800
2400
1200
0000
7F00
4000
4000
4000
4000
4000
7E00
4000
4000
4000
4000
4000
4000
7F80
ENDCHAR
STARTCHAR 0205
ENCODING 517
SWIDTH 550 0
DWIDTH 11 0
BBX 9 16 1 1
BITMAP
9000
4800
2400
1200
0000
1C00
2200
4100
8080
8080
FF80
8000
8000
4000
2100
1E00
ENDCHAR
STARTCHAR 0206
ENCODING 518
SWIDTH 550 0
DWIDTH 11 0
BBX 8 18 2 0
BITMAP
38
44
44
00
FE
80
80
80
80
80
FC
80
80
80
80
80
80
FF
ENDCHAR
STARTCHAR 0207
ENCODING 519
SWIDTH 550 0
DWIDTH 11 0
BBX 9 15 1 0
BITMAP
1C00
2200
2200
0000
1C00
2200
4100
8080
8080
FF80
8000
8000
4000
2100
1E00
ENDCHAR
STARTCHAR 0208
ENCODING 520
SWIDTH 250 0
DWIDTH 5 0
BBX 7 19 -2 1
BITMAP
90
48
24
12
00
08
08
08
08
08
08
08
08
08
08
08
08
08
08
ENDCHAR
STARTCHAR 0209
ENCODING 521
SWIDTH 250 0
DWIDTH 5 0
BBX 7 16 -2 1
BITMAP
90
48
24
12
00
08
08
08
08
08
08
08
08
08
08
08
ENDCHAR
STARTCHAR 020A
ENCODING 522
SWIDTH 250 0
DWIDTH 5 0
BBX 5 18 0 0
BITMAP
70
88
88
00
20
20
20
20
20
20
20
20
20
20
20
20
20
20
ENDCHAR
STARTCHAR 020B
ENCODING 523
SWIDTH 250 0
DWIDTH 5 0
BBX 5 15 0 0
BITMAP
70
88
88
00
20
20
20
20
20
20
20
20
20
20
20
ENDCHAR
STARTCHAR 020C
ENCODING 524
SWIDTH 750 0
DWIDTH 15 0
BBX 13 19 1 1
BITMAP
2400
1200
0900
0480
0000
0F80
3060
4010
4010
8008
8008
8008
8008
8008
8008
4010
4010
3060
0F80
ENDCHAR
STARTCHAR 020D
ENCODING 525
SWIDTH 600 0
DWIDTH 12 0
BBX 10 16 1 1
BITMAP
4800
2400
1200
0900
0000
1E00
2100
4080
8040
8040
8040
8040
8040
4080
2100
1E00
ENDCHAR
STARTCHAR 020E
ENCODING 526
SWIDTH 750 0
DWIDTH 15 0
BBX 13 18 1 0
BITMAP
0700
0880
0880
0000
0F80
3060
4010
4010
8008
8008
8008
8008
8008
8008
4010
4010
3060
0F80
ENDCHAR
STARTCHAR 020F
ENCODING 527
SWIDTH 600 0
DWIDTH 12 0
BBX 10 15 1 0
BITMAP
0E00
1100
1100
0000
1E00
2100
4080
8040
8040
8040
8040
8040
4080
2100
1E00
ENDCHAR
STARTCHAR 0210
ENCODING 528
SWIDTH 600 0
DWIDTH 12 0
BBX 10 19 1 1
BITMAP
9000
4800
2400
1200
0000
7E00
4100
4080
4080
4080
4080
4100
7E00
4200
4200
4100
4080
4080
4040
ENDCHAR
STARTCHAR 0211
ENCODING 529
SWIDTH 350 0
DWIDTH 7 0
BBX 7 16 0 1
BITMAP
90
48
24
12
00
3C
20
20
20
20
20
20
20
20
20
20
ENDCHAR
STARTCHAR 0212
ENCODING 530
SWIDTH 600 0
DWIDTH 12 0
BBX 9 18 2 0
BITMAP
3800
4400
4400
0000
FC00
8200
8100
8100
8100
8100
8200
FC00
8400
8400
8200
8100
8100
8080
ENDCHAR
STARTCHAR 0213
ENCODING 531
SWIDTH 350 0
DWIDTH 7 0
BBX 5 15 2 0
BITMAP
70
88
88
00
F0
80
80
80
80
80
80
80
80
80
80
ENDCHAR
STARTCHAR 0214
ENCODING 532
SWIDTH 700 0
DWIDTH 14 0
BBX 10 19 2 1
BITMAP
4800
2400
1200
0900
0000
8040
8040
8040
8040
8040
8040
8040
8040
8040
8040
8040
4080
2100
1E00
ENDCHAR
STARTCHAR 0215
ENCODING 533
SWIDTH 600 0
DWIDTH 12 0
BBX 8 16 2 1
BITMAP
90
48
24
12
00
81
81
81
81
81
81
81
81
81
41
3F
ENDCHAR
STARTCHAR 0216
ENCODING 534
SWIDTH 700 0
DWIDTH 14 0
BBX 10 18 2 0
BITMAP
0E00
1100
1100
0000
8040
8040
8040
8040
8040
8040
8040
8040
8040
8040
8040
4080
2100
1E00
ENDCHAR
STARTCHAR 0217
ENCODING 535
SWIDTH 600 0
DWIDTH 12 0
BBX 8 15 2 0
BITMAP
1C
22
22
00
81
81
81
81
81
81
81
81
81
41
3F
ENDCHAR
STARTCHAR 0218
ENCODING 536
SWIDTH 500 0
DWIDTH 10 0
BBX 8 18 1 -4
BITMAP
3E
41
80
80
80
40
30
0C
02
01
01
01
82
7C
00
10
10
20
ENDCHAR
STARTCHAR 0219
ENCODING 537
SWIDTH 450 0
DWIDTH 9 0
BBX 7 15 1 -4
BITMAP
38
44
80
80
40
38
04
02
02
84
78
00
10
10
20
ENDCHAR
STARTCHAR 021A
ENCODING 538
SWIDTH 550 0
DWIDTH 11 0
BBX 9 18 1 -4
BITMAP
FF80
0800
0800
0800
0800
0800
0800
0800
0800
0800
0800
0800
0800
0800
0000
0800
0800
1000
ENDCHAR
STARTCHAR 021B
ENCODING 539
SWIDTH 400 0
DWIDTH 8 0
BBX 5 18 2 -4
BITMAP
80
80
80
F8
80
80
80
80
80
80
80
80
80
78
00
20
20
40
ENDCHAR
STARTCHAR 021C
ENCODING 540
SWIDTH 550 0
DWIDTH 11 0
BBX 9 18 1 -4
BITMAP
7C00
8200
0100
0100
0100
0100
0200
0400
3800
0600
0100
0080
0080
0080
0080
0100
0600
F800
ENDCHAR
STARTCHAR 021D
ENCODING 541
SWIDTH 450 0
DWIDTH 9 0
BBX 7 15 1 -4
BITMAP
70
08
04
04
04
08
30
0C
02
02
02
02
04
18
E0
ENDCHAR
STARTCHAR 021E
ENCODING 542
SWIDTH 700 0
DWIDTH 14 0
BBX 10 19 2 0
BITMAP
1100
1200
0A00
0400
0000
8040
8040
8040
8040
8040
8040
FFC0
8040
8040
8040
8040
8040
8040
8040
ENDCHAR
STARTCHAR 021F
ENCODING 543
SWIDTH 600 0
DWIDTH 12 0
BBX 9 20 1 0
BITMAP
8800
5000
2000
0000
4000
4000
4000
4000
4000
7E00
4100
4080
4080
4080
4080
4080
4080
4080
4080
4080
ENDCHAR
STARTCHAR 0220
ENCODING 544
SWIDTH 650 0
DWIDTH 13 0
BBX 9 18 2 -4
BITMAP
7C00
8200
8100
8080
8080
8080
8080
8080
8080
8080
8080
8080
8080
8080
0080
0080
0080
0080
ENDCHAR
STARTCHAR 0221
ENCODING 545
SWIDTH 650 0
DWIDTH 13 0
BBX 13 20 1 -4
BITMAP
0080
0080
0080
0080
0080
1E80
2180
4080
8080
8080
8080
8080
8080
4080
2080
1FF0
0088
0088
0188
0270
ENDCHAR
STARTCHAR 0222
ENCODING 546
SWIDTH 650 0
DWIDTH 13 0
BBX 9 14 2 0
BITMAP
4100
4100
4100
4100
4100
2200
3E00
4100
8080
8080
8080
8080
4100
3E00
ENDCHAR
STARTCHAR 0223
ENCODING 547
SWIDTH 650 0
DWIDTH 13 0
BBX 9 16 2 0
BITMAP
4100
4100
4100
4100
4100
2200
1C00
2200
4100
8100
8080
8080
8100
4100
2200
1C00
ENDCHAR
STARTCHAR 0224
ENCODING 548
SWIDTH 550 0
DWIDTH 11 0
BBX 9 18 1 -4
BITMAP
FF80
0080
0100
0200
0400
0400
0800
1000
1000
2000
2000
4000
8000
FF80
0080
0080
0080
0300
ENDCHAR
STARTCHAR 0225
ENCODING 549
SWIDTH 450 0
DWIDTH 9 0
BBX 7 15 1 -4
BITMAP
FE
02
04
08
08
10
20
20
40
80
FE
02
02
02
0C
ENDCHAR
STARTCHAR 0226
ENCODING 550
SWIDTH 650 0
DWIDTH 13 0
BBX 13 17 0 0
BITMAP
0200
0200
0000
0200
0200
0500
0500
0880
0880
1040
1040
1040
3FE0
2020
4010
4010
8008
ENDCHAR
STARTCHAR 0227
ENCODING 551
SWIDTH 500 0
DWIDTH 10 0
BBX 7 14 1 0
BITMAP
10
10
00
78
04
02
02
3E
42
82
82
82
42
3E
ENDCHAR
STARTCHAR 0228
ENCODING 552
SWIDTH 550 0
DWIDTH 11 0
BBX 8 18 2 -4
BITMAP
FE
80
80
80
80
80
FC
80
80
80
80
80
80
FF
10
10
08
30
ENDCHAR
STARTCHAR 0229
ENCODING 553
SWIDTH 550 0
DWIDTH 11 0
BBX 9 15 1 -4
BITMAP
1C00
2200
4100
8100
8080
FF80
8000
8000
4000
2000
1E00
0800
0800
0800
1800
ENDCHAR
STARTCHAR 022A
ENCODING 554
SWIDTH 750 0
DWIDTH 15 0
BBX 13 19 1 0
BITMAP
0F80
0000
0880
0880
0000
0F80
3060
4010
4010
8008
8008
8008
8008
8008
8008
4010
4010
3060
0F80
ENDCHAR
STARTCHAR 022B
ENCODING 555
SWIDTH 600 0
DWIDTH 12 0
BBX 10 16 1 0
BITMAP
1F00
0000
0900
1900
0000
1E00
2100
4080
8040
8040
8040
8040
8040
4080
2100
1E00
ENDCHAR
STARTCHAR 022C
ENCODING 556
SWIDTH 750 0
DWIDTH 15 0
BBX 13 19 1 0
BITMAP
1F80
0000
1900
0600
0000
0F80
3060
4010
4010
8008
8008
8008
8008
8008
8008
4010
4010
3060
0F80
ENDCHAR
STARTCHAR 022D
ENCODING 557
SWIDTH 600 0
DWIDTH 12 0
BBX 10 16 1 0
BITMAP
3F00
0000
1900
2600
0000
1E00
2100
4080
8040
8040
8040
8040
8040
4080
2100
1E00
ENDCHAR
STARTCHAR 022E
ENCODING 558
SWIDTH 750 0
DWIDTH 15 0
BBX 13 17 1 0
BITMAP
0200
0200
0000
0F80
3060
4010
4010
8008
8008
8008
8008
8008
8008
4010
4010
3060
0F80
ENDCHAR
STARTCHAR 022F
ENCODING 559
SWIDTH 600 0
DWIDTH 12 0
BBX 10 14 1 0
BITMAP
0400
0400
0000
1E00
2100
4080
8040
8040
8040
8040
8040
4080
2100
1E00
ENDCHAR
STARTCHAR 0230
ENCODING 560
SWIDTH 750 0
DWIDTH 15 0
BBX 13 19 1 0
BITMAP
0F80
0000
0200
0200
0000
0F80
3060
4010
4010
8008
8008
8008
8008
8008
8008
4010
4010
3060
0F80
ENDCHAR
STARTCHAR 0231
ENCODING 561
SWIDTH 600 0
DWIDTH 12 0
BBX 10 16 1 0
BITMAP
1F80
0000
0400
0400
0000
1E00
2100
4080
8040
8040
8040
8040
8040
4080
2100
1E00
ENDCHAR
STARTCHAR 0232
ENCODING 562
SWIDTH 650 0
DWIDTH 13 0
BBX 11 17 1 0
BITMAP
1F80
0000
0000
8020
4040
4040
2080
1100
1100
0A00
0400
0400
0400
0400
0400
0400
0400
ENDCHAR
STARTCHAR 0233
ENCODING 563
SWIDTH 450 0
DWIDTH 9 0
BBX 7 18 1 -4
BITMAP
7E
00
00
82
82
44
44
44
44
28
28
28
28
10
10
10
20
C0
ENDCHAR
STARTCHAR 0234
ENCODING 564
SWIDTH 350 0
DWIDTH 7 0
BBX 7 20 0 -4
BITMAP
20
20
20
20
20
20
20
20
20
20
20
20
20
20
20
3C
22
22
62
9C
ENDCHAR
STARTCHAR 0235
ENCODING 565
SWIDTH 700 0
DWIDTH 14 0
BBX 12 15 2 -4
BITMAP
FC00
8200
8100
8100
8100
8100
8100
8100
8100
8100
81E0
0110
0110
0310
04E0
ENDCHAR
STARTCHAR 0236
ENCODING 566
SWIDTH 400 0
DWIDTH 8 0
BBX 7 18 0 -4
BITMAP
20
20
20
3E
20
20
20
20
20
20
20
20
20
3C
22
22
62
9C
ENDCHAR
STARTCHAR 0237
ENCODING 567
SWIDTH 250 0
DWIDTH 5 0
BBX 4 15 -1 -4
BITMAP
10
10
10
10
10
10
10
10
10
10
10
10
10
10
E0
ENDCHAR
STARTCHAR 0238
ENCODING 568
SWIDTH 950 0
DWIDTH 19 0
BBX 17 16 1 0
BITMAP
008000
008000
008000
008000
008000
1EBC00
21C200
408100
808100
808080
808080
808080
808100
408100
208200
1FFC00
ENDCHAR
STARTCHAR 0239
ENCODING 569
SWIDTH 950 0
DWIDTH 19 0
BBX 17 15 1 -4
BITMAP
1FFC00
208200
408100
808100
808080
808080
808080
808100
408100
21C200
1EBC00
008000
008000
008000
008000
ENDCHAR
STARTCHAR 023A
ENCODING 570
SWIDTH 650 0
DWIDTH 13 0
BBX 13 17 0 -1
BITMAP
0040
0240
0240
0580
0580
0880
0980
1280
1240
1240
3FE0
2420
4410
4810
8808
0800
1000
ENDCHAR
STARTCHAR 023B
ENCODING 571
SWIDTH 600 0
DWIDTH 12 0
BBX 10 18 1 -2
BITMAP
0040
0080
0F80
30C0
4100
8100
8200
8200
8200
8400
8400
8400
4800
4800
3040
1F80
1000
2000
ENDCHAR
STARTCHAR 023C
ENCODING 572
SWIDTH 450 0
DWIDTH 9 0
BBX 7 14 1 -1
BITMAP
04
04
1C
2A
48
88
88
90
90
90
50
32
2C
20
ENDCHAR
STARTCHAR 023D
ENCODING 573
SWIDTH 500 0
DWIDTH 10 0
BBX 9 14 0 0
BITMAP
2000
2000
2000
2000
2000
2000
FC00
2000
2000
2000
2000
2000
2000
3F80
ENDCHAR
STARTCHAR 023E
ENCODING 574
SWIDTH 550 0
DWIDTH 11 0
BBX 10 15 1 -1
BITMAP
0040
FFC0
0880
0880
0900
0A00
0A00
0C00
0800
0800
1800
2800
2800
4800
8800
ENDCHAR
STARTCHAR 023F
ENCODING 575
SWIDTH 450 0
DWIDTH 9 0
BBX 7 15 1 -4
BITMAP
38
44
80
80
40
38
04
02
02
84
F8
40
20
10
0E
ENDCHAR
STARTCHAR 0240
ENCODING 576
SWIDTH 450 0
DWIDTH 9 0
BBX 8 15 1 -4
BITMAP
FE
02
04
08
08
10
20
20
40
80
E0
10
08
0C
03
ENDCHAR
STARTCHAR 0241
ENCODING 577
SWIDTH 450 0
DWIDTH 9 0
BBX 7 14 1 0
BITMAP
78
84
02
02
02
04
08
10
20
20
20
20
20
20
ENDCHAR
STARTCHAR 0242
ENCODING 578
SWIDTH 400 0
DWIDTH 8 0
BBX 6 11 1 0
BITMAP
78
8C
04
04
08
10
20
20
20
20
20
ENDCHAR
STARTCHAR 0243
ENCODING 579
SWIDTH 650 0
DWIDTH 13 0
BBX 12 14 0 0
BITMAP
3F80
2040
2020
2020
2020
2040
3F80
2060
2010
FC10
2010
2010
2060
3F80
ENDCHAR
STARTCHAR 0244
ENCODING 580
SWIDTH 700 0
DWIDTH 14 0
BBX 12 14 1 0
BITMAP
4020
4020
4020
4020
4020
4020
FFF0
4020
4020
4020
4020
2040
1080
0F00
ENDCHAR
STARTCHAR 0245
ENCODING 581
SWIDTH 750 0
DWIDTH 15 0
BBX 13 14 1 0
BITMAP
0200
0200
0500
0500
0880
0880
1040
1040
2020
2020
4020
4010
8010
8008
ENDCHAR
STARTCHAR 0246
ENCODING 582
SWIDTH 550 0
DWIDTH 11 0
BBX 9 17 2 -2
BITMAP
0080
FF00
8100
8100
8200
8200
8400
FE00
8800
8800
8800
9000
9000
A000
FF00
2000
4000
ENDCHAR
STARTCHAR 0247
ENCODING 583
SWIDTH 550 0
DWIDTH 11 0
BBX 9 14 1 -1
BITMAP
0200
0200
1C00
2600
4500
8880
8880
FF80
9000
9000
5000
3000
3E00
2000
ENDCHAR
STARTCHAR 0248
ENCODING 584
SWIDTH 500 0
DWIDTH 10 0
BBX 9 14 1 0
BITMAP
0200
0200
0200
0200
0200
0200
1F80
0200
0200
0200
0200
0200
8400
7800
ENDCHAR
STARTCHAR 0249
ENCODING 585
SWIDTH 250 0
DWIDTH 5 0
BBX 6 18 -1 -4
BITMAP
10
10
00
10
10
10
10
10
7C
10
10
10
10
10
10
10
10
E0
ENDCHAR
STARTCHAR 024A
ENCODING 586
SWIDTH 800 0
DWIDTH 16 0
BBX 15 18 1 -4
BITMAP
0F80
3060
4010
4010
8008
8008
8008
8008
8008
8008
4008
4018
3068
0F88
0008
0008
0008
0006
ENDCHAR
STARTCHAR 024B
ENCODING 587
SWIDTH 600 0
DWIDTH 12 0
BBX 11 15 1 -4
BITMAP
1F80
2080
4080
8080
8080
8080
8080
8080
4080
2180
1E80
0080
0080
0080
0060
ENDCHAR
STARTCHAR 024C
ENCODING 588
SWIDTH 600 0
DWIDTH 12 0
BBX 11 14 0 0
BITMAP
3F00
2080
2040
2040
2040
2040
2080
FF00
2100
2100
2080
2040
2040
2020
ENDCHAR
STARTCHAR 024D
ENCODING 589
SWIDTH 350 0
DWIDTH 7 0
BBX 6 11 0 0
BITMAP
3C
20
20
20
20
FC
20
20
20
20
20
ENDCHAR
STARTCHAR 024E
ENCODING 590
SWIDTH 650 0
DWIDTH 13 0
BBX 11 14 1 0
BITMAP
8020
4040
2080
FFE0
1100
1100
0A00
0400
0400
0400
0400
0400
0400
0400
ENDCHAR
STARTCHAR 024F
ENCODING 591
SWIDTH 450 0
DWIDTH 9 0
BBX 9 15 0 -4
BITMAP
4100
4100
2200
2200
FF80
2200
1400
1400
1400
1400
0800
0800
0800
1000
6000
ENDCHAR
STARTCHAR 0292
ENCODING 658
SWIDTH 450 0
DWIDTH 9 0
BBX 8 15 0 -4
BITMAP
FF
02
02
04
08
10
3C
02
01
01
01
01
01
82
7C
ENDCHAR
STARTCHAR 02BC
ENCODING 700
SWIDTH 400 0
DWIDTH 8 0
BBX 2 4 2 12
BITMAP
40
40
40
80
ENDCHAR
STARTCHAR 02C6
ENCODING 710
SWIDTH 400 0
DWIDTH 8 0
BBX 5 4 1 12
BITMAP
20
50
90
88
ENDCHAR
STARTCHAR 02C7
ENCODING 711
SWIDTH 400 0
DWIDTH 8 0
BBX 5 4 1 12
BITMAP
88
90
50
20
ENDCHAR
STARTCHAR 02C9
ENCODING 713
SWIDTH 400 0
DWIDTH 8 0
BBX 6 1 1 13
BITMAP
FC
ENDCHAR
STARTCHAR 02D8
ENCODING 728
SWIDTH 400 0
DWIDTH 8 0
BBX 5 3 1 12
BITMAP
88
88
70
ENDCHAR
STARTCHAR 02D9
ENCODING 729
SWIDTH 400 0
DWIDTH 8 0
BBX 1 2 3 12
BITMAP
80
80
ENDCHAR
STARTCHAR 02DA
ENCODING 730
SWIDTH 400 0
DWIDTH 8 0
BBX 4 4 2 12
BITMAP
60
90
90
60
ENDCHAR
STARTCHAR 02DB
ENCODING 731
SWIDTH 400 0
DWIDTH 8 0
BBX 3 4 2 -4
BITMAP
20
40
80
60
ENDCHAR
STARTCHAR 02DC
ENCODING 732
SWIDTH 400 0
DWIDTH 8 0
BBX 6 2 1 13
BITMAP
64
98
ENDCHAR
STARTCHAR 02DD
ENCODING 733
SWIDTH 400 0
DWIDTH 8 0
BBX 7 4 1 12
BITMAP
12
24
48
90
ENDCHAR
STARTCHAR 0311
ENCODING 785
SWIDTH 400 0
DWIDTH 8 0
BBX 5 3 1 12
BITMAP
70
88
88
ENDCHAR
STARTCHAR 0384
ENCODING 900
SWIDTH 400 0
DWIDTH 8 0
BBX 3 4 3 12
BITMAP
20
40
40
80
ENDCHAR
STARTCHAR 0385
ENCODING 901
SWIDTH 350 0
DWIDTH 7 0
BBX 6 4 1 12
BITMAP
10
94
A4
20
ENDCHAR
STARTCHAR 0386
ENCODING 902
SWIDTH 650 0
DWIDTH 13 0
BBX 13 14 0 0
BITMAP
1200
2200
2500
2500
0880
0880
1040
1040
1040
3FE0
2020
4010
4010
8008
ENDCHAR
STARTCHAR 0388
ENCODING 904
SWIDTH 600 0
DWIDTH 12 0
BBX 11 14 0 0
BITMAP
5FC0
9000
9000
9000
1000
1000
1F80
1000
1000
1000
1000
1000
1000
1FE0
ENDCHAR
STARTCHAR 0389
ENCODING 905
SWIDTH 750 0
DWIDTH 15 0
BBX 13 14 0 0
BITMAP
5008
9008
9008
9008
1008
1008
1FF8
1008
1008
1008
1008
1008
1008
1008
ENDCHAR
STARTCHAR 038A
ENCODING 906
SWIDTH 300 0
DWIDTH 6 0
BBX 4 14 0 0
BITMAP
50
90
90
90
10
10
10
10
10
10
10
10
10
10
ENDCHAR
STARTCHAR 038C
ENCODING 908
SWIDTH 800 0
DWIDTH 16 0
BBX 15 14 0 0
BITMAP
43E0
8C18
9004
9004
2002
2002
2002
2002
2002
2002
1004
1004
0C18
03E0
ENDCHAR
STARTCHAR 038E
ENCODING 910
SWIDTH 700 0
DWIDTH 14 0
BBX 15 14 0 0
BITMAP
4802
8404
8404
8208
0110
0110
00A0
0040
0040
0040
0040
0040
0040
0040
ENDCHAR
STARTCHAR 038F
ENCODING 911
SWIDTH 800 0
DWIDTH 16 0
BBX 15 14 0 0
BITMAP
43E0
8C18
9004
9004
2002
2002
2002
2002
2002
1004
1004
0808
0410
3E3E
ENDCHAR
STARTCHAR 0390
ENCODING 912
SWIDTH 300 0
DWIDTH 6 0
BBX 6 16 0 0
BITMAP
10
94
A4
20
00
20
20
20
20
20
20
20
20
20
20
18
ENDCHAR
STARTCHAR 0391
ENCODING 913
SWIDTH 650 0
DWIDTH 13 0
BBX 13 14 0 0
BITMAP
0200
0200
0500
0500
0880
0880
1040
1040
1040
3FE0
2020
4010
4010
8008
ENDCHAR
STARTCHAR 0392
ENCODING 914
SWIDTH 650 0
DWIDTH 13 0
BBX 10 14 2 0
BITMAP
FE00
8100
8080
8080
8080
8100
FE00
8180
8040
8040
8040
8040
8180
FE00
ENDCHAR
STARTCHAR 0393
ENCODING 915
SWIDTH 500 0
DWIDTH 10 0
BBX 7 14 2 0
BITMAP
FE
80
80
80
80
80
80
80
80
80
80
80
80
80
ENDCHAR
STARTCHAR 0394
ENCODING 916
SWIDTH 650 0
DWIDTH 13 0
BBX 13 14 0 0
BITMAP
0200
0200
0500
0500
0880
0880
1040
1040
2020
2020
4020
4010
8010
FFF8
ENDCHAR
STARTCHAR 0395
ENCODING 917
SWIDTH 550 0
DWIDTH 11 0
BBX 8 14 2 0
BITMAP
FE
80
80
80
80
80
FC
80
80
80
80
80
80
FF
ENDCHAR
STARTCHAR 0396
ENCODING 918
SWIDTH 550 0
DWIDTH 11 0
BBX 9 14 1 0
BITMAP
FF80
0080
0100
0200
0400
0400
0800
1000
1000
2000
2000
4000
8000
FF80
ENDCHAR
STARTCHAR 0397
ENCODING 919
SWIDTH 700 0
DWIDTH 14 0
BBX 10 14 2 0
BITMAP
8040
8040
8040
8040
8040
8040
FFC0
8040
8040
8040
8040
8040
8040
8040
ENDCHAR
STARTCHAR 0398
ENCODING 920
SWIDTH 750 0
DWIDTH 15 0
BBX 13 14 1 0
BITMAP
0F80
3060
4010
4010
8008
8008
9FC8
8008
8008
8008
4010
4010
3060
0F80
ENDCHAR
STARTCHAR 0399
ENCODING 921
SWIDTH 250 0
DWIDTH 5 0
BBX 1 14 2 0
BITMAP
80
80
80
80
80
80
80
80
80
80
80
80
80
80
ENDCHAR
STARTCHAR 039A
ENCODING 922
SWIDTH 600 0
DWIDTH 12 0
BBX 10 14 2 0
BITMAP
8040
8180
8200
8400
8800
B000
C000
A000
9800
8400
8200
8100
8080
8040
ENDCHAR
STARTCHAR 039B
ENCODING 923
SWIDTH 750 0
DWIDTH 15 0
BBX 13 14 1 0
BITMAP
0200
0200
0500
0500
0880
0880
1040
1040
2020
2020
4020
4010
8010
8008
ENDCHAR
STARTCHAR 039C
ENCODING 924
SWIDTH 950 0
DWIDTH 19 0
BBX 15 14 2 0
BITMAP
4004
600C
600C
5014
5014
8824
8822
8442
8442
8282
8282
8102
8002
8002
ENDCHAR
STARTCHAR 039D
ENCODING 925
SWIDTH 700 0
DWIDTH 14 0
BBX 10 14 2 0
BITMAP
8040
C040
C040
A040
9040
9040
8840
8440
8440
8240
8140
8140
80C0
8040
ENDCHAR
STARTCHAR 039E
ENCODING 926
SWIDTH 550 0
DWIDTH 11 0
BBX 9 14 1 0
BITMAP
FF80
0000
0000
0000
0000
0000
7F00
0000
0000
0000
0000
0000
0000
FF80
ENDCHAR
STARTCHAR 039F
ENCODING 927
SWIDTH 750 0
DWIDTH 15 0
BBX 13 14 1 0
BITMAP
0F80
3060
4010
4010
8008
8008
8008
8008
8008
8008
4010
4010
3060
0F80
ENDCHAR
STARTCHAR 03A0
ENCODING 928
SWIDTH 700 0
DWIDTH 14 0
BBX 10 14 2 0
BITMAP
FFC0
8040
8040
8040
8040
8040
8040
8040
8040
8040
8040
8040
8040
8040
ENDCHAR
STARTCHAR 03A1
ENCODING 929
SWIDTH 600 0
DWIDTH 12 0
BBX 9 14 2 0
BITMAP
FE00
8100
8080
8080
8080
8080
8080
8100
FE00
8000
8000
8000
8000
8000
ENDCHAR
STARTCHAR 03A3
ENCODING 931
SWIDTH 550 0
DWIDTH 11 0
BBX 9 14 1 0
BITMAP
FF80
8000
4000
2000
1000
0800
0400
0400
0800
1000
2000
4000
8000
FF80
ENDCHAR
STARTCHAR 03A4
ENCODING 932
SWIDTH 550 0
DWIDTH 11 0
BBX 9 14 1 0
BITMAP
FF80
0800
0800
0800
0800
0800
0800
0800
0800
0800
0800
0800
0800
0800
ENDCHAR
STARTCHAR 03A5
ENCODING 933
SWIDTH 650 0
DWIDTH 13 0
BBX 11 14 1 0
BITMAP
8020
4040
4040
2080
1100
1100
0A00
0400
0400
0400
0400
0400
0400
0400
ENDCHAR
STARTCHAR 03A6
ENCODING 934
SWIDTH 750 0
DWIDTH 15 0
BBX 13 15 1 0
BITMAP
0200
0200
1FC0
2220
4210
8208
8208
8208
8208
8208
4210
2220
1FC0
0200
0200
ENDCHAR
STARTCHAR 03A7
ENCODING 935
SWIDTH 600 0
DWIDTH 12 0
BBX 10 14 1 0
BITMAP
8040
4080
2100
2100
1200
1400
0C00
0C00
1E00
1200
2100
6100
4080
8040
ENDCHAR
STARTCHAR 03A8
ENCODING 936
SWIDTH 750 0
DWIDTH 15 0
BBX 11 14 2 0
BITMAP
8420
8420
8420
8420
8420
8420
8420
4440
2480
1F00
0400
0400
0400
0400
ENDCHAR
STARTCHAR 03A9
ENCODING 937
SWIDTH 750 0
DWIDTH 15 0
BBX 13 14 1 0
BITMAP
0F80
3060
4010
4010
8008
8008
8008
8008
8008
4010
4010
2020
1040
F8F8
ENDCHAR
STARTCHAR 03AA
ENCODING 938
SWIDTH 250 0
DWIDTH 5 0
BBX 4 18 1 0
BITMAP
90
90
00
00
40
40
40
40
40
40
40
40
40
40
40
40
40
40
ENDCHAR
STARTCHAR 03AB
ENCODING 939
SWIDTH 650 0
DWIDTH 13 0
BBX 11 18 1 0
BITMAP
0900
0900
0000
0000
8020
4040
4040
2080
1100
1100
0A00
0400
0400
0400
0400
0400
0400
0400
ENDCHAR
STARTCHAR 03AC
ENCODING 940
SWIDTH 600 0
DWIDTH 12 0
BBX 11 16 1 0
BITMAP
0200
0400
0400
0800
0000
1F80
2080
4080
8080
8080
8080
8080
8080
4080
2180
1E60
ENDCHAR
STARTCHAR 03AD
ENCODING 941
SWIDTH 500 0
DWIDTH 10 0
BBX 8 16 1 0
BITMAP
04
08
08
10
00
3C
40
80
80
40
3C
40
80
80
41
3E
ENDCHAR
STARTCHAR 03AE
ENCODING 942
SWIDTH 600 0
DWIDTH 12 0
BBX 8 20 2 -4
BITMAP
04
08
08
10
00
FC
82
81
81
81
81
81
81
81
81
81
01
01
01
01
ENDCHAR
STARTCHAR 03AF
ENCODING 943
SWIDTH 300 0
DWIDTH 6 0
BBX 3 16 2 0
BITMAP
20
40
40
80
00
80
80
80
80
80
80
80
80
80
80
60
ENDCHAR
STARTCHAR 03B0
ENCODING 944
SWIDTH 600 0
DWIDTH 12 0
BBX 8 16 2 0
BITMAP
08
4A
52
10
00
81
81
81
81
81
81
81
81
81
42
3C
ENDCHAR
STARTCHAR 03B1
ENCODING 945
SWIDTH 600 0
DWIDTH 12 0
BBX 11 11 1 0
BITMAP
1F80
2080
4080
8080
8080
8080
8080
8080
4080
2180
1E60
ENDCHAR
STARTCHAR 03B2
ENCODING 946
SWIDTH 600 0
DWIDTH 12 0
BBX 9 20 2 -4
BITMAP
3C00
4200
8100
8100
8100
8100
8200
9E00
8100
8080
8080
8080
8080
8080
C100
BE00
8000
8000
8000
8000
ENDCHAR
STARTCHAR 03B3
ENCODING 947
SWIDTH 450 0
DWIDTH 9 0
BBX 8 15 1 -4
BITMAP
81
81
42
42
42
44
24
24
28
28
10
10
10
10
10
ENDCHAR
STARTCHAR 03B4
ENCODING 948
SWIDTH 600 0
DWIDTH 12 0
BBX 10 16 1 0
BITMAP
0F00
1080
2000
2000
1000
0C00
3300
4080
4080
8040
8040
8040
8040
4080
2100
1E00
ENDCHAR
STARTCHAR 03B5
ENCODING 949
SWIDTH 500 0
DWIDTH 10 0
BBX 8 11 1 0
BITMAP
3C
40
80
80
40
3C
40
80
80
41
3E
ENDCHAR
STARTCHAR 03B6
ENCODING 950
SWIDTH 400 0
DWIDTH 8 0
BBX 7 20 1 -4
BITMAP
7E
04
04
08
10
20
20
40
40
80
80
80
80
40
20
1C
02
02
02
04
ENDCHAR
STARTCHAR 03B7
ENCODING 951
SWIDTH 600 0
DWIDTH 12 0
BBX 8 15 2 -4
BITMAP
FC
82
81
81
81
81
81
81
81
81
81
01
01
01
01
ENDCHAR
STARTCHAR 03B8
ENCODING 952
SWIDTH 600 0
DWIDTH 12 0
BBX 10 16 1 0
BITMAP
1E00
2100
4080
4080
8040
8040
8040
FFC0
8040
8040
8040
8040
4080
4080
2100
1E00
ENDCHAR
STARTCHAR 03B9
ENCODING 953
SWIDTH 300 0
DWIDTH 6 0
BBX 3 11 2 0
BITMAP
80
80
80
80
80
80
80
80
80
80
60
ENDCHAR
STARTCHAR 03BA
ENCODING 954
SWIDTH 500 0
DWIDTH 10 0
BBX 8 11 2 0
BITMAP
83
84
88
90
A0
C0
B0
88
84
82
81
ENDCHAR
STARTCHAR 03BB
ENCODING 955
SWIDTH 450 0
DWIDTH 9 0
BBX 8 16 1 0
BITMAP
C0
20
20
10
10
10
08
18
24
24
24
42
42
82
81
81
ENDCHAR
STARTCHAR 03BC
ENCODING 956
SWIDTH 600 0
DWIDTH 12 0
BBX 8 15 2 -4
BITMAP
81
81
81
81
81
81
81
81
81
C1
BF
80
80
80
80
ENDCHAR
STARTCHAR 03BD
ENCODING 957
SWIDTH 550 0
DWIDTH 11 0
BBX 9 11 1 0
BITMAP
8080
8080
4100
4100
4100
2200
2200
2200
1400
1400
0800
ENDCHAR
STARTCHAR 03BE
ENCODING 958
SWIDTH 450 0
DWIDTH 9 0
BBX 8 20 1 -4
BITMAP
1E
20
40
40
40
40
20
1C
20
40
80
80
80
40
30
0E
01
01
01
02
ENDCHAR
STARTCHAR 03BF
ENCODING 959
SWIDTH 600 0
DWIDTH 12 0
BBX 10 11 1 0
BITMAP
1E00
2100
4080
8040
8040
8040
8040
8040
4080
2100
1E00
ENDCHAR
STARTCHAR 03C0
ENCODING 960
SWIDTH 550 0
DWIDTH 11 0
BBX 7 11 2 0
BITMAP
FE
82
82
82
82
82
82
82
82
82
82
ENDCHAR
STARTCHAR 03C1
ENCODING 961
SWIDTH 600 0
DWIDTH 12 0
BBX 9 15 2 -4
BITMAP
1C00
6200
4100
8080
8080
8080
8080
8080
8100
C200
BC00
8000
8000
8000
8000
ENDCHAR
STARTCHAR 03C2
ENCODING 962
SWIDTH 450 0
DWIDTH 9 0
BBX 7 15 1 -4
BITMAP
1E
20
40
80
80
80
80
80
40
20
1C
02
02
02
04
ENDCHAR
STARTCHAR 03C3
ENCODING 963
SWIDTH 600 0
DWIDTH 12 0
BBX 11 11 1 0
BITMAP
1FE0
2100
4080
8080
8040
8040
8040
8040
4080
2100
1E00
ENDCHAR
STARTCHAR 03C4
ENCODING 964
SWIDTH 450 0
DWIDTH 9 0
BBX 8 11 0 0
BITMAP
FF
10
10
10
10
10
10
10
10
10
0F
ENDCHAR
STARTCHAR 03C5
ENCODING 965
SWIDTH 600 0
DWIDTH 12 0
BBX 8 11 2 0
BITMAP
81
81
81
81
81
81
81
81
81
42
3C
ENDCHAR
STARTCHAR 03C6
ENCODING 966
SWIDTH 750 0
DWIDTH 15 0
BBX 13 15 1 -4
BITMAP
1F80
2260
4210
8208
8208
8208
8208
8208
4210
2220
1FC0
0200
0200
0200
0200
ENDCHAR
STARTCHAR 03C7
ENCODING 967
SWIDTH 550 0
DWIDTH 11 0
BBX 9 11 1 0
BITMAP
8080
4100
2200
1400
1400
0800
1400
1200
2200
4100
8080
ENDCHAR
STARTCHAR 03C8
ENCODING 968
SWIDTH 750 0
DWIDTH 15 0
BBX 11 15 2 -4
BITMAP
8420
8420
8420
8420
8420
8420
8420
8420
4440
2480
1F00
0400
0400
0400
0400
ENDCHAR
STARTCHAR 03C9
ENCODING 969
SWIDTH 750 0
DWIDTH 15 0
BBX 13 11 1 0
BITMAP
2020
4010
4210
8208
8208
8208
8208
8208
8208
4510
38E0
ENDCHAR
STARTCHAR 03CA
ENCODING 970
SWIDTH 300 0
DWIDTH 6 0
BBX 4 15 1 0
BITMAP
90
90
00
00
40
40
40
40
40
40
40
40
40
40
30
ENDCHAR
STARTCHAR 03CB
ENCODING 971
SWIDTH 600 0
DWIDTH 12 0
BBX 8 15 2 0
BITMAP
24
24
00
00
81
81
81
81
81
81
81
81
81
42
3C
ENDCHAR
STARTCHAR 03CC
ENCODING 972
SWIDTH 600 0
DWIDTH 12 0
BBX 10 16 1 0
BITMAP
0200
0400
0400
0800
0000
1E00
2100
4080
8040
8040
8040
8040
8040
4080
2100
1E00
ENDCHAR
STARTCHAR 03CD
ENCODING 973
SWIDTH 600 0
DWIDTH 12 0
BBX 8 16 2 0
BITMAP
04
08
08
10
00
81
81
81
81
81
81
81
81
81
42
3C
ENDCHAR
STARTCHAR 03CE
ENCODING 974
SWIDTH 750 0
DWIDTH 15 0
BBX 13 16 1 0
BITMAP
0100
0200
0200
0400
0000
2020
4010
4210
8208
8208
8208
8208
8208
8208
4510
38E0
ENDCHAR
STARTCHAR 0400
ENCODING 1024
SWIDTH 550 0
DWIDTH 11 0
BBX 8 19 2 0
BITMAP
40
20
10
08
00
FE
80
80
80
80
80
FC
80
80
80
80
80
80
FF
ENDCHAR
STARTCHAR 0401
ENCODING 1025
SWIDTH 550 0
DWIDTH 11 0
BBX 8 18 2 0
BITMAP
24
24
00
00
FE
80
80
80
80
80
FC
80
80
80
80
80
80
FF
ENDCHAR
STARTCHAR 0402
ENCODING 1026
SWIDTH 750 0
DWIDTH 15 0
BBX 13 14 1 0
BITMAP
FFC0
0800
0800
0800
0800
0FC0
0820
0810
0808
0808
0808
0808
0810
08E0
ENDCHAR
STARTCHAR 0403
ENCODING 1027
SWIDTH 500 0
DWIDTH 10 0
BBX 7 19 2 0
BITMAP
04
08
10
20
00
FE
80
80
80
80
80
80
80
80
80
80
80
80
80
ENDCHAR
STARTCHAR 0404
ENCODING 1028
SWIDTH 600 0
DWIDTH 12 0
BBX 10 14 1 0
BITMAP
0F80
3040
4000
4000
8000
8000
FE00
8000
8000
8000
4000
4000
3040
0F80
ENDCHAR
STARTCHAR 0405
ENCODING 1029
SWIDTH 500 0
DWIDTH 10 0
BBX 8 14 1 0
BITMAP
3E
41
80
80
80
40
30
0C
02
01
01
01
82
7C
ENDCHAR
STARTCHAR 0406
ENCODING 1030
SWIDTH 250 0
DWIDTH 5 0
BBX 1 14 2 0
BITMAP
80
80
80
80
80
80
80
80
80
80
80
80
80
80
ENDCHAR
STARTCHAR 0407
ENCODING 1031
SWIDTH 250 0
DWIDTH 5 0
BBX 4 18 1 0
BITMAP
90
90
00
00
40
40
40
40
40
40
40
40
40
40
40
40
40
40
ENDCHAR
STARTCHAR 0408
ENCODING 1032
SWIDTH 500 0
DWIDTH 10 0
BBX 7 14 1 0
BITMAP
02
02
02
02
02
02
02
02
02
02
02
02
84
78
ENDCHAR
STARTCHAR 0409
ENCODING 1033
SWIDTH 1000 0
DWIDTH 20 0
BBX 19 14 0 0
BITMAP
0FF000
081000
081000
081000
081000
081F80
081040
081020
081020
101020
101020
101020
201040
C01F80
ENDCHAR
STARTCHAR 040A
ENCODING 1034
SWIDTH 1050 0
DWIDTH 21 0
BBX 18 14 2 0
BITMAP
802000
802000
802000
802000
802000
802000
FFFF00
802080
802040
802040
802040
802040
802080
803F00
ENDCHAR
STARTCHAR 040B
ENCODING 1035
SWIDTH 750 0
DWIDTH 15 0
BBX 13 14 1 0
BITMAP
FFE0
0400
0400
0400
0400
07E0
0410
0408
0408
0408
0408
0408
0408
0408
ENDCHAR
STARTCHAR 040C
ENCODING 1036
SWIDTH 600 0
DWIDTH 12 0
BBX 10 19 2 0
BITMAP
0200
0400
0800
1000
0000
8040
8180
8200
8400
8800
B000
C000
A000
9800
8400
8200
8100
8080
8040
ENDCHAR
STARTCHAR 040D
ENCODING 1037
SWIDTH 700 0
DWIDTH 14 0
BBX 10 19 2 0
BITMAP
2000
1000
0800
0400
0000
8040
80C0
80C0
8140
8240
8440
8440
8840
9040
9040
A040
C040
C040
8040
ENDCHAR
STARTCHAR 040E
ENCODING 1038
SWIDTH 600 0
DWIDTH 12 0
BBX 10 18 1 0
BITMAP
1100
1100
0E00
0000
8040
4080
4080
2080
2100
1100
1100
0A00
0A00
0400
0400
0800
1000
E000
ENDCHAR
STARTCHAR 040F
ENCODING 1039
SWIDTH 650 0
DWIDTH 13 0
BBX 9 18 2 -4
BITMAP
8080
8080
8080
8080
8080
8080
8080
8080
8080
8080
8080
8080
8080
FF80
0800
0800
0800
0800
ENDCHAR
STARTCHAR 0410
ENCODING 1040
SWIDTH 650 0
DWIDTH 13 0
BBX 13 14 0 0
BITMAP
0200
0200
0500
0500
0880
0880
1040
1040
1040
3FE0
2020
4010
4010
8008
ENDCHAR
STARTCHAR 0411
ENCODING 1041
SWIDTH 600 0
DWIDTH 12 0
BBX 9 14 2 0
BITMAP
FF00
8000
8000
8000
8000
FC00
8300
8080
8080
8080
8080
8080
8300
FC00
ENDCHAR
STARTCHAR 0412
ENCODING 1042
SWIDTH 650 0
DWIDTH 13 0
BBX 10 14 2 0
BITMAP
FE00
8100
8080
8080
8080
8100
FE00
8180
8040
8040
8040
8040
8180
FE00
ENDCHAR
STARTCHAR 0413
ENCODING 1043
SWIDTH 500 0
DWIDTH 10 0
BBX 7 14 2 0
BITMAP
FE
80
80
80
80
80
80
80
80
80
80
80
80
80
ENDCHAR
STARTCHAR 0414
ENCODING 1044
SWIDTH 700 0
DWIDTH 14 0
BBX 12 18 1 -4
BITMAP
0FE0
0820
0820
0820
0820
0820
0820
0820
1020
1020
1020
2020
4020
FFF0
8010
8010
8010
8010
ENDCHAR
STARTCHAR 0415
ENCODING 1045
SWIDTH 550 0
DWIDTH 11 0
BBX 8 14 2 0
BITMAP
FE
80
80
80
80
80
FC
80
80
80
80
80
80
FF
ENDCHAR
STARTCHAR 0416
ENCODING 1046
SWIDTH 850 0
DWIDTH 17 0
BBX 17 14 0 0
BITMAP
408100
208200
108400
088800
049000
02A000
01C000
03A000
049000
088800
108400
208200
408100
808080
ENDCHAR
STARTCHAR 0417
ENCODING 1047
SWIDTH 550 0
DWIDTH 11 0
BBX 9 14 1 0
BITMAP
7C00
8200
0100
0100
0100
0200
3C00
0300
0080
0080
0080
0080
8100
7E00
ENDCHAR
STARTCHAR 0418
ENCODING 1048
SWIDTH 700 0
DWIDTH 14 0
BBX 10 14 2 0
BITMAP
8040
80C0
80C0
8140
8240
8440
8440
8840
9040
9040
A040
C040
C040
8040
ENDCHAR
STARTCHAR 0419
ENCODING 1049
SWIDTH 700 0
DWIDTH 14 0
BBX 10 18 2 0
BITMAP
1100
1100
0E00
0000
8040
80C0
80C0
8140
8240
8440
8440
8840
9040
9040
A040
C040
C040
8040
ENDCHAR
STARTCHAR 041A
ENCODING 1050
SWIDTH 600 0
DWIDTH 12 0
BBX 10 14 2 0
BITMAP
8040
8180
8200
8400
8800
B000
C000
A000
9800
8400
8200
8100
8080
8040
ENDCHAR
STARTCHAR 041B
ENCODING 1051
SWIDTH 700 0
DWIDTH 14 0
BBX 12 14 0 0
BITMAP
0FF0
0810
0810
0810
0810
0810
0810
0810
0810
1010
1010
1010
2010
C010
ENDCHAR
STARTCHAR 041C
ENCODING 1052
SWIDTH 950 0
DWIDTH 19 0
BBX 15 14 2 0
BITMAP
4004
600C
600C
5014
5014
8824
8822
8442
8442
8282
8282
8102
8002
8002
ENDCHAR
STARTCHAR 041D
ENCODING 1053
SWIDTH 700 0
DWIDTH 14 0
BBX 10 14 2 0
BITMAP
8040
8040
8040
8040
8040
8040
FFC0
8040
8040
8040
8040
8040
8040
8040
ENDCHAR
STARTCHAR 041E
ENCODING 1054
SWIDTH 750 0
DWIDTH 15 0
BBX 13 14 1 0
BITMAP
0F80
3060
4010
4010
8008
8008
8008
8008
8008
8008
4010
4010
3060
0F80
ENDCHAR
STARTCHAR 041F
ENCODING 1055
SWIDTH 700 0
DWIDTH 14 0
BBX 10 14 2 0
BITMAP
FFC0
8040
8040
8040
8040
8040
8040
8040
8040
8040
8040
8040
8040
8040
ENDCHAR
STARTCHAR 0420
ENCODING 1056
SWIDTH 600 0
DWIDTH 12 0
BBX 9 14 2 0
BITMAP
FE00
8100
8080
8080
8080
8080
8080
8100
FE00
8000
8000
8000
8000
8000
ENDCHAR
STARTCHAR 0421
ENCODING 1057
SWIDTH 600 0
DWIDTH 12 0
BBX 10 14 1 0
BITMAP
0F80
3040
6000
4000
8000
8000
8000
8000
8000
8000
4000
4000
3040
0F80
ENDCHAR
STARTCHAR 0422
ENCODING 1058
SWIDTH 550 0
DWIDTH 11 0
BBX 9 14 1 0
BITMAP
FF80
0800
0800
0800
0800
0800
0800
0800
0800
0800
0800
0800
0800
0800
ENDCHAR
STARTCHAR 0423
ENCODING 1059
SWIDTH 600 0
DWIDTH 12 0
BBX 10 14 1 0
BITMAP
8040
4080
4080
2080
2100
1100
1100
0A00
0A00
0400
0400
0800
1000
E000
ENDCHAR
STARTCHAR 0424
ENCODING 1060
SWIDTH 750 0
DWIDTH 15 0
BBX 13 15 1 0
BITMAP
0200
0200
1FC0
2220
4210
8208
8208
8208
8208
8208
4210
2220
1FC0
0200
0200
ENDCHAR
STARTCHAR 0425
ENCODING 1061
SWIDTH 600 0
DWIDTH 12 0
BBX 10 14 1 0
BITMAP
8040
4080
2100
2100
1200
1400
0C00
0C00
1E00
1200
2100
6100
4080
8040
ENDCHAR
STARTCHAR 0426
ENCODING 1062
SWIDTH 700 0
DWIDTH 14 0
BBX 11 18 2 -4
BITMAP
8040
8040
8040
8040
8040
8040
8040
8040
8040
8040
8040
8040
8040
FFE0
0020
0020
0020
0020
ENDCHAR
STARTCHAR 0427
ENCODING 1063
SWIDTH 600 0
DWIDTH 12 0
BBX 9 14 1 0
BITMAP
8080
8080
8080
8080
8080
8080
8080
4080
3F80
0080
0080
0080
0080
0080
ENDCHAR
STARTCHAR 0428
ENCODING 1064
SWIDTH 950 0
DWIDTH 19 0
BBX 15 14 2 0
BITMAP
8102
8102
8102
8102
8102
8102
8102
8102
8102
8102
8102
8102
8102
FFFE
ENDCHAR
STARTCHAR 0429
ENCODING 1065
SWIDTH 950 0
DWIDTH 19 0
BBX 16 18 2 -4
BITMAP
8102
8102
8102
8102
8102
8102
8102
8102
8102
8102
8102
8102
8102
FFFF
0001
0001
0001
0001
ENDCHAR
STARTCHAR 042A
ENCODING 1066
SWIDTH 700 0
DWIDTH 14 0
BBX 13 14 0 0
BITMAP
F800
0800
0800
0800
0800
0FC0
0830
0808
0808
0808
0808
0808
0830
0FC0
ENDCHAR
STARTCHAR 042B
ENCODING 1067
SWIDTH 750 0
DWIDTH 15 0
BBX 11 14 2 0
BITMAP
8020
8020
8020
8020
8020
FC20
8220
8120
8120
8120
8120
8120
8220
FC20
ENDCHAR
STARTCHAR 042C
ENCODING 1068
SWIDTH 600 0
DWIDTH 12 0
BBX 9 14 2 0
BITMAP
8000
8000
8000
8000
8000
FC00
8300
8080
8080
8080
8080
8080
8300
FC00
ENDCHAR
STARTCHAR 042D
ENCODING 1069
SWIDTH 600 0
DWIDTH 12 0
BBX 10 14 1 0
BITMAP
7C00
8300
0080
0080
0040
0040
1FC0
0040
0040
0040
0080
0080
8300
7C00
ENDCHAR
STARTCHAR 042E
ENCODING 1070
SWIDTH 950 0
DWIDTH 19 0
BBX 16 14 2 0
BITMAP
80F0
830C
8402
8402
8801
8801
F801
8801
8801
8801
8402
8402
830C
80F0
ENDCHAR
STARTCHAR 042F
ENCODING 1071
SWIDTH 600 0
DWIDTH 12 0
BBX 9 14 1 0
BITMAP
1F80
2080
4080
4080
4080
4080
2080
1F80
1080
2080
2080
4080
4080
8080
ENDCHAR
STARTCHAR 0430
ENCODING 1072
SWIDTH 500 0
DWIDTH 10 0
BBX 7 11 1 0
BITMAP
78
04
02
02
3E
42
82
82
82
42
3E
ENDCHAR
STARTCHAR 0431
ENCODING 1073
SWIDTH 600 0
DWIDTH 12 0
BBX 10 16 1 0
BITMAP
0380
1C00
2000
4000
4000
9E00
E100
8080
8040
8040
8040
8040
8040
4080
2100
1E00
ENDCHAR
STARTCHAR 0432
ENCODING 1074
SWIDTH 550 0
DWIDTH 11 0
BBX 8 11 2 0
BITMAP
FC
82
81
81
82
FC
82
81
81
82
FC
ENDCHAR
STARTCHAR 0433
ENCODING 1075
SWIDTH 450 0
DWIDTH 9 0
BBX 6 11 2 0
BITMAP
FC
80
80
80
80
80
80
80
80
80
80
ENDCHAR
STARTCHAR 0434
ENCODING 1076
SWIDTH 550 0
DWIDTH 11 0
BBX 9 14 1 -3
BITMAP
1F00
1100
1100
1100
1100
1100
2100
2100
2100
4100
FF80
8080
8080
8080
ENDCHAR
STARTCHAR 0435
ENCODING 1077
SWIDTH 550 0
DWIDTH 11 0
BBX 9 11 1 0
BITMAP
1C00
2200
4100
8080
8080
FF80
8000
8000
4000
2100
1E00
ENDCHAR
STARTCHAR 0436
ENCODING 1078
SWIDTH 750 0
DWIDTH 15 0
BBX 15 11 0 0
BITMAP
4104
2108
1110
0960
0580
0300
07C0
0920
3118
4104
8102
ENDCHAR
STARTCHAR 0437
ENCODING 1079
SWIDTH 500 0
DWIDTH 10 0
BBX 8 11 1 0
BITMAP
7C
82
01
01
02
3C
02
01
01
82
FC
ENDCHAR
STARTCHAR 0438
ENCODING 1080
SWIDTH 600 0
DWIDTH 12 0
BBX 8 11 2 0
BITMAP
81
83
85
89
89
91
91
A1
C1
C1
81
ENDCHAR
STARTCHAR 0439
ENCODING 1081
SWIDTH 600 0
DWIDTH 12 0
BBX 8 15 2 0
BITMAP
22
22
1C
00
81
83
85
89
89
91
91
A1
C1
C1
81
ENDCHAR
STARTCHAR 043A
ENCODING 1082
SWIDTH 500 0
DWIDTH 10 0
BBX 8 11 2 0
BITMAP
83
84
88
90
A0
C0
B0
88
84
82
81
ENDCHAR
STARTCHAR 043B
ENCODING 1083
SWIDTH 600 0
DWIDTH 12 0
BBX 10 11 0 0
BITMAP
1FC0
1040
1040
1040
1040
1040
1040
2040
2040
4040
8040
ENDCHAR
STARTCHAR 043C
ENCODING 1084
SWIDTH 750 0
DWIDTH 15 0
BBX 11 11 2 0
BITMAP
4040
60C0
60C0
A140
9120
9120
8A20
8A20
8A20
8420
8020
ENDCHAR
STARTCHAR 043D
ENCODING 1085
SWIDTH 600 0
DWIDTH 12 0
BBX 8 11 2 0
BITMAP
81
81
81
81
81
FF
81
81
81
81
81
ENDCHAR
STARTCHAR 043E
ENCODING 1086
SWIDTH 600 0
DWIDTH 12 0
BBX 10 11 1 0
BITMAP
1E00
2100
4080
8040
8040
8040
8040
8040
4080
2100
1E00
ENDCHAR
STARTCHAR 043F
ENCODING 1087
SWIDTH 550 0
DWIDTH 11 0
BBX 7 11 2 0
BITMAP
FE
82
82
82
82
82
82
82
82
82
82
ENDCHAR
STARTCHAR 0440
ENCODING 1088
SWIDTH 600 0
DWIDTH 12 0
BBX 9 15 2 -4
BITMAP
FC00
8200
8100
8080
8080
8080
8080
8080
8100
C200
BC00
8000
8000
8000
8000
ENDCHAR
STARTCHAR 0441
ENCODING 1089
SWIDTH 450 0
DWIDTH 9 0
BBX 7 11 1 0
BITMAP
1C
22
40
80
80
80
80
80
40
22
1C
ENDCHAR
STARTCHAR 0442
ENCODING 1090
SWIDTH 450 0
DWIDTH 9 0
BBX 7 11 1 0
BITMAP
FE
10
10
10
10
10
10
10
10
10
10
ENDCHAR
STARTCHAR 0443
ENCODING 1091
SWIDTH 450 0
DWIDTH 9 0
BBX 7 15 1 -4
BITMAP
82
82
44
44
44
44
28
28
28
28
10
10
10
20
C0
ENDCHAR
STARTCHAR 0444
ENCODING 1092
SWIDTH 750 0
DWIDTH 15 0
BBX 13 20 1 -4
BITMAP
0200
0200
0200
0200
0200
1FC0
2220
4210
8208
8208
8208
8208
8208
4210
2220
1FC0
0200
0200
0200
0200
ENDCHAR
STARTCHAR 0445
ENCODING 1093
SWIDTH 550 0
DWIDTH 11 0
BBX 9 11 1 0
BITMAP
8080
4100
2200
1400
1400
0800
1400
1200
2200
4100
8080
ENDCHAR
STARTCHAR 0446
ENCODING 1094
SWIDTH 600 0
DWIDTH 12 0
BBX 9 14 2 -3
BITMAP
8100
8100
8100
8100
8100
8100
8100
8100
8100
8100
FF80
0080
0080
0080
ENDCHAR
STARTCHAR 0447
ENCODING 1095
SWIDTH 500 0
DWIDTH 10 0
BBX 7 11 1 0
BITMAP
82
82
82
82
82
42
3E
02
02
02
02
ENDCHAR
STARTCHAR 0448
ENCODING 1096
SWIDTH 850 0
DWIDTH 17 0
BBX 13 11 2 0
BITMAP
8208
8208
8208
8208
8208
8208
8208
8208
8208
8208
FFF8
ENDCHAR
STARTCHAR 0449
ENCODING 1097
SWIDTH 850 0
DWIDTH 17 0
BBX 14 14 2 -3
BITMAP
8208
8208
8208
8208
8208
8208
8208
8208
8208
8208
FFFC
0004
0004
0004
ENDCHAR
STARTCHAR 044A
ENCODING 1098
SWIDTH 600 0
DWIDTH 12 0
BBX 11 11 0 0
BITMAP
F000
1000
1000
1000
1F80
1040
1020
1020
1020
1040
1F80
ENDCHAR
STARTCHAR 044B
ENCODING 1099
SWIDTH 700 0
DWIDTH 14 0
BBX 10 11 2 0
BITMAP
8040
8040
8040
8040
F840
8440
8240
8240
8240
8440
F840
ENDCHAR
STARTCHAR 044C
ENCODING 1100
SWIDTH 500 0
DWIDTH 10 0
BBX 7 11 2 0
BITMAP
80
80
80
80
F8
84
82
82
82
84
F8
ENDCHAR
STARTCHAR 044D
ENCODING 1101
SWIDTH 500 0
DWIDTH 10 0
BBX 8 11 1 0
BITMAP
78
84
02
02
01
3F
01
02
02
04
78
ENDCHAR
STARTCHAR 044E
ENCODING 1102
SWIDTH 800 0
DWIDTH 16 0
BBX 13 11 2 0
BITMAP
83C0
8420
8810
9008
9008
F008
9008
9008
8810
8420
83C0
ENDCHAR
STARTCHAR 044F
ENCODING 1103
SWIDTH 550 0
DWIDTH 11 0
BBX 8 11 1 0
BITMAP
1F
21
41
41
41
21
1F
21
41
41
81
ENDCHAR
STARTCHAR 0450
ENCODING 1104
SWIDTH 550 0
DWIDTH 11 0
BBX 9 16 1 0
BITMAP
2000
1000
0800
0400
0000
1C00
2200
4100
8080
8080
FF80
8000
8000
4000
2100
1E00
ENDCHAR
STARTCHAR 0451
ENCODING 1105
SWIDTH 550 0
DWIDTH 11 0
BBX 9 15 1 0
BITMAP
1200
1200
0000
0000
1C00
2200
4100
8080
8080
FF80
8000
8000
4000
2100
1E00
ENDCHAR
STARTCHAR 0452
ENCODING 1106
SWIDTH 600 0
DWIDTH 12 0
BBX 10 20 0 -4
BITMAP
2000
2000
FE00
2000
2000
3F00
2080
2040
2040
2040
2040
2040
2040
2040
2040
2040
0040
0040
0040
0180
ENDCHAR
STARTCHAR 0453
ENCODING 1107
SWIDTH 450 0
DWIDTH 9 0
BBX 6 16 2 0
BITMAP
04
08
10
20
00
FC
80
80
80
80
80
80
80
80
80
80
ENDCHAR
STARTCHAR 0454
ENCODING 1108
SWIDTH 450 0
DWIDTH 9 0
BBX 6 11 1 0
BITMAP
0C
30
40
80
80
F8
80
80
40
20
1C
ENDCHAR
STARTCHAR 0455
ENCODING 1109
SWIDTH 450 0
DWIDTH 9 0
BBX 7 11 1 0
BITMAP
38
44
80
80
40
38
04
02
02
84
78
ENDCHAR
STARTCHAR 0456
ENCODING 1110
SWIDTH 250 0
DWIDTH 5 0
BBX 1 14 2 0
BITMAP
80
80
00
80
80
80
80
80
80
80
80
80
80
80
ENDCHAR
STARTCHAR 0457
ENCODING 1111
SWIDTH 250 0
DWIDTH 5 0
BBX 4 15 0 0
BITMAP
90
90
00
00
20
20
20
20
20
20
20
20
20
20
20
ENDCHAR
STARTCHAR 0458
ENCODING 1112
SWIDTH 250 0
DWIDTH 5 0
BBX 4 18 -1 -4
BITMAP
10
10
00
10
10
10
10
10
10
10
10
10
10
10
10
10
10
E0
ENDCHAR
STARTCHAR 0459
ENCODING 1113
SWIDTH 850 0
DWIDTH 17 0
BBX 16 11 0 0
BITMAP
1F80
1080
1080
1080
10FC
1082
1081
2081
2081
4082
80FC
ENDCHAR
STARTCHAR 045A
ENCODING 1114
SWIDTH 850 0
DWIDTH 17 0
BBX 14 11 2 0
BITMAP
8100
8100
8100
8100
81F0
FF08
8104
8104
8104
8108
81F0
ENDCHAR
STARTCHAR 045B
ENCODING 1115
SWIDTH 600 0
DWIDTH 12 0
BBX 10 16 0 0
BITMAP
2000
2000
FE00
2000
2000
3F00
2080
2040
2040
2040
2040
2040
2040
2040
2040
2040
ENDCHAR
STARTCHAR 045C
ENCODING 1116
SWIDTH 500 0
DWIDTH 10 0
BBX 8 16 2 0
BITMAP
04
08
10
20
00
83
84
88
90
A0
C0
B0
88
84
82
81
ENDCHAR
STARTCHAR 045D
ENCODING 1117
SWIDTH 600 0
DWIDTH 12 0
BBX 8 16 2 0
BITMAP
40
20
10
08
00
81
83
85
89
89
91
91
A1
C1
C1
81
ENDCHAR
STARTCHAR 045E
ENCODING 1118
SWIDTH 450 0
DWIDTH 9 0
BBX 7 19 1 -4
BITMAP
44
44
38
00
82
82
44
44
44
44
28
28
28
28
10
10
10
20
C0
ENDCHAR
STARTCHAR 045F
ENCODING 1119
SWIDTH 550 0
DWIDTH 11 0
BBX 7 13 2 -3
BITMAP
82
82
82
82
82
82
82
82
82
FE
10
10
10
ENDCHAR
STARTCHAR 0462
ENCODING 1122
SWIDTH 700 0
DWIDTH 14 0
BBX 13 14 0 0
BITMAP
0800
0800
FFC0
0800
0800
0800
0FC0
0830
0808
0808
0808
0808
0830
0FC0
ENDCHAR
STARTCHAR 0463
ENCODING 1123
SWIDTH 600 0
DWIDTH 12 0
BBX 11 16 0 0
BITMAP
1000
1000
1000
1000
1000
FF00
1000
1000
1000
1F80
1040
1020
1020
1020
1040
1F80
ENDCHAR
STARTCHAR 0472
ENCODING 1138
SWIDTH 750 0
DWIDTH 15 0
BBX 13 14 1 0
BITMAP
0F80
3060
4010
4010
8008
8008
BE18
C1E8
8008
8008
4010
4010
3060
0F80
ENDCHAR
STARTCHAR 0473
ENCODING 1139
SWIDTH 600 0
DWIDTH 12 0
BBX 10 11 1 0
BITMAP
1E00
2100
4080
8040
B040
CCC0
8340
8040
4080
2100
1E00
ENDCHAR
STARTCHAR 0474
ENCODING 1140
SWIDTH 800 0
DWIDTH 16 0
BBX 15 14 1 0
BITMAP
800C
4012
4020
2020
2020
2040
1040
1080
0880
0880
0500
0500
0200
0200
ENDCHAR
STARTCHAR 0475
ENCODING 1141
SWIDTH 600 0
DWIDTH 12 0
BBX 11 11 1 0
BITMAP
80E0
4100
4100
4100
2200
2200
2200
1400
1400
1400
0800
ENDCHAR
STARTCHAR 048A
ENCODING 1162
SWIDTH 700 0
DWIDTH 14 0
BBX 11 22 2 -4
BITMAP
1100
1100
0E00
0000
8040
80C0
80C0
8140
8240
8440
8440
8840
9040
9040
A040
C040
C040
8060
0020
0020
0040
0080
ENDCHAR
STARTCHAR 048B
ENCODING 1163
SWIDTH 600 0
DWIDTH 12 0
BBX 9 20 2 -4
BITMAP
4400
4400
3800
0000
0000
8100
8300
8500
8500
8900
9100
9100
A100
A100
C100
8180
0080
0080
0100
0200
ENDCHAR
STARTCHAR 048C
ENCODING 1164
SWIDTH 600 0
DWIDTH 12 0
BBX 11 14 0 0
BITMAP
2000
2000
FC00
2000
2000
3F00
20C0
2020
2020
2020
2020
2020
20C0
3F00
ENDCHAR
STARTCHAR 048D
ENCODING 1165
SWIDTH 500 0
DWIDTH 10 0
BBX 9 11 0 0
BITMAP
2000
FC00
2000
2000
3E00
2100
2080
2080
2080
2100
3E00
ENDCHAR
STARTCHAR 048E
ENCODING 1166
SWIDTH 600 0
DWIDTH 12 0
BBX 9 14 2 0
BITMAP
FE00
8100
8080
8080
8080
8880
8880
8500
FE00
8200
8200
8000
8000
8000
ENDCHAR
STARTCHAR 048F
ENCODING 1167
SWIDTH 600 0
DWIDTH 12 0
BBX 9 15 2 -4
BITMAP
FC00
8200
8100
8100
8080
8080
8080
9080
8900
C600
BC00
8200
8100
8000
8000
ENDCHAR
STARTCHAR 0490
ENCODING 1168
SWIDTH 500 0
DWIDTH 10 0
BBX 7 17 2 0
BITMAP
02
02
02
FE
80
80
80
80
80
80
80
80
80
80
80
80
80
ENDCHAR
STARTCHAR 0491
ENCODING 1169
SWIDTH 450 0
DWIDTH 9 0
BBX 6 14 2 0
BITMAP
04
04
04
FC
80
80
80
80
80
80
80
80
80
80
ENDCHAR
STARTCHAR 0492
ENCODING 1170
SWIDTH 550 0
DWIDTH 11 0
BBX 10 14 0 0
BITMAP
3FC0
2000
2000
2000
2000
2000
FC00
2000
2000
2000
2000
2000
2000
2000
ENDCHAR
STARTCHAR 0493
ENCODING 1171
SWIDTH 450 0
DWIDTH 9 0
BBX 8 11 0 0
BITMAP
3F
20
20
20
20
20
FC
20
20
20
20
ENDCHAR
STARTCHAR 0494
ENCODING 1172
SWIDTH 600 0
DWIDTH 12 0
BBX 9 18 2 -4
BITMAP
FE00
8000
8000
8000
8000
FC00
8200
8100
8080
8080
8080
8080
8080
8080
0080
0100
0200
1C00
ENDCHAR
STARTCHAR 0495
ENCODING 1173
SWIDTH 550 0
DWIDTH 11 0
BBX 8 15 2 -4
BITMAP
FC
80
80
80
FC
82
81
81
81
81
81
01
02
02
1C
ENDCHAR
STARTCHAR 0496
ENCODING 1174
SWIDTH 900 0
DWIDTH 18 0
BBX 18 18 0 -4
BITMAP
408100
208200
108400
088800
04B000
02C000
01C000
03A000
049000
088800
108400
208200
408100
8080C0
000040
000040
000040
000040
ENDCHAR
STARTCHAR 0497
ENCODING 1175
SWIDTH 750 0
DWIDTH 15 0
BBX 14 14 1 -3
BITMAP
8208
4210
2220
12C0
0B00
0600
0F80
1240
2220
4210
820C
0004
0004
0004
ENDCHAR
STARTCHAR 0498
ENCODING 1176
SWIDTH 550 0
DWIDTH 11 0
BBX 9 18 1 -4
BITMAP
7C00
8200
0100
0100
0100
0200
3C00
0300
0080
0080
0080
0080
8100
7E00
0800
0800
0800
1800
ENDCHAR
STARTCHAR 0499
ENCODING 1177
SWIDTH 500 0
DWIDTH 10 0
BBX 8 15 1 -4
BITMAP
7C
82
01
01
02
3C
02
01
01
82
7C
10
10
10
30
ENDCHAR
STARTCHAR 049A
ENCODING 1178
SWIDTH 650 0
DWIDTH 13 0
BBX 11 18 2 -4
BITMAP
8040
8180
8200
8400
8800
B000
C000
A000
9800
8400
8200
8100
8080
8060
0020
0020
0020
0020
ENDCHAR
STARTCHAR 049B
ENCODING 1179
SWIDTH 550 0
DWIDTH 11 0
BBX 9 15 2 -4
BITMAP
8300
8400
8800
9000
A000
C000
B000
8800
8400
8200
8180
0080
0080
0080
0080
ENDCHAR
STARTCHAR 049C
ENCODING 1180
SWIDTH 650 0
DWIDTH 13 0
BBX 11 14 2 0
BITMAP
8060
8080
8100
A200
A400
A800
F000
A800
A400
A200
8100
8080
8040
8020
ENDCHAR
STARTCHAR 049D
ENCODING 1181
SWIDTH 600 0
DWIDTH 12 0
BBX 10 11 2 0
BITMAP
8040
8080
8100
9200
9400
F800
9400
9200
8100
8080
8040
ENDCHAR
STARTCHAR 049E
ENCODING 1182
SWIDTH 600 0
DWIDTH 12 0
BBX 12 14 0 0
BITMAP
2010
2060
F880
2100
2200
2C00
3000
2800
2600
2100
2080
2040
2020
2010
ENDCHAR
STARTCHAR 049F
ENCODING 1183
SWIDTH 500 0
DWIDTH 10 0
BBX 10 11 0 0
BITMAP
2040
F980
2200
2400
2800
3000
2C00
2200
2100
2080
2040
ENDCHAR
STARTCHAR 04A0
ENCODING 1184
SWIDTH 700 0
DWIDTH 14 0
BBX 14 14 0 0
BITMAP
F804
0818
0820
0840
0880
0B00
0C00
0A00
0980
0840
0820
0810
0808
0804
ENDCHAR
STARTCHAR 04A1
ENCODING 1185
SWIDTH 550 0
DWIDTH 11 0
BBX 11 11 0 0
BITMAP
F020
10C0
1100
1200
1400
1800
1600
1100
1080
1040
1020
ENDCHAR
STARTCHAR 04A2
ENCODING 1186
SWIDTH 700 0
DWIDTH 14 0
BBX 11 18 2 -4
BITMAP
8040
8040
8040
8040
8040
8040
FFC0
8040
8040
8040
8040
8040
8040
8060
0020
0020
0020
0020
ENDCHAR
STARTCHAR 04A3
ENCODING 1187
SWIDTH 600 0
DWIDTH 12 0
BBX 9 14 2 -3
BITMAP
8100
8100
8100
8100
8100
FF00
8100
8100
8100
8100
8180
0080
0080
0080
ENDCHAR
STARTCHAR 04A4
ENCODING 1188
SWIDTH 800 0
DWIDTH 16 0
BBX 14 14 2 0
BITMAP
807C
8040
8040
8040
8040
8040
FFC0
8040
8040
8040
8040
8040
8040
8040
ENDCHAR
STARTCHAR 04A5
ENCODING 1189
SWIDTH 650 0
DWIDTH 13 0
BBX 11 11 2 0
BITMAP
81E0
8100
8100
8100
8100
FF00
8100
8100
8100
8100
8100
ENDCHAR
STARTCHAR 04A6
ENCODING 1190
SWIDTH 1000 0
DWIDTH 20 0
BBX 17 18 2 -4
BITMAP
FF8000
808000
808000
808000
808000
80FC00
808200
808100
808100
808080
808080
808080
808080
808080
000100
000100
000200
001C00
ENDCHAR
STARTCHAR 04A7
ENCODING 1191
SWIDTH 850 0
DWIDTH 17 0
BBX 14 15 2 -4
BITMAP
FE00
8200
8200
8200
83F0
8208
8204
8204
8204
8204
8204
0004
0008
0008
0070
ENDCHAR
STARTCHAR 04A8
ENCODING 1192
SWIDTH 750 0
DWIDTH 15 0
BBX 13 17 1 -3
BITMAP
0FC0
3000
4000
4000
81E0
8210
8408
8408
8408
8408
4410
4430
3460
0F80
0200
0180
0070
ENDCHAR
STARTCHAR 04A9
ENCODING 1193
SWIDTH 600 0
DWIDTH 12 0
BBX 10 14 1 -3
BITMAP
1C00
2000
4000
8300
8480
8840
8840
8840
4880
2900
1E00
0400
0300
00C0
ENDCHAR
STARTCHAR 04AA
ENCODING 1194
SWIDTH 600 0
DWIDTH 12 0
BBX 10 18 1 -4
BITMAP
0F80
3040
6000
4000
8000
8000
8000
8000
8000
8000
4000
4000
3040
0F80
0200
0200
0200
0600
ENDCHAR
STARTCHAR 04AB
ENCODING 1195
SWIDTH 450 0
DWIDTH 9 0
BBX 7 15 1 -4
BITMAP
1C
22
40
80
80
80
80
80
40
22
1C
08
08
08
18
ENDCHAR
STARTCHAR 04AC
ENCODING 1196
SWIDTH 550 0
DWIDTH 11 0
BBX 9 18 1 -4
BITMAP
FF80
0800
0800
0800
0800
0800
0800
0800
0800
0800
0800
0800
0800
0C00
0400
0400
0400
0400
ENDCHAR
STARTCHAR 04AD
ENCODING 1197
SWIDTH 450 0
DWIDTH 9 0
BBX 7 14 1 -3
BITMAP
FE
10
10
10
10
10
10
10
10
10
18
08
08
08
ENDCHAR
STARTCHAR 04AE
ENCODING 1198
SWIDTH 650 0
DWIDTH 13 0
BBX 11 14 1 0
BITMAP
8020
4040
4040
2080
1100
1100
0A00
0400
0400
0400
0400
0400
0400
0400
ENDCHAR
STARTCHAR 04AF
ENCODING 1199
SWIDTH 500 0
DWIDTH 10 0
BBX 9 15 0 -4
BITMAP
8080
8080
4100
4100
4100
2200
2200
1400
1400
1400
0800
0800
0800
0800
0800
ENDCHAR
STARTCHAR 04B0
ENCODING 1200
SWIDTH 650 0
DWIDTH 13 0
BBX 11 14 1 0
BITMAP
8020
4040
4040
2080
1100
1100
0A00
0400
3F80
0400
0400
0400
0400
0400
ENDCHAR
STARTCHAR 04B1
ENCODING 1201
SWIDTH 550 0
DWIDTH 11 0
BBX 9 15 1 -4
BITMAP
8080
4100
4100
4100
2200
2200
2200
1400
1400
1400
7F00
0800
0800
0800
0800
ENDCHAR
STARTCHAR 04B2
ENCODING 1202
SWIDTH 600 0
DWIDTH 12 0
BBX 11 18 1 -4
BITMAP
8040
4080
2100
2100
1200
1400
0C00
0C00
1200
1200
2100
2080
4080
8060
0020
0020
0020
0020
ENDCHAR
STARTCHAR 04B3
ENCODING 1203
SWIDTH 550 0
DWIDTH 11 0
BBX 10 14 1 -3
BITMAP
8080
4100
2200
1400
1400
0800
1400
1200
2200
4100
80C0
0040
0040
0040
ENDCHAR
STARTCHAR 04B4
ENCODING 1204
SWIDTH 900 0
DWIDTH 18 0
BBX 15 18 1 -4
BITMAP
FFC4
0804
0804
0804
0804
0804
0804
0804
0804
0804
0804
0804
0804
0FFE
0002
0002
0002
0002
ENDCHAR
STARTCHAR 04B5
ENCODING 1205
SWIDTH 650 0
DWIDTH 13 0
BBX 11 14 1 -3
BITMAP
FE40
1040
1040
1040
1040
1040
1040
1040
1040
1040
1FE0
0020
0020
0020
ENDCHAR
STARTCHAR 04B6
ENCODING 1206
SWIDTH 600 0
DWIDTH 12 0
BBX 10 18 1 -4
BITMAP
8080
8080
8080
8080
8080
8080
8080
4080
3F80
0080
0080
0080
0080
00C0
0040
0040
0040
0040
ENDCHAR
STARTCHAR 04B7
ENCODING 1207
SWIDTH 500 0
DWIDTH 10 0
BBX 8 14 1 -3
BITMAP
82
82
82
82
82
42
3E
02
02
02
03
01
01
01
ENDCHAR
STARTCHAR 04B8
ENCODING 1208
SWIDTH 650 0
DWIDTH 13 0
BBX 10 14 1 0
BITMAP
8040
8040
8040
8040
8040
8840
8840
4840
3FC0
0840
0840
0840
0040
0040
ENDCHAR
STARTCHAR 04B9
ENCODING 1209
SWIDTH 500 0
DWIDTH 10 0
BBX 7 11 1 0
BITMAP
82
82
82
82
92
52
3E
12
12
02
02
ENDCHAR
STARTCHAR 04BA
ENCODING 1210
SWIDTH 600 0
DWIDTH 12 0
BBX 9 14 2 0
BITMAP
8000
8000
8000
8000
8000
FE00
8100
8080
8080
8080
8080
8080
8080
8080
ENDCHAR
STARTCHAR 04BB
ENCODING 1211
SWIDTH 600 0
DWIDTH 12 0
BBX 8 16 2 0
BITMAP
80
80
80
80
80
FC
82
81
81
81
81
81
81
81
81
81
ENDCHAR
STARTCHAR 04BC
ENCODING 1212
SWIDTH 800 0
DWIDTH 16 0
BBX 15 14 0 0
BITMAP
01F0
0608
0804
8802
9002
9002
7FFE
1000
1000
1000
0800
0800
0604
01F8
ENDCHAR
STARTCHAR 04BD
ENCODING 1213
SWIDTH 650 0
DWIDTH 13 0
BBX 12 11 0 0
BITMAP
0380
0440
8820
9010
5010
3FF0
1000
1000
0800
0400
03C0
ENDCHAR
STARTCHAR 04BE
ENCODING 1214
SWIDTH 800 0
DWIDTH 16 0
BBX 15 18 0 -4
BITMAP
01F0
0608
0804
8802
9002
9002
7FFE
1000
1000
1000
0800
0800
0604
01F8
0040
0040
0040
0040
ENDCHAR
STARTCHAR 04BF
ENCODING 1215
SWIDTH 650 0
DWIDTH 13 0
BBX 12 13 0 -2
BITMAP
07C0
8820
9010
5010
3FF0
1000
1000
0800
0400
03C0
0100
0100
0100
ENDCHAR
STARTCHAR 04C0
ENCODING 1216
SWIDTH 250 0
DWIDTH 5 0
BBX 1 14 2 0
BITMAP
80
80
80
80
80
80
80
80
80
80
80
80
80
80
ENDCHAR
STARTCHAR 04C1
ENCODING 1217
SWIDTH 850 0
DWIDTH 17 0
BBX 17 18 0 0
BITMAP
022000
022000
01C000
000000
408100
208200
108400
088800
049000
02A000
01C000
03A000
049000
088800
108400
208200
408100
808080
ENDCHAR
STARTCHAR 04C2
ENCODING 1218
SWIDTH 750 0
DWIDTH 15 0
BBX 15 15 0 0
BITMAP
0440
0440
0380
0000
4104
2108
1110
0960
0580
0300
07C0
0920
3118
4104
8102
ENDCHAR
STARTCHAR 04C3
ENCODING 1219
SWIDTH 600 0
DWIDTH 12 0
BBX 9 18 2 -4
BITMAP
8100
8200
8400
8800
9000
A000
FC00
8200
8100
8080
8080
8080
8080
8080
0080
0100
0200
1C00
ENDCHAR
STARTCHAR 04C4
ENCODING 1220
SWIDTH 550 0
DWIDTH 11 0
BBX 8 15 2 -4
BITMAP
81
82
84
88
90
A0
FC
82
81
81
81
01
01
02
1C
ENDCHAR
STARTCHAR 04C5
ENCODING 1221
SWIDTH 700 0
DWIDTH 14 0
BBX 13 18 0 -4
BITMAP
0FF0
0810
0810
0810
0810
0810
0810
0810
0810
1010
1010
1010
2010
C018
0008
0008
0010
0020
ENDCHAR
STARTCHAR 04C6
ENCODING 1222
SWIDTH 600 0
DWIDTH 12 0
BBX 11 15 0 -4
BITMAP
1FC0
1040
1040
1040
1040
1040
1040
2040
2040
4040
8060
0020
0020
0040
0080
ENDCHAR
STARTCHAR 04C7
ENCODING 1223
SWIDTH 700 0
DWIDTH 14 0
BBX 10 18 2 -4
BITMAP
8040
8040
8040
8040
8040
8040
FFC0
8040
8040
8040
8040
8040
8040
8040
0040
0040
0040
0380
ENDCHAR
STARTCHAR 04C8
ENCODING 1224
SWIDTH 600 0
DWIDTH 12 0
BBX 8 15 2 -4
BITMAP
81
81
81
81
81
FF
81
81
81
81
81
01
01
01
06
ENDCHAR
STARTCHAR 04C9
ENCODING 1225
SWIDTH 700 0
DWIDTH 14 0
BBX 11 18 2 -4
BITMAP
8040
8040
8040
8040
8040
8040
FFC0
8040
8040
8040
8040
8040
8040
8060
0020
0020
0040
0080
ENDCHAR
STARTCHAR 04CA
ENCODING 1226
SWIDTH 600 0
DWIDTH 12 0
BBX 9 15 2 -4
BITMAP
8100
8100
8100
8100
8100
FF00
8100
8100
8100
8100
8180
0080
0080
0100
0200
ENDCHAR
STARTCHAR 04CB
ENCODING 1227
SWIDTH 600 0
DWIDTH 12 0
BBX 9 18 1 -4
BITMAP
8080
8080
8080
8080
8080
8080
8080
4080
3F80
0080
0080
0080
0080
0180
0100
0100
0100
0100
ENDCHAR
STARTCHAR 04CC
ENCODING 1228
SWIDTH 500 0
DWIDTH 10 0
BBX 7 14 1 -3
BITMAP
82
82
82
82
82
42
3E
02
02
02
06
04
04
04
ENDCHAR
STARTCHAR 04CD
ENCODING 1229
SWIDTH 950 0
DWIDTH 19 0
BBX 16 18 2 -4
BITMAP
4004
600C
600C
5014
5014
8824
8822
8442
8442
8282
8282
8102
8002
8003
0001
0001
0002
0004
ENDCHAR
STARTCHAR 04CE
ENCODING 1230
SWIDTH 750 0
DWIDTH 15 0
BBX 12 15 2 -4
BITMAP
4040
60C0
A0C0
A140
9120
9120
8A20
8A20
8A20
8420
8030
0010
0010
0020
0040
ENDCHAR
STARTCHAR 04CF
ENCODING 1231
SWIDTH 250 0
DWIDTH 5 0
BBX 1 14 2 0
BITMAP
80
80
80
80
80
80
80
80
80
80
80
80
80
80
ENDCHAR
STARTCHAR 04D0
ENCODING 1232
SWIDTH 650 0
DWIDTH 13 0
BBX 13 18 0 0
BITMAP
0880
0880
0700
0000
0200
0200
0500
0500
0880
0880
1040
1040
1040
3FE0
2020
4010
4010
8008
ENDCHAR
STARTCHAR 04D1
ENCODING 1233
SWIDTH 500 0
DWIDTH 10 0
BBX 7 15 1 0
BITMAP
44
44
38
00
78
04
02
02
3E
42
82
82
82
42
3E
ENDCHAR
STARTCHAR 04D2
ENCODING 1234
SWIDTH 650 0
DWIDTH 13 0
BBX 13 18 0 0
BITMAP
0900
0900
0000
0000
0200
0200
0500
0500
0880
0880
1040
1040
1040
3FE0
2020
4010
4010
8008
ENDCHAR
STARTCHAR 04D3
ENCODING 1235
SWIDTH 500 0
DWIDTH 10 0
BBX 7 15 1 0
BITMAP
24
24
00
00
78
04
02
02
3E
42
82
82
82
42
3E
ENDCHAR
STARTCHAR 04D4
ENCODING 1236
SWIDTH 900 0
DWIDTH 18 0
BBX 17 14 0 0
BITMAP
007F00
00C000
014000
024000
024000
044000
047E00
084000
104000
1FC000
204000
204000
404000
807F80
ENDCHAR
STARTCHAR 04D5
ENCODING 1237
SWIDTH 850 0
DWIDTH 17 0
BBX 15 11 1 0
BITMAP
78F8
0504
0202
0202
3E02
43FE
8200
8200
8300
4480
387C
ENDCHAR
STARTCHAR 04D6
ENCODING 1238
SWIDTH 550 0
DWIDTH 11 0
BBX 8 18 2 0
BITMAP
44
44
38
00
FE
80
80
80
80
80
FC
80
80
80
80
80
80
FF
ENDCHAR
STARTCHAR 04D7
ENCODING 1239
SWIDTH 550 0
DWIDTH 11 0
BBX 9 15 1 0
BITMAP
2200
2200
1C00
0000
1C00
2200
4100
8080
8080
FF80
8000
8000
4000
2100
1E00
ENDCHAR
STARTCHAR 04D8
ENCODING 1240
SWIDTH 700 0
DWIDTH 14 0
BBX 12 14 1 0
BITMAP
3F00
40C0
0020
0020
0010
0010
0010
FFF0
8010
8010
8020
4020
20C0
1F00
ENDCHAR
STARTCHAR 04D9
ENCODING 1241
SWIDTH 550 0
DWIDTH 11 0
BBX 9 11 1 0
BITMAP
3C00
0200
0100
0080
0080
FF80
8080
8080
4100
4200
3C00
ENDCHAR
STARTCHAR 04DA
ENCODING 1242
SWIDTH 700 0
DWIDTH 14 0
BBX 12 18 1 0
BITMAP
0900
0900
0000
0000
3F00
40C0
0020
0020
0010
0010
0010
FFF0
8010
8010
8020
4020
20C0
1F00
ENDCHAR
STARTCHAR 04DB
ENCODING 1243
SWIDTH 550 0
DWIDTH 11 0
BBX 9 15 1 0
BITMAP
2400
2400
0000
0000
3C00
0200
0100
0080
0080
FF80
8080
8080
4100
4200
3C00
ENDCHAR
STARTCHAR 04DC
ENCODING 1244
SWIDTH 850 0
DWIDTH 17 0
BBX 17 18 0 0
BITMAP
024000
024000
000000
000000
408100
208200
108400
088800
049000
02A000
01C000
03A000
049000
088800
108400
208200
408100
808080
ENDCHAR
STARTCHAR 04DD
ENCODING 1245
SWIDTH 750 0
DWIDTH 15 0
BBX 15 15 0 0
BITMAP
0480
0480
0000
0000
4104
2108
1110
0960
0580
0300
07C0
0920
3118
4104
8102
ENDCHAR
STARTCHAR 04DE
ENCODING 1246
SWIDTH 550 0
DWIDTH 11 0
BBX 9 18 1 0
BITMAP
2400
2400
0000
0000
7C00
8200
0100
0100
0100
0200
3C00
0300
0080
0080
0080
0080
8100
7E00
ENDCHAR
STARTCHAR 04DF
ENCODING 1247
SWIDTH 500 0
DWIDTH 10 0
BBX 8 15 1 0
BITMAP
24
24
00
00
7C
82
01
01
02
3C
02
01
01
82
FC
ENDCHAR
STARTCHAR 04E0
ENCODING 1248
SWIDTH 550 0
DWIDTH 11 0
BBX 9 14 1 0
BITMAP
7F80
0100
0100
0200
0400
0800
1E00
0100
0080
0080
0080
0080
8100
7E00
ENDCHAR
STARTCHAR 04E1
ENCODING 1249
SWIDTH 450 0
DWIDTH 9 0
BBX 8 15 0 -4
BITMAP
FF
02
02
04
08
10
3C
02
01
01
01
01
01
82
7C
ENDCHAR
STARTCHAR 04E2
ENCODING 1250
SWIDTH 700 0
DWIDTH 14 0
BBX 10 17 2 0
BITMAP
3F00
0000
0000
8040
80C0
80C0
8140
8240
8440
8440
8840
9040
9040
A040
C040
C040
8040
ENDCHAR
STARTCHAR 04E3
ENCODING 1251
SWIDTH 600 0
DWIDTH 12 0
BBX 8 14 2 0
BITMAP
7E
00
00
81
83
85
89
89
91
91
A1
C1
C1
81
ENDCHAR
STARTCHAR 04E4
ENCODING 1252
SWIDTH 700 0
DWIDTH 14 0
BBX 10 18 2 0
BITMAP
1200
1200
0000
0000
8040
80C0
80C0
8140
8240
8440
8440
8840
9040
9040
A040
C040
C040
8040
ENDCHAR
STARTCHAR 04E5
ENCODING 1253
SWIDTH 600 0
DWIDTH 12 0
BBX 8 15 2 0
BITMAP
24
24
00
00
81
83
85
89
89
91
91
A1
C1
C1
81
ENDCHAR
STARTCHAR 04E6
ENCODING 1254
SWIDTH 750 0
DWIDTH 15 0
BBX 13 18 1 0
BITMAP
0900
0900
0000
0000
0F80
3060
4010
4010
8008
8008
8008
8008
8008
8008
4010
4010
3060
0F80
ENDCHAR
STARTCHAR 04E7
ENCODING 1255
SWIDTH 600 0
DWIDTH 12 0
BBX 10 15 1 0
BITMAP
1200
1200
0000
0000
1E00
2100
4080
8040
8040
8040
8040
8040
4080
2100
1E00
ENDCHAR
STARTCHAR 04E8
ENCODING 1256
SWIDTH 750 0
DWIDTH 15 0
BBX 13 14 1 0
BITMAP
0F80
3060
4010
4010
8008
8008
FFF8
8008
8008
8008
4010
4010
3060
0F80
ENDCHAR
STARTCHAR 04E9
ENCODING 1257
SWIDTH 600 0
DWIDTH 12 0
BBX 10 11 1 0
BITMAP
1E00
2100
4080
8040
8040
FFC0
8040
8040
4080
2100
1E00
ENDCHAR
STARTCHAR 04EA
ENCODING 1258
SWIDTH 750 0
DWIDTH 15 0
BBX 13 18 1 0
BITMAP
0900
0900
0000
0000
0F80
3060
4010
4010
8008
8008
FFF8
8008
8008
8008
4010
4010
3060
0F80
ENDCHAR
STARTCHAR 04EB
ENCODING 1259
SWIDTH 600 0
DWIDTH 12 0
BBX 10 15 1 0
BITMAP
1200
1200
0000
0000
1E00
2100
4080
8040
8040
FFC0
8040
8040
4080
2100
1E00
ENDCHAR
STARTCHAR 04EC
ENCODING 1260
SWIDTH 600 0
DWIDTH 12 0
BBX 10 18 1 0
BITMAP
2400
2400
0000
0000
7C00
8300
0080
0080
0040
0040
1FC0
0040
0040
0040
0080
0080
8300
7C00
ENDCHAR
STARTCHAR 04ED
ENCODING 1261
SWIDTH 500 0
DWIDTH 10 0
BBX 8 15 1 0
BITMAP
48
48
00
00
78
84
02
02
01
3F
01
02
02
04
78
ENDCHAR
STARTCHAR 04EE
ENCODING 1262
SWIDTH 600 0
DWIDTH 12 0
BBX 10 17 1 0
BITMAP
3F00
0000
0000
8040
4080
4080
2080
2100
1100
1100
0A00
0A00
0400
0400
0800
1000
E000
ENDCHAR
STARTCHAR 04EF
ENCODING 1263
SWIDTH 450 0
DWIDTH 9 0
BBX 7 18 1 -4
BITMAP
7E
00
00
82
82
44
44
44
44
28
28
28
28
10
10
10
20
C0
ENDCHAR
STARTCHAR 04F0
ENCODING 1264
SWIDTH 600 0
DWIDTH 12 0
BBX 10 18 1 0
BITMAP
1200
1200
0000
0000
8040
4080
4080
2080
2100
1100
1100
0A00
0A00
0400
0400
0800
1000
E000
ENDCHAR
STARTCHAR 04F1
ENCODING 1265
SWIDTH 450 0
DWIDTH 9 0
BBX 7 19 1 -4
BITMAP
24
24
00
00
82
82
44
44
44
44
28
28
28
28
10
10
10
20
C0
ENDCHAR
STARTCHAR 04F2
ENCODING 1266
SWIDTH 600 0
DWIDTH 12 0
BBX 10 19 1 0
BITMAP
0240
0480
0900
1200
0000
8040
4080
4080
2080
2100
1100
1100
0A00
0A00
0400
0400
0800
1000
E000
ENDCHAR
STARTCHAR 04F3
ENCODING 1267
SWIDTH 450 0
DWIDTH 9 0
BBX 8 20 1 -4
BITMAP
09
12
24
48
00
82
82
44
44
44
44
28
28
28
28
10
10
10
20
C0
ENDCHAR
STARTCHAR 04F4
ENCODING 1268
SWIDTH 600 0
DWIDTH 12 0
BBX 9 18 1 0
BITMAP
2400
2400
0000
0000
8080
8080
8080
8080
8080
8080
8080
4080
3F80
0080
0080
0080
0080
0080
ENDCHAR
STARTCHAR 04F5
ENCODING 1269
SWIDTH 500 0
DWIDTH 10 0
BBX 7 15 1 0
BITMAP
48
48
00
00
82
82
82
82
82
42
3E
02
02
02
02
ENDCHAR
STARTCHAR 04F6
ENCODING 1270
SWIDTH 500 0
DWIDTH 10 0
BBX 7 18 2 -4
BITMAP
FE
80
80
80
80
80
80
80
80
80
80
80
80
C0
40
40
40
40
ENDCHAR
STARTCHAR 04F7
ENCODING 1271
SWIDTH 450 0
DWIDTH 9 0
BBX 6 14 2 -3
BITMAP
FC
80
80
80
80
80
80
80
80
80
C0
40
40
40
ENDCHAR
STARTCHAR 04F8
ENCODING 1272
SWIDTH 750 0
DWIDTH 15 0
BBX 11 18 2 0
BITMAP
2200
0200
0000
0000
8020
8020
8020
8020
8020
FC20
8220
8120
8120
8120
8120
8120
8220
FC20
ENDCHAR
STARTCHAR 04F9
ENCODING 1273
SWIDTH 700 0
DWIDTH 14 0
BBX 10 15 2 0
BITMAP
1200
1200
0000
0000
8040
8040
8040
8040
F840
8440
8240
8240
8240
8440
F840
ENDCHAR
STARTCHAR 1E80
ENCODING 7808
SWIDTH 950 0
DWIDTH 19 0
BBX 17 19 1 0
BITMAP
020000
010000
008000
004000
000000
800080
800080
408100
408100
414100
214200
214200
222200
222200
122400
141400
141400
080800
080800
ENDCHAR
STARTCHAR 1E81
ENCODING 7809
SWIDTH 850 0
DWIDTH 17 0
BBX 15 16 1 0
BITMAP
0400
0200
0100
0080
0000
8102
8104
4284
4284
2288
2488
2448
1450
1450
0830
0820
ENDCHAR
STARTCHAR 1E82
ENCODING 7810
SWIDTH 950 0
DWIDTH 19 0
BBX 17 19 1 0
BITMAP
002000
004000
008000
010000
000000
800080
800080
408100
408100
414100
214200
214200
222200
222200
122400
141400
141400
080800
080800
ENDCHAR
STARTCHAR 1E83
ENCODING 7811
SWIDTH 850 0
DWIDTH 17 0
BBX 15 16 1 0
BITMAP
0040
0080
0100
0200
0000
8102
8104
4284
4284
2288
2488
2448
1450
1450
0830
0820
ENDCHAR
STARTCHAR 1E84
ENCODING 7812
SWIDTH 950 0
DWIDTH 19 0
BBX 17 18 1 0
BITMAP
012000
012000
000000
000000
800080
800080
408100
408100
414100
214200
214200
222200
222200
122400
141400
141400
080800
080800
ENDCHAR
STARTCHAR 1E85
ENCODING 7813
SWIDTH 850 0
DWIDTH 17 0
BBX 15 15 1 0
BITMAP
0240
0240
0000
0000
8102
8104
4284
4284
2288
2488
2448
1450
1450
0830
0820
ENDCHAR
STARTCHAR 1EF2
ENCODING 7922
SWIDTH 650 0
DWIDTH 13 0
BBX 11 19 1 0
BITMAP
1000
0800
0400
0200
0000
8020
4040
4040
2080
1100
1100
0A00
0400
0400
0400
0400
0400
0400
0400
ENDCHAR
STARTCHAR 1EF3
ENCODING 7923
SWIDTH 450 0
DWIDTH 9 0
BBX 7 20 1 -4
BITMAP
40
20
10
08
00
82
82
44
44
44
44
28
28
28
28
10
10
10
20
C0
ENDCHAR
STARTCHAR 1F00
ENCODING 7936
SWIDTH 600 0
DWIDTH 12 0
BBX 11 16 1 0
BITMAP
0300
0100
0200
0C00
0000
1F80
2080
4080
8080
8080
8080
8080
8080
4080
2180
1E60
ENDCHAR
STARTCHAR 1F01
ENCODING 7937
SWIDTH 600 0
DWIDTH 12 0
BBX 11 16 1 0
BITMAP
0C00
0800
0400
0200
0000
1F80
2080
4080
8080
8080
8080
8080
8080
4080
2180
1E60
ENDCHAR
STARTCHAR 1F02
ENCODING 7938
SWIDTH 600 0
DWIDTH 12 0
BBX 11 16 1 0
BITMAP
3400
1200
2100
4080
0000
1F80
2080
4080
8080
8080
8080
8080
8080
4080
2180
1E60
ENDCHAR
STARTCHAR 1F03
ENCODING 7939
SWIDTH 600 0
DWIDTH 12 0
BBX 11 16 1 0
BITMAP
6800
4400
2200
1100
0000
1F80
2080
4080
8080
8080
8080
8080
8080
4080
2180
1E60
ENDCHAR
STARTCHAR 1F04
ENCODING 7940
SWIDTH 600 0
DWIDTH 12 0
BBX 11 16 1 0
BITMAP
1880
0900
1200
2400
0000
1F80
2080
4080
8080
8080
8080
8080
8080
4080
2180
1E60
ENDCHAR
STARTCHAR 1F05
ENCODING 7941
SWIDTH 600 0
DWIDTH 12 0
BBX 11 16 1 0
BITMAP
6080
4100
2200
1400
0000
1F80
2080
4080
8080
8080
8080
8080
8080
4080
2180
1E60
ENDCHAR
STARTCHAR 1F06
ENCODING 7942
SWIDTH 600 0
DWIDTH 12 0
BBX 11 18 1 0
BITMAP
0700
0880
0880
0400
0400
0800
0000
1F80
2080
4080
8080
8080
8080
8080
8080
4080
2180
1E60
ENDCHAR
STARTCHAR 1F07
ENCODING 7943
SWIDTH 600 0
DWIDTH 12 0
BBX 11 18 1 0
BITMAP
0C00
1600
2200
0C00
0C00
0C00
0000
1F80
2080
4080
8080
8080
8080
8080
8080
4080
2180
1E60
ENDCHAR
STARTCHAR 1F08
ENCODING 7944
SWIDTH 650 0
DWIDTH 13 0
BBX 13 15 0 0
BITMAP
3000
1200
2200
4500
0500
0880
0880
1040
1040
1040
3FE0
2020
4010
4010
8008
ENDCHAR
STARTCHAR 1F09
ENCODING 7945
SWIDTH 650 0
DWIDTH 13 0
BBX 13 15 0 0
BITMAP
6000
4200
2200
1500
0500
0880
0880
1040
1040
1040
3FE0
2020
4010
4010
8008
ENDCHAR
STARTCHAR 1F0A
ENCODING 7946
SWIDTH 750 0
DWIDTH 15 0
BBX 17 15 -2 0
BITMAP
600000
282000
442000
825000
005000
008800
008800
010400
010400
010400
03FE00
020200
040100
040100
080080
ENDCHAR
STARTCHAR 1F0B
ENCODING 7947
SWIDTH 750 0
DWIDTH 15 0
BBX 16 15 -1 0
BITMAP
C000
9040
4840
24A0
00A0
0110
0110
0208
0208
0208
07FC
0404
0802
0802
1001
ENDCHAR
STARTCHAR 1F0C
ENCODING 7948
SWIDTH 700 0
DWIDTH 14 0
BBX 15 15 -1 0
BITMAP
6200
2480
4880
9140
0140
0220
0220
0410
0410
0410
0FF8
0808
1004
1004
2002
ENDCHAR
STARTCHAR 1F0D
ENCODING 7949
SWIDTH 750 0
DWIDTH 15 0
BBX 16 15 -1 0
BITMAP
C100
8240
4440
28A0
00A0
0110
0110
0208
0208
0208
07FC
0404
0802
0802
1001
ENDCHAR
STARTCHAR 1F0E
ENCODING 7950
SWIDTH 650 0
DWIDTH 13 0
BBX 14 16 -1 0
BITMAP
7000
8800
8900
2100
2280
4280
0440
0440
0820
0820
0820
1FF0
1010
2008
2008
4004
ENDCHAR
STARTCHAR 1F0F
ENCODING 7951
SWIDTH 650 0
DWIDTH 13 0
BBX 14 16 -1 0
BITMAP
7000
8800
8900
2100
2280
0280
1440
0440
0820
0820
0820
1FF0
1010
2008
2008
4004
ENDCHAR
STARTCHAR 1F10
ENCODING 7952
SWIDTH 500 0
DWIDTH 10 0
BBX 8 16 1 0
BITMAP
0C
04
08
10
00
3C
40
80
80
40
3C
40
80
80
41
3E
ENDCHAR
STARTCHAR 1F11
ENCODING 7953
SWIDTH 500 0
DWIDTH 10 0
BBX 8 16 1 0
BITMAP
30
20
10
08
00
3C
40
80
80
40
3C
40
80
80
41
3E
ENDCHAR
STARTCHAR 1F12
ENCODING 7954
SWIDTH 500 0
DWIDTH 10 0
BBX 8 16 1 0
BITMAP
68
24
42
81
00
3C
40
80
80
40
3C
40
80
80
41
3E
ENDCHAR
STARTCHAR 1F13
ENCODING 7955
SWIDTH 500 0
DWIDTH 10 0
BBX 8 16 1 0
BITMAP
D0
88
44
22
00
3C
40
80
80
40
3C
40
80
80
41
3E
ENDCHAR
STARTCHAR 1F14
ENCODING 7956
SWIDTH 500 0
DWIDTH 10 0
BBX 8 16 1 0
BITMAP
31
12
24
48
00
3C
40
80
80
40
3C
40
80
80
41
3E
ENDCHAR
STARTCHAR 1F15
ENCODING 7957
SWIDTH 500 0
DWIDTH 10 0
BBX 8 16 1 0
BITMAP
C1
82
44
28
00
3C
40
80
80
40
3C
40
80
80
41
3E
ENDCHAR
STARTCHAR 1F18
ENCODING 7960
SWIDTH 600 0
DWIDTH 12 0
BBX 12 15 -1 0
BITMAP
6000
2FE0
4800
8800
0800
0800
0800
0FC0
0800
0800
0800
0800
0800
0800
0FF0
ENDCHAR
STARTCHAR 1F19
ENCODING 7961
SWIDTH 600 0
DWIDTH 12 0
BBX 12 15 -1 0
BITMAP
C000
8FE0
4800
2800
0800
0800
0800
0FC0
0800
0800
0800
0800
0800
0800
0FF0
ENDCHAR
STARTCHAR 1F1A
ENCODING 7962
SWIDTH 800 0
DWIDTH 16 0
BBX 17 15 -2 0
BITMAP
680000
247F00
424000
814000
004000
004000
004000
007E00
004000
004000
004000
004000
004000
004000
007F80
ENDCHAR
STARTCHAR 1F1B
ENCODING 7963
SWIDTH 800 0
DWIDTH 16 0
BBX 16 15 -1 0
BITMAP
D000
88FE
4480
2280
0080
0080
0080
00FC
0080
0080
0080
0080
0080
0080
00FF
ENDCHAR
STARTCHAR 1F1C
ENCODING 7964
SWIDTH 800 0
DWIDTH 16 0
BBX 16 15 -1 0
BITMAP
6200
24FE
4880
9080
0080
0080
0080
00FC
0080
0080
0080
0080
0080
0080
00FF
ENDCHAR
STARTCHAR 1F1D
ENCODING 7965
SWIDTH 800 0
DWIDTH 16 0
BBX 17 15 -2 0
BITMAP
C10000
827F00
444000
284000
004000
004000
004000
007E00
004000
004000
004000
004000
004000
004000
007F80
ENDCHAR
STARTCHAR 1F20
ENCODING 7968
SWIDTH 600 0
DWIDTH 12 0
BBX 8 20 2 -4
BITMAP
0C
04
08
10
00
FC
82
81
81
81
81
81
81
81
81
81
01
01
01
01
ENDCHAR
STARTCHAR 1F21
ENCODING 7969
SWIDTH 600 0
DWIDTH 12 0
BBX 8 20 2 -4
BITMAP
30
20
10
08
00
FC
82
81
81
81
81
81
81
81
81
81
01
01
01
01
ENDCHAR
STARTCHAR 1F22
ENCODING 7970
SWIDTH 600 0
DWIDTH 12 0
BBX 8 20 2 -4
BITMAP
68
24
42
81
00
FC
82
81
81
81
81
81
81
81
81
81
01
01
01
01
ENDCHAR
STARTCHAR 1F23
ENCODING 7971
SWIDTH 600 0
DWIDTH 12 0
BBX 8 20 2 -4
BITMAP
D0
88
44
22
00
FC
82
81
81
81
81
81
81
81
81
81
01
01
01
01
ENDCHAR
STARTCHAR 1F24
ENCODING 7972
SWIDTH 600 0
DWIDTH 12 0
BBX 8 20 2 -4
BITMAP
31
12
24
48
00
FC
82
81
81
81
81
81
81
81
81
81
01
01
01
01
ENDCHAR
STARTCHAR 1F25
ENCODING 7973
SWIDTH 600 0
DWIDTH 12 0
BBX 8 20 2 -4
BITMAP
C1
82
44
28
00
FC
82
81
81
81
81
81
81
81
81
81
01
01
01
01
ENDCHAR
STARTCHAR 1F26
ENCODING 7974
SWIDTH 600 0
DWIDTH 12 0
BBX 8 22 2 -4
BITMAP
0E
11
11
08
08
10
00
FC
82
81
81
81
81
81
81
81
81
81
01
01
01
01
ENDCHAR
STARTCHAR 1F27
ENCODING 7975
SWIDTH 600 0
DWIDTH 12 0
BBX 8 22 2 -4
BITMAP
0E
11
11
08
08
00
04
FC
82
81
81
81
81
81
81
81
81
81
01
01
01
01
ENDCHAR
STARTCHAR 1F28
ENCODING 7976
SWIDTH 750 0
DWIDTH 15 0
BBX 14 15 -1 0
BITMAP
6000
2804
4804
8804
0804
0804
0804
0FFC
0804
0804
0804
0804
0804
0804
0804
ENDCHAR
STARTCHAR 1F29
ENCODING 7977
SWIDTH 750 0
DWIDTH 15 0
BBX 14 15 -1 0
BITMAP
C000
8804
4804
2804
0804
0804
0804
0FFC
0804
0804
0804
0804
0804
0804
0804
ENDCHAR
STARTCHAR 1F2A
ENCODING 7978
SWIDTH 950 0
DWIDTH 19 0
BBX 19 15 -2 0
BITMAP
680000
244020
424020
814020
004020
004020
004020
007FE0
004020
004020
004020
004020
004020
004020
004020
ENDCHAR
STARTCHAR 1F2B
ENCODING 7979
SWIDTH 950 0
DWIDTH 19 0
BBX 18 15 -1 0
BITMAP
D00000
888040
448040
228040
008040
008040
008040
00FFC0
008040
008040
008040
008040
008040
008040
008040
ENDCHAR
STARTCHAR 1F2C
ENCODING 7980
SWIDTH 900 0
DWIDTH 18 0
BBX 18 15 -1 0
BITMAP
620000
248040
488040
908040
008040
008040
008040
00FFC0
008040
008040
008040
008040
008040
008040
008040
ENDCHAR
STARTCHAR 1F2D
ENCODING 7981
SWIDTH 950 0
DWIDTH 19 0
BBX 19 15 -2 0
BITMAP
C10000
824020
444020
284020
004020
004020
004020
007FE0
004020
004020
004020
004020
004020
004020
004020
ENDCHAR
STARTCHAR 1F2E
ENCODING 7982
SWIDTH 850 0
DWIDTH 17 0
BBX 17 16 -1 0
BITMAP
700000
880000
890080
210080
210080
410080
010080
010080
01FF80
010080
010080
010080
010080
010080
010080
010080
ENDCHAR
STARTCHAR 1F2F
ENCODING 7983
SWIDTH 850 0
DWIDTH 17 0
BBX 17 16 -1 0
BITMAP
700000
880000
890080
210080
210080
010080
110080
010080
01FF80
010080
010080
010080
010080
010080
010080
010080
ENDCHAR
STARTCHAR 1F30
ENCODING 7984
SWIDTH 300 0
DWIDTH 6 0
BBX 4 16 1 0
BITMAP
60
20
40
80
00
40
40
40
40
40
40
40
40
40
40
30
ENDCHAR
STARTCHAR 1F31
ENCODING 7985
SWIDTH 300 0
DWIDTH 6 0
BBX 4 16 1 0
BITMAP
C0
80
40
20
00
40
40
40
40
40
40
40
40
40
40
30
ENDCHAR
STARTCHAR 1F32
ENCODING 7986
SWIDTH 300 0
DWIDTH 6 0
BBX 8 16 -1 0
BITMAP
68
24
42
81
00
10
10
10
10
10
10
10
10
10
10
0C
ENDCHAR
STARTCHAR 1F33
ENCODING 7987
SWIDTH 300 0
DWIDTH 6 0
BBX 7 16 -1 0
BITMAP
D0
88
44
22
00
10
10
10
10
10
10
10
10
10
10
0C
ENDCHAR
STARTCHAR 1F34
ENCODING 7988
SWIDTH 300 0
DWIDTH 6 0
BBX 7 16 0 0
BITMAP
62
24
48
90
00
20
20
20
20
20
20
20
20
20
20
18
ENDCHAR
STARTCHAR 1F35
ENCODING 7989
SWIDTH 300 0
DWIDTH 6 0
BBX 8 16 -1 0
BITMAP
C1
82
44
28
00
10
10
10
10
10
10
10
10
10
10
0C
ENDCHAR
STARTCHAR 1F36
ENCODING 7990
SWIDTH 300 0
DWIDTH 6 0
BBX 5 18 0 0
BITMAP
70
88
88
20
20
40
00
20
20
20
20
20
20
20
20
20
20
18
ENDCHAR
STARTCHAR 1F37
ENCODING 7991
SWIDTH 300 0
DWIDTH 6 0
BBX 5 18 0 0
BITMAP
70
88
88
20
20
00
10
20
20
20
20
20
20
20
20
20
20
18
ENDCHAR
STARTCHAR 1F38
ENCODING 7992
SWIDTH 300 0
DWIDTH 6 0
BBX 5 15 -1 0
BITMAP
60
28
48
88
08
08
08
08
08
08
08
08
08
08
08
ENDCHAR
STARTCHAR 1F39
ENCODING 7993
SWIDTH 300 0
DWIDTH 6 0
BBX 5 15 -1 0
BITMAP
C0
88
48
28
08
08
08
08
08
08
08
08
08
08
08
ENDCHAR
STARTCHAR 1F3A
ENCODING 7994
SWIDTH 500 0
DWIDTH 10 0
BBX 10 15 -2 0
BITMAP
6800
2440
4240
8140
0040
0040
0040
0040
0040
0040
0040
0040
0040
0040
0040
ENDCHAR
STARTCHAR 1F3B
ENCODING 7995
SWIDTH 500 0
DWIDTH 10 0
BBX 9 15 -1 0
BITMAP
D000
8880
4480
2280
0080
0080
0080
0080
0080
0080
0080
0080
0080
0080
0080
ENDCHAR
STARTCHAR 1F3C
ENCODING 7996
SWIDTH 500 0
DWIDTH 10 0
BBX 9 15 -1 0
BITMAP
6200
2480
4880
9080
0080
0080
0080
0080
0080
0080
0080
0080
0080
0080
0080
ENDCHAR
STARTCHAR 1F3D
ENCODING 7997
SWIDTH 500 0
DWIDTH 10 0
BBX 10 15 -2 0
BITMAP
C100
8240
4440
2840
0040
0040
0040
0040
0040
0040
0040
0040
0040
0040
0040
ENDCHAR
STARTCHAR 1F3E
ENCODING 7998
SWIDTH 400 0
DWIDTH 8 0
BBX 8 16 -1 0
BITMAP
70
88
89
21
21
41
01
01
01
01
01
01
01
01
01
01
ENDCHAR
STARTCHAR 1F3F
ENCODING 7999
SWIDTH 400 0
DWIDTH 8 0
BBX 8 16 -1 0
BITMAP
70
88
89
21
21
01
11
01
01
01
01
01
01
01
01
01
ENDCHAR
STARTCHAR 1F40
ENCODING 8000
SWIDTH 600 0
DWIDTH 12 0
BBX 10 16 1 0
BITMAP
0600
0200
0400
0800
0000
1E00
2100
4080
8040
8040
8040
8040
8040
4080
2100
1E00
ENDCHAR
STARTCHAR 1F41
ENCODING 8001
SWIDTH 600 0
DWIDTH 12 0
BBX 10 16 1 0
BITMAP
1800
1000
0800
0400
0000
1E00
2100
4080
8040
8040
8040
8040
8040
4080
2100
1E00
ENDCHAR
STARTCHAR 1F42
ENCODING 8002
SWIDTH 600 0
DWIDTH 12 0
BBX 10 16 1 0
BITMAP
3400
1200
2100
4080
0000
1E00
2100
4080
8040
8040
8040
8040
8040
4080
2100
1E00
ENDCHAR
STARTCHAR 1F43
ENCODING 8003
SWIDTH 600 0
DWIDTH 12 0
BBX 10 16 1 0
BITMAP
6800
4400
2200
1100
0000
1E00
2100
4080
8040
8040
8040
8040
8040
4080
2100
1E00
ENDCHAR
STARTCHAR 1F44
ENCODING 8004
SWIDTH 600 0
DWIDTH 12 0
BBX 10 16 1 0
BITMAP
1880
0900
1200
2400
0000
1E00
2100
4080
8040
8040
8040
8040
8040
4080
2100
1E00
ENDCHAR
STARTCHAR 1F45
ENCODING 8005
SWIDTH 600 0
DWIDTH 12 0
BBX 10 16 1 0
BITMAP
6080
4100
2200
1400
0000
1E00
2100
4080
8040
8040
8040
8040
8040
4080
2100
1E00
ENDCHAR
STARTCHAR 1F48
ENCODING 8008
SWIDTH 800 0
DWIDTH 16 0
BBX 15 15 -1 0
BITMAP
6000
23E0
4C18
9004
1004
2002
2002
2002
2002
2002
2002
1004
1004
0C18
03E0
ENDCHAR
STARTCHAR 1F49
ENCODING 8009
SWIDTH 800 0
DWIDTH 16 0
BBX 16 15 -1 0
BITMAP
C000
81F0
460C
2802
0802
1001
1001
1001
1001
1001
1001
0802
0802
060C
01F0
ENDCHAR
STARTCHAR 1F4A
ENCODING 8010
SWIDTH 1000 0
DWIDTH 20 0
BBX 21 15 -2 0
BITMAP
680000
240F80
423060
814010
004010
008008
008008
008008
008008
008008
008008
004010
004010
003060
000F80
ENDCHAR
STARTCHAR 1F4B
ENCODING 8011
SWIDTH 1000 0
DWIDTH 20 0
BBX 19 15 -1 0
BITMAP
D00000
883E00
44C180
230040
010040
020020
020020
020020
020020
020020
020020
010040
010040
00C180
003E00
ENDCHAR
STARTCHAR 1F4C
ENCODING 8012
SWIDTH 950 0
DWIDTH 19 0
BBX 18 15 -1 0
BITMAP
620000
247C00
498300
920080
020080
040040
040040
040040
040040
040040
040040
020080
020080
018300
007C00
ENDCHAR
STARTCHAR 1F4D
ENCODING 8013
SWIDTH 950 0
DWIDTH 19 0
BBX 20 15 -2 0
BITMAP
C20000
861F00
4C60C0
308020
008020
010010
010010
010010
010010
010010
010010
008020
008020
0060C0
001F00
ENDCHAR
STARTCHAR 1F50
ENCODING 8016
SWIDTH 600 0
DWIDTH 12 0
BBX 8 16 2 0
BITMAP
0C
04
08
10
00
81
81
81
81
81
81
81
81
81
42
3C
ENDCHAR
STARTCHAR 1F51
ENCODING 8017
SWIDTH 600 0
DWIDTH 12 0
BBX 8 16 2 0
BITMAP
30
20
10
08
00
81
81
81
81
81
81
81
81
81
42
3C
ENDCHAR
STARTCHAR 1F52
ENCODING 8018
SWIDTH 600 0
DWIDTH 12 0
BBX 8 16 2 0
BITMAP
68
24
42
81
00
81
81
81
81
81
81
81
81
81
42
3C
ENDCHAR
STARTCHAR 1F53
ENCODING 8019
SWIDTH 600 0
DWIDTH 12 0
BBX 8 16 2 0
BITMAP
D0
88
44
22
00
81
81
81
81
81
81
81
81
81
42
3C
ENDCHAR
STARTCHAR 1F54
ENCODING 8020
SWIDTH 600 0
DWIDTH 12 0
BBX 8 16 2 0
BITMAP
31
12
24
48
00
81
81
81
81
81
81
81
81
81
42
3C
ENDCHAR
STARTCHAR 1F55
ENCODING 8021
SWIDTH 600 0
DWIDTH 12 0
BBX 8 16 2 0
BITMAP
C1
82
44
28
00
81
81
81
81
81
81
81
81
81
42
3C
ENDCHAR
STARTCHAR 1F56
ENCODING 8022
SWIDTH 600 0
DWIDTH 12 0
BBX 8 18 2 0
BITMAP
0E
11
11
08
08
10
00
81
81
81
81
81
81
81
81
81
42
3C
ENDCHAR
STARTCHAR 1F57
ENCODING 8023
SWIDTH 600 0
DWIDTH 12 0
BBX 8 18 2 0
BITMAP
0E
11
11
08
08
00
04
81
81
81
81
81
81
81
81
81
42
3C
ENDCHAR
STARTCHAR 1F59
ENCODING 8025
SWIDTH 650 0
DWIDTH 13 0
BBX 15 15 -1 0
BITMAP
C000
8802
4404
2404
0208
0110
0110
00A0
0040
0040
0040
0040
0040
0040
0040
ENDCHAR
STARTCHAR 1F5B
ENCODING 8027
SWIDTH 850 0
DWIDTH 17 0
BBX 18 15 -1 0
BITMAP
E00000
990040
4C8080
268080
004100
002200
002200
001400
000800
000800
000800
000800
000800
000800
000800
ENDCHAR
STARTCHAR 1F5D
ENCODING 8029
SWIDTH 900 0
DWIDTH 18 0
BBX 20 15 -2 0
BITMAP
C10000
824010
442020
282020
001040
000880
000880
000500
000200
000200
000200
000200
000200
000200
000200
ENDCHAR
STARTCHAR 1F5F
ENCODING 8031
SWIDTH 800 0
DWIDTH 16 0
BBX 18 16 -1 0
BITMAP
700000
880000
890040
208080
208080
004100
102200
002200
001400
000800
000800
000800
000800
000800
000800
000800
ENDCHAR
STARTCHAR 1F60
ENCODING 8032
SWIDTH 750 0
DWIDTH 15 0
BBX 13 16 1 0
BITMAP
0300
0100
0200
0400
0000
2020
4010
4210
8208
8208
8208
8208
8208
8208
4510
38E0
ENDCHAR
STARTCHAR 1F61
ENCODING 8033
SWIDTH 750 0
DWIDTH 15 0
BBX 13 16 1 0
BITMAP
0600
0400
0200
0100
0000
2020
4010
4210
8208
8208
8208
8208
8208
8208
4510
38E0
ENDCHAR
STARTCHAR 1F62
ENCODING 8034
SWIDTH 750 0
DWIDTH 15 0
BBX 13 16 1 0
BITMAP
1A00
0900
1080
2040
0000
2020
4010
4210
8208
8208
8208
8208
8208
8208
4510
38E0
ENDCHAR
STARTCHAR 1F63
ENCODING 8035
SWIDTH 750 0
DWIDTH 15 0
BBX 13 16 1 0
BITMAP
3400
2200
1100
0880
0000
2020
4010
4210
8208
8208
8208
8208
8208
8208
4510
38E0
ENDCHAR
STARTCHAR 1F64
ENCODING 8036
SWIDTH 750 0
DWIDTH 15 0
BBX 13 16 1 0
BITMAP
0620
0240
0480
0900
0000
2020
4010
4210
8208
8208
8208
8208
8208
8208
4510
38E0
ENDCHAR
STARTCHAR 1F65
ENCODING 8037
SWIDTH 750 0
DWIDTH 15 0
BBX 13 16 1 0
BITMAP
1820
1040
0880
0500
0000
2020
4010
4210
8208
8208
8208
8208
8208
8208
4510
38E0
ENDCHAR
STARTCHAR 1F66
ENCODING 8038
SWIDTH 750 0
DWIDTH 15 0
BBX 13 18 1 0
BITMAP
0E00
1100
0100
0200
0200
0400
0000
2020
4010
4210
8208
8208
8208
8208
8208
8208
4510
38E0
ENDCHAR
STARTCHAR 1F67
ENCODING 8039
SWIDTH 750 0
DWIDTH 15 0
BBX 13 18 1 0
BITMAP
0600
0B00
0100
0300
0300
0300
0000
2020
4010
4210
8208
8208
8208
8208
8208
8208
4510
38E0
ENDCHAR
STARTCHAR 1F68
ENCODING 8040
SWIDTH 800 0
DWIDTH 16 0
BBX 15 15 -1 0
BITMAP
6000
23E0
4C18
9004
1004
2002
2002
2002
2002
2002
1004
1004
0808
0410
3E3E
ENDCHAR
STARTCHAR 1F69
ENCODING 8041
SWIDTH 850 0
DWIDTH 17 0
BBX 16 15 -1 0
BITMAP
C000
81F0
460C
2802
0802
1001
1001
1001
1001
1001
0802
0802
0404
0208
1F1F
ENDCHAR
STARTCHAR 1F6A
ENCODING 8042
SWIDTH 1000 0
DWIDTH 20 0
BBX 21 15 -2 0
BITMAP
700000
2C0F80
463060
834010
004010
008008
008008
008008
008008
008008
004010
004010
002020
001040
00F8F8
ENDCHAR
STARTCHAR 1F6B
ENCODING 8043
SWIDTH 1000 0
DWIDTH 20 0
BBX 20 15 -2 0
BITMAP
E00000
B01F00
5C60C0
2E8020
008020
010010
010010
010010
010010
010010
008020
008020
004040
002080
01F1F0
ENDCHAR
STARTCHAR 1F6C
ENCODING 8044
SWIDTH 950 0
DWIDTH 19 0
BBX 19 15 -2 0
BITMAP
640000
2C3E00
58C180
A10040
010040
020020
020020
020020
020020
020020
010040
010040
008080
004100
03E3E0
ENDCHAR
STARTCHAR 1F6D
ENCODING 8045
SWIDTH 950 0
DWIDTH 19 0
BBX 20 15 -2 0
BITMAP
C20000
861F00
4C60C0
308020
008020
010010
010010
010010
010010
010010
008020
008020
004040
002080
01F1F0
ENDCHAR
STARTCHAR 1F6E
ENCODING 8046
SWIDTH 850 0
DWIDTH 17 0
BBX 17 16 -1 0
BITMAP
700000
880000
88F800
230600
240100
440100
080080
080080
080080
080080
080080
040100
040100
020200
010400
0F8F80
ENDCHAR
STARTCHAR 1F6F
ENCODING 8047
SWIDTH 900 0
DWIDTH 18 0
BBX 17 16 -1 0
BITMAP
300000
580000
88F800
330600
340100
340100
080080
080080
080080
080080
080080
040100
040100
020200
010400
0F8F80
ENDCHAR
STARTCHAR 1F70
ENCODING 8048
SWIDTH 600 0
DWIDTH 12 0
BBX 11 16 1 0
BITMAP
2000
1000
0800
0400
0000
1F80
2080
4080
8080
8080
8080
8080
8080
4080
2180
1E60
ENDCHAR
STARTCHAR 1F71
ENCODING 8049
SWIDTH 600 0
DWIDTH 12 0
BBX 11 16 1 0
BITMAP
0100
0200
0400
0800
0000
1F80
2080
4080
8080
8080
8080
8080
8080
4080
2180
1E60
ENDCHAR
STARTCHAR 1F72
ENCODING 8050
SWIDTH 500 0
DWIDTH 10 0
BBX 8 16 1 0
BITMAP
40
20
10
08
00
3C
40
80
80
40
3C
40
80
80
41
3E
ENDCHAR
STARTCHAR 1F73
ENCODING 8051
SWIDTH 500 0
DWIDTH 10 0
BBX 8 16 1 0
BITMAP
02
04
08
10
00
3C
40
80
80
40
3C
40
80
80
41
3E
ENDCHAR
STARTCHAR 1F74
ENCODING 8052
SWIDTH 600 0
DWIDTH 12 0
BBX 8 20 2 -4
BITMAP
40
20
10
08
00
FC
82
81
81
81
81
81
81
81
81
81
01
01
01
01
ENDCHAR
STARTCHAR 1F75
ENCODING 8053
SWIDTH 600 0
DWIDTH 12 0
BBX 8 20 2 -4
BITMAP
02
04
08
10
00
FC
82
81
81
81
81
81
81
81
81
81
01
01
01
01
ENDCHAR
STARTCHAR 1F76
ENCODING 8054
SWIDTH 300 0
DWIDTH 6 0
BBX 5 16 0 0
BITMAP
80
40
20
10
00
20
20
20
20
20
20
20
20
20
20
18
ENDCHAR
STARTCHAR 1F77
ENCODING 8055
SWIDTH 300 0
DWIDTH 6 0
BBX 4 16 1 0
BITMAP
10
20
40
80
00
40
40
40
40
40
40
40
40
40
40
30
ENDCHAR
STARTCHAR 1F78
ENCODING 8056
SWIDTH 600 0
DWIDTH 12 0
BBX 10 16 1 0
BITMAP
2000
1000
0800
0400
0000
1E00
2100
4080
8040
8040
8040
8040
8040
4080
2100
1E00
ENDCHAR
STARTCHAR 1F79
ENCODING 8057
SWIDTH 600 0
DWIDTH 12 0
BBX 10 16 1 0
BITMAP
0100
0200
0400
0800
0000
1E00
2100
4080
8040
8040
8040
8040
8040
4080
2100
1E00
ENDCHAR
STARTCHAR 1F7A
ENCODING 8058
SWIDTH 600 0
DWIDTH 12 0
BBX 8 16 2 0
BITMAP
40
20
10
08
00
81
81
81
81
81
81
81
81
81
42
3C
ENDCHAR
STARTCHAR 1F7B
ENCODING 8059
SWIDTH 600 0
DWIDTH 12 0
BBX 8 16 2 0
BITMAP
02
04
08
10
00
81
81
81
81
81
81
81
81
81
42
3C
ENDCHAR
STARTCHAR 1F7C
ENCODING 8060
SWIDTH 750 0
DWIDTH 15 0
BBX 13 16 1 0
BITMAP
0800
0400
0200
0100
0000
2020
4010
4210
8208
8208
8208
8208
8208
8208
4510
38E0
ENDCHAR
STARTCHAR 1F7D
ENCODING 8061
SWIDTH 750 0
DWIDTH 15 0
BBX 13 16 1 0
BITMAP
0080
0100
0200
0400
0000
2020
4010
4210
8208
8208
8208
8208
8208
8208
4510
38E0
ENDCHAR
STARTCHAR 1F80
ENCODING 8064
SWIDTH 600 0
DWIDTH 12 0
BBX 11 20 1 -4
BITMAP
0600
0200
0400
0800
0000
1F80
2080
4080
8080
8080
8080
8080
8080
4080
2180
1E60
0000
0400
0400
0200
ENDCHAR
STARTCHAR 1F81
ENCODING 8065
SWIDTH 600 0
DWIDTH 12 0
BBX 11 20 1 -4
BITMAP
0C00
0800
0400
0200
0000
1F80
2080
4080
8080
8080
8080
8080
8080
4080
2180
1E60
0000
0400
0400
0200
ENDCHAR
STARTCHAR 1F82
ENCODING 8066
SWIDTH 600 0
DWIDTH 12 0
BBX 11 20 1 -4
BITMAP
3400
1200
2100
4080
0000
1F80
2080
4080
8080
8080
8080
8080
8080
4080
2180
1E60
0000
0400
0400
0200
ENDCHAR
STARTCHAR 1F83
ENCODING 8067
SWIDTH 600 0
DWIDTH 12 0
BBX 11 20 1 -4
BITMAP
6800
4400
2200
1100
0000
1F80
2080
4080
8080
8080
8080
8080
8080
4080
2180
1E60
0000
0400
0400
0200
ENDCHAR
STARTCHAR 1F84
ENCODING 8068
SWIDTH 600 0
DWIDTH 12 0
BBX 11 20 1 -4
BITMAP
1880
0900
1200
2400
0000
1F80
2080
4080
8080
8080
8080
8080
8080
4080
2180
1E60
0000
0400
0400
0200
ENDCHAR
STARTCHAR 1F85
ENCODING 8069
SWIDTH 600 0
DWIDTH 12 0
BBX 11 20 1 -4
BITMAP
6080
4100
2200
1400
0000
1F80
2080
4080
8080
8080
8080
8080
8080
4080
2180
1E60
0000
0400
0400
0200
ENDCHAR
STARTCHAR 1F86
ENCODING 8070
SWIDTH 600 0
DWIDTH 12 0
BBX 11 22 1 -4
BITMAP
0700
0880
0880
0400
0400
0800
0000
1F80
2080
4080
8080
8080
8080
8080
8080
4080
2180
1E60
0000
0400
0400
0200
ENDCHAR
STARTCHAR 1F87
ENCODING 8071
SWIDTH 600 0
DWIDTH 12 0
BBX 11 22 1 -4
BITMAP
0C00
1600
2200
0C00
0C00
0C00
0000
1F80
2080
4080
8080
8080
8080
8080
8080
4080
2180
1E60
0000
0400
0400
0200
ENDCHAR
STARTCHAR 1F88
ENCODING 8072
SWIDTH 900 0
DWIDTH 18 0
BBX 18 15 0 0
BITMAP
300000
120000
220000
450000
050100
088100
088100
104100
104100
104100
3FE100
202100
401100
401100
8008C0
ENDCHAR
STARTCHAR 1F89
ENCODING 8073
SWIDTH 900 0
DWIDTH 18 0
BBX 18 15 0 0
BITMAP
600000
420000
220000
150000
050100
088100
088100
104100
104100
104100
3FE100
202100
401100
401100
8008C0
ENDCHAR
STARTCHAR 1F8A
ENCODING 8074
SWIDTH 1000 0
DWIDTH 20 0
BBX 22 15 -2 0
BITMAP
600000
282000
442000
825000
005010
008810
008810
010410
010410
010410
03FE10
020210
040110
040110
08008C
ENDCHAR
STARTCHAR 1F8B
ENCODING 8075
SWIDTH 1000 0
DWIDTH 20 0
BBX 21 15 -1 0
BITMAP
C00000
904000
484000
24A000
00A020
011020
011020
020820
020820
020820
07FC20
040420
080220
080220
100118
ENDCHAR
STARTCHAR 1F8C
ENCODING 8076
SWIDTH 950 0
DWIDTH 19 0
BBX 20 15 -1 0
BITMAP
620000
248000
488000
914000
014040
022040
022040
041040
041040
041040
0FF840
080840
100440
100440
200230
ENDCHAR
STARTCHAR 1F8D
ENCODING 8077
SWIDTH 1000 0
DWIDTH 20 0
BBX 21 15 -1 0
BITMAP
C10000
824000
444000
28A000
00A020
011020
011020
020820
020820
020820
07FC20
040420
080220
080220
100118
ENDCHAR
STARTCHAR 1F8E
ENCODING 8078
SWIDTH 900 0
DWIDTH 18 0
BBX 19 16 -1 0
BITMAP
700000
880000
890000
210000
228000
428080
044080
044080
082080
082080
082080
1FF080
101080
200880
200880
400460
ENDCHAR
STARTCHAR 1F8F
ENCODING 8079
SWIDTH 900 0
DWIDTH 18 0
BBX 19 16 -1 0
BITMAP
700000
880000
890000
210000
228000
028080
144080
044080
082080
082080
082080
1FF080
101080
200880
200880
400460
ENDCHAR
STARTCHAR 1F90
ENCODING 8080
SWIDTH 600 0
DWIDTH 12 0
BBX 8 20 2 -4
BITMAP
0C
04
08
10
00
FC
82
81
81
81
81
81
81
81
81
81
01
81
81
41
ENDCHAR
STARTCHAR 1F91
ENCODING 8081
SWIDTH 600 0
DWIDTH 12 0
BBX 8 20 2 -4
BITMAP
30
20
10
08
00
FC
82
81
81
81
81
81
81
81
81
81
01
81
81
41
ENDCHAR
STARTCHAR 1F92
ENCODING 8082
SWIDTH 600 0
DWIDTH 12 0
BBX 8 20 2 -4
BITMAP
68
24
42
81
00
FC
82
81
81
81
81
81
81
81
81
81
01
81
81
41
ENDCHAR
STARTCHAR 1F93
ENCODING 8083
SWIDTH 600 0
DWIDTH 12 0
BBX 8 20 2 -4
BITMAP
D0
88
44
22
00
FC
82
81
81
81
81
81
81
81
81
81
01
81
81
41
ENDCHAR
STARTCHAR 1F94
ENCODING 8084
SWIDTH 600 0
DWIDTH 12 0
BBX 8 20 2 -4
BITMAP
31
12
24
48
00
FC
82
81
81
81
81
81
81
81
81
81
01
81
81
41
ENDCHAR
STARTCHAR 1F95
ENCODING 8085
SWIDTH 600 0
DWIDTH 12 0
BBX 8 20 2 -4
BITMAP
C1
82
44
28
00
FC
82
81
81
81
81
81
81
81
81
81
01
81
81
41
ENDCHAR
STARTCHAR 1F96
ENCODING 8086
SWIDTH 600 0
DWIDTH 12 0
BBX 8 22 2 -4
BITMAP
0E
11
11
08
08
10
00
FC
82
81
81
81
81
81
81
81
81
81
01
81
81
41
ENDCHAR
STARTCHAR 1F97
ENCODING 8087
SWIDTH 600 0
DWIDTH 12 0
BBX 8 22 2 -4
BITMAP
0E
11
11
08
08
00
04
FC
82
81
81
81
81
81
81
81
81
81
01
81
81
41
ENDCHAR
STARTCHAR 1F98
ENCODING 8088
SWIDTH 1000 0
DWIDTH 20 0
BBX 21 15 -1 0
BITMAP
600000
280400
480400
880400
080420
080420
080420
0FFC20
080420
080420
080420
080420
080420
080420
080418
ENDCHAR
STARTCHAR 1F99
ENCODING 8089
SWIDTH 1000 0
DWIDTH 20 0
BBX 21 15 -1 0
BITMAP
C00000
880400
480400
280400
080420
080420
080420
0FFC20
080420
080420
080420
080420
080420
080420
080418
ENDCHAR
STARTCHAR 1F9A
ENCODING 8090
SWIDTH 1200 0
DWIDTH 24 0
BBX 26 15 -2 0
BITMAP
68000000
24402000
42402000
81402000
00402100
00402100
00402100
007FE100
00402100
00402100
00402100
00402100
00402100
00402100
004020C0
ENDCHAR
STARTCHAR 1F9B
ENCODING 8091
SWIDTH 1200 0
DWIDTH 24 0
BBX 25 15 -1 0
BITMAP
D0000000
88804000
44804000
22804000
00804200
00804200
00804200
00FFC200
00804200
00804200
00804200
00804200
00804200
00804200
00804180
ENDCHAR
STARTCHAR 1F9C
ENCODING 8092
SWIDTH 1200 0
DWIDTH 24 0
BBX 25 15 -1 0
BITMAP
62000000
24804000
48804000
90804000
00804200
00804200
00804200
00FFC200
00804200
00804200
00804200
00804200
00804200
00804200
00804180
ENDCHAR
STARTCHAR 1F9D
ENCODING 8093
SWIDTH 1200 0
DWIDTH 24 0
BBX 26 15 -2 0
BITMAP
C1000000
82402000
44402000
28402000
00402100
00402100
00402100
007FE100
00402100
00402100
00402100
00402100
00402100
00402100
004020C0
ENDCHAR
STARTCHAR 1F9E
ENCODING 8094
SWIDTH 1150 0
DWIDTH 23 0
BBX 23 16 -1 0
BITMAP
700000
880000
890080
210080
210080
410088
010088
010088
01FF88
010088
010088
010088
010088
010088
010088
010086
ENDCHAR
STARTCHAR 1F9F
ENCODING 8095
SWIDTH 1150 0
DWIDTH 23 0
BBX 23 16 -1 0
BITMAP
700000
880000
890080
210080
210080
010088
110088
010088
01FF88
010088
010088
010088
010088
010088
010088
010086
ENDCHAR
STARTCHAR 1FA0
ENCODING 8096
SWIDTH 750 0
DWIDTH 15 0
BBX 13 20 1 -4
BITMAP
0300
0100
0200
0400
0000
2020
4010
4210
8208
8208
8208
8208
8208
8208
4510
38E0
0000
0200
0200
0100
ENDCHAR
STARTCHAR 1FA1
ENCODING 8097
SWIDTH 750 0
DWIDTH 15 0
BBX 13 20 1 -4
BITMAP
0600
0400
0200
0100
0000
2020
4010
4210
8208
8208
8208
8208
8208
8208
4510
38E0
0000
0200
0200
0100
ENDCHAR
STARTCHAR 1FA2
ENCODING 8098
SWIDTH 750 0
DWIDTH 15 0
BBX 13 20 1 -4
BITMAP
1A00
0900
1080
2040
0000
2020
4010
4210
8208
8208
8208
8208
8208
8208
4510
38E0
0000
0200
0200
0100
ENDCHAR
STARTCHAR 1FA3
ENCODING 8099
SWIDTH 750 0
DWIDTH 15 0
BBX 13 20 1 -4
BITMAP
3400
2200
1100
0880
0000
2020
4010
4210
8208
8208
8208
8208
8208
8208
4510
38E0
0000
0200
0200
0100
ENDCHAR
STARTCHAR 1FA4
ENCODING 8100
SWIDTH 750 0
DWIDTH 15 0
BBX 13 20 1 -4
BITMAP
0620
0240
0480
0900
0000
2020
4010
4210
8208
8208
8208
8208
8208
8208
4510
38E0
0000
0200
0200
0100
ENDCHAR
STARTCHAR 1FA5
ENCODING 8101
SWIDTH 750 0
DWIDTH 15 0
BBX 13 20 1 -4
BITMAP
1820
1040
0880
0500
0000
2020
4010
4210
8208
8208
8208
8208
8208
8208
4510
38E0
0000
0200
0200
0100
ENDCHAR
STARTCHAR 1FA6
ENCODING 8102
SWIDTH 750 0
DWIDTH 15 0
BBX 13 22 1 -4
BITMAP
0E00
1100
0100
0200
0200
0400
0000
2020
4010
4210
8208
8208
8208
8208
8208
8208
4510
38E0
0000
0400
0400
0200
ENDCHAR
STARTCHAR 1FA7
ENCODING 8103
SWIDTH 750 0
DWIDTH 15 0
BBX 13 22 1 -4
BITMAP
0600
0B00
0100
0300
0300
0300
0000
2020
4010
4210
8208
8208
8208
8208
8208
8208
4510
38E0
0000
0400
0400
0200
ENDCHAR
STARTCHAR 1FA8
ENCODING 8104
SWIDTH 1050 0
DWIDTH 21 0
BBX 22 15 -1 0
BITMAP
600000
23E000
4C1800
900400
100410
200210
200210
200210
200210
200210
100410
100410
080810
041010
3E3E0C
ENDCHAR
STARTCHAR 1FA9
ENCODING 8105
SWIDTH 1100 0
DWIDTH 22 0
BBX 23 15 -1 0
BITMAP
C00000
81F000
460C00
280200
080208
100108
100108
100108
100108
100108
080208
080208
040408
020808
1F1F06
ENDCHAR
STARTCHAR 1FAA
ENCODING 8106
SWIDTH 1250 0
DWIDTH 25 0
BBX 27 15 -2 0
BITMAP
70000000
2C0F8000
46306000
83401000
00401080
00800880
00800880
00800880
00800880
00800880
00401080
00401080
00202080
00104080
00F8F860
ENDCHAR
STARTCHAR 1FAB
ENCODING 8107
SWIDTH 1250 0
DWIDTH 25 0
BBX 27 15 -2 0
BITMAP
E0000000
B01F0000
5C60C000
2E802000
00802080
01001080
01001080
01001080
01001080
01001080
00802080
00802080
00404080
00208080
01F1F060
ENDCHAR
STARTCHAR 1FAC
ENCODING 8108
SWIDTH 1200 0
DWIDTH 24 0
BBX 26 15 -2 0
BITMAP
64000000
2C3E0000
58C18000
A1004000
01004100
02002100
02002100
02002100
02002100
02002100
01004100
01004100
00808100
00410100
03E3E0C0
ENDCHAR
STARTCHAR 1FAD
ENCODING 8109
SWIDTH 1250 0
DWIDTH 25 0
BBX 26 15 -2 0
BITMAP
C2000000
861F0000
4C60C000
30802000
00802100
01001100
01001100
01001100
01001100
01001100
00802100
00802100
00404100
00208100
01F1F0C0
ENDCHAR
STARTCHAR 1FAE
ENCODING 8110
SWIDTH 1150 0
DWIDTH 23 0
BBX 23 16 -1 0
BITMAP
700000
880000
88F800
230600
240100
440108
080088
080088
080088
080088
080088
040108
040108
020208
010408
0F8F86
ENDCHAR
STARTCHAR 1FAF
ENCODING 8111
SWIDTH 1150 0
DWIDTH 23 0
BBX 24 16 -1 0
BITMAP
300000
580000
88F800
330600
340100
340104
080084
080084
080084
080084
080084
040104
040104
020204
010404
0F8F83
ENDCHAR
STARTCHAR 1FB0
ENCODING 8112
SWIDTH 600 0
DWIDTH 12 0
BBX 11 15 1 0
BITMAP
1100
1100
0E00
0000
1F80
2080
4080
8080
8080
8080
8080
8080
4080
2180
1E60
ENDCHAR
STARTCHAR 1FB1
ENCODING 8113
SWIDTH 600 0
DWIDTH 12 0
BBX 11 14 1 0
BITMAP
3F00
0000
0000
1F80
2080
4080
8080
8080
8080
8080
8080
4080
2180
1E60
ENDCHAR
STARTCHAR 1FB2
ENCODING 8114
SWIDTH 600 0
DWIDTH 12 0
BBX 11 20 1 -4
BITMAP
2000
1000
0800
0400
0000
1F80
2080
4080
8080
8080
8080
8080
8080
4080
2180
1E60
0000
0400
0400
0200
ENDCHAR
STARTCHAR 1FB3
ENCODING 8115
SWIDTH 600 0
DWIDTH 12 0
BBX 11 15 1 -4
BITMAP
1F80
2080
4080
8080
8080
8080
8080
8080
4080
2180
1E60
0000
0400
0400
0200
ENDCHAR
STARTCHAR 1FB4
ENCODING 8116
SWIDTH 600 0
DWIDTH 12 0
BBX 11 20 1 -4
BITMAP
0180
0300
0600
0400
0000
1F80
2080
4080
8080
8080
8080
8080
8080
4080
2180
1E60
0000
0400
0400
0200
ENDCHAR
STARTCHAR 1FB6
ENCODING 8118
SWIDTH 600 0
DWIDTH 12 0
BBX 11 15 1 0
BITMAP
0E00
1100
1100
0000
1F80
2080
4080
8080
8080
8080
8080
8080
4080
2180
1E60
ENDCHAR
STARTCHAR 1FB7
ENCODING 8119
SWIDTH 600 0
DWIDTH 12 0
BBX 11 19 1 -4
BITMAP
0700
0880
0880
0000
1F80
2080
4080
8080
8080
8080
8080
8080
4080
2180
1E60
0000
0400
0400
0200
ENDCHAR
STARTCHAR 1FB8
ENCODING 8120
SWIDTH 650 0
DWIDTH 13 0
BBX 13 18 0 0
BITMAP
0880
0880
0700
0000
0200
0200
0500
0500
0880
0880
1040
1040
1040
3FE0
2020
4010
4010
8008
ENDCHAR
STARTCHAR 1FB9
ENCODING 8121
SWIDTH 650 0
DWIDTH 13 0
BBX 13 17 0 0
BITMAP
1F80
0000
0000
0200
0200
0500
0500
0880
0880
1040
1040
1040
3FE0
2020
4010
4010
8008
ENDCHAR
STARTCHAR 1FBA
ENCODING 8122
SWIDTH 650 0
DWIDTH 13 0
BBX 16 15 -3 0
BITMAP
8000
4040
2040
10A0
00A0
0110
0110
0208
0208
0208
07FC
0404
0802
0802
1001
ENDCHAR
STARTCHAR 1FBB
ENCODING 8123
SWIDTH 650 0
DWIDTH 13 0
BBX 13 15 0 0
BITMAP
1000
2200
4200
8500
0500
0880
0880
1040
1040
1040
3FE0
2020
4010
4010
8008
ENDCHAR
STARTCHAR 1FBC
ENCODING 8124
SWIDTH 900 0
DWIDTH 18 0
BBX 18 14 0 0
BITMAP
020000
020000
050000
050100
088100
088100
104100
104100
104100
3FE100
202100
401100
401100
8008C0
ENDCHAR
STARTCHAR 1FBD
ENCODING 8125
SWIDTH 400 0
DWIDTH 8 0
BBX 3 4 2 12
BITMAP
60
20
40
80
ENDCHAR
STARTCHAR 1FBE
ENCODING 8126
SWIDTH 350 0
DWIDTH 7 0
BBX 2 3 3 -4
BITMAP
80
80
40
ENDCHAR
STARTCHAR 1FBF
ENCODING 8127
SWIDTH 400 0
DWIDTH 8 0
BBX 3 4 2 12
BITMAP
60
20
40
80
ENDCHAR
STARTCHAR 1FC0
ENCODING 8128
SWIDTH 400 0
DWIDTH 8 0
BBX 5 3 1 12
BITMAP
70
88
88
ENDCHAR
STARTCHAR 1FC1
ENCODING 8129
SWIDTH 400 0
DWIDTH 8 0
BBX 5 5 1 12
BITMAP
70
88
00
88
88
ENDCHAR
STARTCHAR 1FC2
ENCODING 8130
SWIDTH 600 0
DWIDTH 12 0
BBX 8 20 2 -4
BITMAP
40
20
10
08
00
FC
82
81
81
81
81
81
81
81
81
81
01
81
81
41
ENDCHAR
STARTCHAR 1FC3
ENCODING 8131
SWIDTH 600 0
DWIDTH 12 0
BBX 8 15 2 -4
BITMAP
FC
82
81
81
81
81
81
81
81
81
81
01
81
81
41
ENDCHAR
STARTCHAR 1FC4
ENCODING 8132
SWIDTH 600 0
DWIDTH 12 0
BBX 8 20 2 -4
BITMAP
02
04
08
10
00
FC
82
81
81
81
81
81
81
81
81
81
01
81
81
41
ENDCHAR
STARTCHAR 1FC6
ENCODING 8134
SWIDTH 600 0
DWIDTH 12 0
BBX 8 19 2 -4
BITMAP
38
44
44
00
FC
82
81
81
81
81
81
81
81
81
81
01
01
01
01
ENDCHAR
STARTCHAR 1FC7
ENCODING 8135
SWIDTH 600 0
DWIDTH 12 0
BBX 8 19 2 -4
BITMAP
38
44
44
00
FC
82
81
81
81
81
81
81
81
81
81
01
81
81
41
ENDCHAR
STARTCHAR 1FC8
ENCODING 8136
SWIDTH 700 0
DWIDTH 14 0
BBX 13 15 -1 0
BITMAP
8000
47F0
2400
1400
0400
0400
0400
07E0
0400
0400
0400
0400
0400
0400
07F8
ENDCHAR
STARTCHAR 1FC9
ENCODING 8137
SWIDTH 700 0
DWIDTH 14 0
BBX 13 15 -1 0
BITMAP
1000
27F0
4400
8400
0400
0400
0400
07E0
0400
0400
0400
0400
0400
0400
07F8
ENDCHAR
STARTCHAR 1FCA
ENCODING 8138
SWIDTH 800 0
DWIDTH 16 0
BBX 15 15 -1 0
BITMAP
8000
4402
2402
1402
0402
0402
0402
07FE
0402
0402
0402
0402
0402
0402
0402
ENDCHAR
STARTCHAR 1FCB
ENCODING 8139
SWIDTH 800 0
DWIDTH 16 0
BBX 15 15 -1 0
BITMAP
1000
2402
4402
8402
0402
0402
0402
07FE
0402
0402
0402
0402
0402
0402
0402
ENDCHAR
STARTCHAR 1FCC
ENCODING 8140
SWIDTH 950 0
DWIDTH 19 0
BBX 17 14 2 0
BITMAP
804000
804000
804000
804200
804200
804200
FFC200
804200
804200
804200
804200
804200
804200
804180
ENDCHAR
STARTCHAR 1FCD
ENCODING 8141
SWIDTH 450 0
DWIDTH 9 0
BBX 8 4 0 12
BITMAP
68
24
42
81
ENDCHAR
STARTCHAR 1FCE
ENCODING 8142
SWIDTH 400 0
DWIDTH 8 0
BBX 7 4 0 12
BITMAP
62
24
48
90
ENDCHAR
STARTCHAR 1FCF
ENCODING 8143
SWIDTH 350 0
DWIDTH 7 0
BBX 5 6 1 12
BITMAP
70
88
88
20
20
40
ENDCHAR
STARTCHAR 1FD0
ENCODING 8144
SWIDTH 300 0
DWIDTH 6 0
BBX 5 15 0 0
BITMAP
88
88
70
00
20
20
20
20
20
20
20
20
20
20
18
ENDCHAR
STARTCHAR 1FD1
ENCODING 8145
SWIDTH 300 0
DWIDTH 6 0
BBX 6 14 0 0
BITMAP
FC
00
00
20
20
20
20
20
20
20
20
20
20
18
ENDCHAR
STARTCHAR 1FD2
ENCODING 8146
SWIDTH 300 0
DWIDTH 6 0
BBX 6 16 0 0
BITMAP
20
A4
94
10
00
20
20
20
20
20
20
20
20
20
20
18
ENDCHAR
STARTCHAR 1FD3
ENCODING 8147
SWIDTH 300 0
DWIDTH 6 0
BBX 6 16 0 0
BITMAP
10
94
A4
20
00
20
20
20
20
20
20
20
20
20
20
18
ENDCHAR
STARTCHAR 1FD6
ENCODING 8150
SWIDTH 300 0
DWIDTH 6 0
BBX 5 15 0 0
BITMAP
70
88
88
00
20
20
20
20
20
20
20
20
20
20
18
ENDCHAR
STARTCHAR 1FD7
ENCODING 8151
SWIDTH 300 0
DWIDTH 6 0
BBX 5 17 0 0
BITMAP
70
88
00
88
88
00
20
20
20
20
20
20
20
20
20
20
18
ENDCHAR
STARTCHAR 1FD8
ENCODING 8152
SWIDTH 250 0
DWIDTH 5 0
BBX 5 18 0 0
BITMAP
88
88
70
00
20
20
20
20
20
20
20
20
20
20
20
20
20
20
ENDCHAR
STARTCHAR 1FD9
ENCODING 8153
SWIDTH 250 0
DWIDTH 5 0
BBX 6 17 0 0
BITMAP
FC
00
00
20
20
20
20
20
20
20
20
20
20
20
20
20
20
ENDCHAR
STARTCHAR 1FDA
ENCODING 8154
SWIDTH 350 0
DWIDTH 7 0
BBX 6 15 -1 0
BITMAP
80
44
24
14
04
04
04
04
04
04
04
04
04
04
04
ENDCHAR
STARTCHAR 1FDB
ENCODING 8155
SWIDTH 350 0
DWIDTH 7 0
BBX 6 15 -1 0
BITMAP
10
24
44
84
04
04
04
04
04
04
04
04
04
04
04
ENDCHAR
STARTCHAR 1FDD
ENCODING 8157
SWIDTH 450 0
DWIDTH 9 0
BBX 7 4 1 12
BITMAP
D0
88
44
22
ENDCHAR
STARTCHAR 1FDE
ENCODING 8158
SWIDTH 350 0
DWIDTH 7 0
BBX 8 4 0 12
BITMAP
C1
82
44
28
ENDCHAR
STARTCHAR 1FDF
ENCODING 8159
SWIDTH 350 0
DWIDTH 7 0
BBX 5 6 1 12
BITMAP
70
88
88
20
20
10
ENDCHAR
STARTCHAR 1FE0
ENCODING 8160
SWIDTH 600 0
DWIDTH 12 0
BBX 8 15 2 0
BITMAP
22
22
1C
00
81
81
81
81
81
81
81
81
81
42
3C
ENDCHAR
STARTCHAR 1FE1
ENCODING 8161
SWIDTH 600 0
DWIDTH 12 0
BBX 8 14 2 0
BITMAP
7E
00
00
81
81
81
81
81
81
81
81
81
42
3C
ENDCHAR
STARTCHAR 1FE2
ENCODING 8162
SWIDTH 600 0
DWIDTH 12 0
BBX 8 16 2 0
BITMAP
10
52
4A
08
00
81
81
81
81
81
81
81
81
81
42
3C
ENDCHAR
STARTCHAR 1FE3
ENCODING 8163
SWIDTH 600 0
DWIDTH 12 0
BBX 8 16 2 0
BITMAP
08
4A
52
10
00
81
81
81
81
81
81
81
81
81
42
3C
ENDCHAR
STARTCHAR 1FE4
ENCODING 8164
SWIDTH 600 0
DWIDTH 12 0
BBX 9 20 2 -4
BITMAP
0C00
0400
0800
1000
0000
1C00
6200
4100
8080
8080
8080
8080
8080
8100
C200
BC00
8000
8000
8000
8000
ENDCHAR
STARTCHAR 1FE5
ENCODING 8165
SWIDTH 600 0
DWIDTH 12 0
BBX 9 20 2 -4
BITMAP
1800
1000
0800
0400
0000
1C00
6200
4100
8080
8080
8080
8080
8080
8100
C200
BC00
8000
8000
8000
8000
ENDCHAR
STARTCHAR 1FE6
ENCODING 8166
SWIDTH 600 0
DWIDTH 12 0
BBX 8 15 2 0
BITMAP
1C
22
22
00
81
81
81
81
81
81
81
81
81
42
3C
ENDCHAR
STARTCHAR 1FE7
ENCODING 8167
SWIDTH 600 0
DWIDTH 12 0
BBX 8 17 2 0
BITMAP
1C
22
00
12
12
00
81
81
81
81
81
81
81
81
81
42
3C
ENDCHAR
STARTCHAR 1FE8
ENCODING 8168
SWIDTH 650 0
DWIDTH 13 0
BBX 11 18 1 0
BITMAP
1100
1100
0E00
0000
8020
4040
4040
2080
1100
1100
0A00
0400
0400
0400
0400
0400
0400
0400
ENDCHAR
STARTCHAR 1FE9
ENCODING 8169
SWIDTH 650 0
DWIDTH 13 0
BBX 11 17 1 0
BITMAP
3F00
0000
0000
8020
4040
4040
2080
1100
1100
0A00
0400
0400
0400
0400
0400
0400
0400
ENDCHAR
STARTCHAR 1FEA
ENCODING 8170
SWIDTH 700 0
DWIDTH 14 0
BBX 16 15 -1 0
BITMAP
8000
4401
2202
1202
0104
0088
0088
0050
0020
0020
0020
0020
0020
0020
0020
ENDCHAR
STARTCHAR 1FEB
ENCODING 8171
SWIDTH 750 0
DWIDTH 15 0
BBX 17 15 -1 0
BITMAP
100000
220080
410100
810100
008200
004400
004400
002800
001000
001000
001000
001000
001000
001000
001000
ENDCHAR
STARTCHAR 1FEC
ENCODING 8172
SWIDTH 650 0
DWIDTH 13 0
BBX 13 15 -1 0
BITMAP
C000
8FE0
4810
2808
0808
0808
0808
0808
0810
0FE0
0800
0800
0800
0800
0800
ENDCHAR
STARTCHAR 1FED
ENCODING 8173
SWIDTH 350 0
DWIDTH 7 0
BBX 6 4 1 12
BITMAP
20
A4
94
10
ENDCHAR
STARTCHAR 1FEE
ENCODING 8174
SWIDTH 350 0
DWIDTH 7 0
BBX 6 4 1 12
BITMAP
10
94
A4
20
ENDCHAR
STARTCHAR 1FEF
ENCODING 8175
SWIDTH 400 0
DWIDTH 8 0
BBX 4 4 1 12
BITMAP
80
40
20
10
ENDCHAR
STARTCHAR 1FF2
ENCODING 8178
SWIDTH 750 0
DWIDTH 15 0
BBX 13 20 1 -4
BITMAP
0800
0400
0200
0100
0000
2020
4010
4210
8208
8208
8208
8208
8208
8208
4510
38E0
0000
0200
0200
0100
ENDCHAR
STARTCHAR 1FF3
ENCODING 8179
SWIDTH 750 0
DWIDTH 15 0
BBX 13 15 1 -4
BITMAP
2020
4010
4210
8208
8208
8208
8208
8208
8208
4510
38E0
0000
0200
0200
0100
ENDCHAR
STARTCHAR 1FF4
ENCODING 8180
SWIDTH 750 0
DWIDTH 15 0
BBX 13 20 1 -4
BITMAP
0080
0100
0200
0400
0000
2020
4010
4210
8208
8208
8208
8208
8208
8208
4510
38E0
0000
0200
0200
0100
ENDCHAR
STARTCHAR 1FF6
ENCODING 8182
SWIDTH 750 0
DWIDTH 15 0
BBX 13 15 1 0
BITMAP
0700
0880
0880
0000
2020
4010
4210
8208
8208
8208
8208
8208
8208
4510
38E0
ENDCHAR
STARTCHAR 1FF7
ENCODING 8183
SWIDTH 750 0
DWIDTH 15 0
BBX 13 19 1 -4
BITMAP
0700
0880
0880
0000
2020
4010
4210
8208
8208
8208
8208
8208
8208
4510
38E0
0000
0200
0200
0100
ENDCHAR
STARTCHAR 1FF8
ENCODING 8184
SWIDTH 900 0
DWIDTH 18 0
BBX 17 15 -1 0
BITMAP
800000
40F800
230600
140100
040100
080080
080080
080080
080080
080080
080080
040100
040100
030600
00F800
ENDCHAR
STARTCHAR 1FF9
ENCODING 8185
SWIDTH 850 0
DWIDTH 17 0
BBX 16 15 -1 0
BITMAP
1000
21F0
460C
8802
0802
1001
1001
1001
1001
1001
1001
0802
0802
060C
01F0
ENDCHAR
STARTCHAR 1FFA
ENCODING 8186
SWIDTH 900 0
DWIDTH 18 0
BBX 17 15 -1 0
BITMAP
800000
40F800
230600
140100
040100
080080
080080
080080
080080
080080
040100
040100
020200
010400
0F8F80
ENDCHAR
STARTCHAR 1FFB
ENCODING 8187
SWIDTH 850 0
DWIDTH 17 0
BBX 16 15 -1 0
BITMAP
1000
21F0
460C
8802
0802
1001
1001
1001
1001
1001
0802
0802
0404
0208
1F1F
ENDCHAR
STARTCHAR 1FFC
ENCODING 8188
SWIDTH 1050 0
DWIDTH 21 0
BBX 20 14 1 0
BITMAP
0F8000
306000
401000
401040
800840
800840
800840
800840
800840
401040
401040
202040
104040
F8F830
ENDCHAR
STARTCHAR 1FFD
ENCODING 8189
SWIDTH 400 0
DWIDTH 8 0
BBX 4 4 2 12
BITMAP
10
20
40
80
ENDCHAR
STARTCHAR 1FFE
ENCODING 8190
SWIDTH 400 0
DWIDTH 8 0
BBX 3 4 2 12
BITMAP
C0
80
40
20
ENDCHAR
STARTCHAR 2013
ENCODING 8211
SWIDTH 500 0
DWIDTH 10 0
BBX 10 1 0 5
BITMAP
FFC0
ENDCHAR
STARTCHAR 2014
ENCODING 8212
SWIDTH 1000 0
DWIDTH 20 0
BBX 20 1 0 5
BITMAP
FFFFF0
ENDCHAR
STARTCHAR 2015
ENCODING 8213
SWIDTH 1000 0
DWIDTH 20 0
BBX 20 1 0 5
BITMAP
FFFFF0
ENDCHAR
STARTCHAR 2018
ENCODING 8216
SWIDTH 250 0
DWIDTH 5 0
BBX 2 4 1 12
BITMAP
40
80
80
80
ENDCHAR
STARTCHAR 2019
ENCODING 8217
SWIDTH 250 0
DWIDTH 5 0
BBX 2 4 1 12
BITMAP
40
40
40
80
ENDCHAR
STARTCHAR 201A
ENCODING 8218
SWIDTH 250 0
DWIDTH 5 0
BBX 2 4 1 -2
BITMAP
40
40
40
80
ENDCHAR
STARTCHAR 201C
ENCODING 8220
SWIDTH 400 0
DWIDTH 8 0
BBX 5 4 1 12
BITMAP
48
90
90
90
ENDCHAR
STARTCHAR 201D
ENCODING 8221
SWIDTH 400 0
DWIDTH 8 0
BBX 5 4 1 12
BITMAP
48
48
48
90
ENDCHAR
STARTCHAR 201E
ENCODING 8222
SWIDTH 400 0
DWIDTH 8 0
BBX 5 4 1 -2
BITMAP
48
48
48
90
ENDCHAR
STARTCHAR 2020
ENCODING 8224
SWIDTH 450 0
DWIDTH 9 0
BBX 7 17 1 -3
BITMAP
10
10
10
10
10
FE
10
10
10
10
10
10
10
10
10
10
10
ENDCHAR
STARTCHAR 2021
ENCODING 8225
SWIDTH 450 0
DWIDTH 9 0
BBX 7 17 1 -3
BITMAP
10
10
10
10
10
FE
10
10
10
10
FE
10
10
10
10
10
10
ENDCHAR
STARTCHAR 2022
ENCODING 8226
SWIDTH 350 0
DWIDTH 7 0
BBX 5 5 1 4
BITMAP
70
F8
F8
F8
70
ENDCHAR
STARTCHAR 2026
ENCODING 8230
SWIDTH 1000 0
DWIDTH 20 0
BBX 14 2 2 0
BITMAP
8104
8104
ENDCHAR
STARTCHAR 2030
ENCODING 8240
SWIDTH 1150 0
DWIDTH 23 0
BBX 21 14 1 0
BITMAP
781000
842000
844000
844000
848000
850000
790000
0278F0
028508
048508
088508
088508
108508
2078F0
ENDCHAR
STARTCHAR 2039
ENCODING 8249
SWIDTH 250 0
DWIDTH 5 0
BBX 3 9 1 1
BITMAP
20
20
40
40
80
40
40
20
20
ENDCHAR
STARTCHAR 203A
ENCODING 8250
SWIDTH 250 0
DWIDTH 5 0
BBX 3 9 1 1
BITMAP
80
80
40
40
20
40
40
80
80
ENDCHAR
STARTCHAR 2044
ENCODING 8260
SWIDTH 150 0
DWIDTH 3 0
BBX 9 14 -3 0
BITMAP
0080
0100
0100
0200
0400
0400
0800
0800
1000
1000
2000
4000
4000
8000
ENDCHAR
STARTCHAR 2070
ENCODING 8304
SWIDTH 350 0
DWIDTH 7 0
BBX 5 8 1 6
BITMAP
70
88
88
88
88
88
88
70
ENDCHAR
STARTCHAR 2074
ENCODING 8308
SWIDTH 350 0
DWIDTH 7 0
BBX 5 8 1 6
BITMAP
10
30
50
50
90
F8
10
10
ENDCHAR
STARTCHAR 2075
ENCODING 8309
SWIDTH 350 0
DWIDTH 7 0
BBX 5 8 1 6
BITMAP
F8
80
80
F0
08
08
88
70
ENDCHAR
STARTCHAR 2076
ENCODING 8310
SWIDTH 350 0
DWIDTH 7 0
BBX 5 8 1 6
BITMAP
30
40
80
F0
88
88
88
70
ENDCHAR
STARTCHAR 2077
ENCODING 8311
SWIDTH 350 0
DWIDTH 7 0
BBX 5 8 1 6
BITMAP
F8
10
10
20
20
40
40
40
ENDCHAR
STARTCHAR 2078
ENCODING 8312
SWIDTH 350 0
DWIDTH 7 0
BBX 5 8 1 6
BITMAP
70
88
88
70
88
88
88
70
ENDCHAR
STARTCHAR 2079
ENCODING 8313
SWIDTH 350 0
DWIDTH 7 0
BBX 5 8 1 6
BITMAP
70
88
88
88
78
08
08
F0
ENDCHAR
STARTCHAR 2080
ENCODING 8320
SWIDTH 350 0
DWIDTH 7 0
BBX 5 8 1 0
BITMAP
70
88
88
88
88
88
88
70
ENDCHAR
STARTCHAR 2081
ENCODING 8321
SWIDTH 350 0
DWIDTH 7 0
BBX 3 8 1 0
BITMAP
20
60
A0
20
20
20
20
20
ENDCHAR
STARTCHAR 2082
ENCODING 8322
SWIDTH 350 0
DWIDTH 7 0
BBX 5 8 1 0
BITMAP
70
88
08
10
20
40
80
F8
ENDCHAR
STARTCHAR 2083
ENCODING 8323
SWIDTH 350 0
DWIDTH 7 0
BBX 5 8 1 0
BITMAP
70
88
08
70
18
08
08
70
ENDCHAR
STARTCHAR 2084
ENCODING 8324
SWIDTH 350 0
DWIDTH 7 0
BBX 5 8 1 0
BITMAP
10
30
50
50
90
F8
10
10
ENDCHAR
STARTCHAR 2085
ENCODING 8325
SWIDTH 350 0
DWIDTH 7 0
BBX 5 8 1 0
BITMAP
F8
80
80
F0
08
08
88
70
ENDCHAR
STARTCHAR 2086
ENCODING 8326
SWIDTH 350 0
DWIDTH 7 0
BBX 5 8 1 0
BITMAP
30
40
80
F0
88
88
88
70
ENDCHAR
STARTCHAR 2087
ENCODING 8327
SWIDTH 350 0
DWIDTH 7 0
BBX 5 8 1 0
BITMAP
F8
10
10
20
20
40
40
40
ENDCHAR
STARTCHAR 2088
ENCODING 8328
SWIDTH 350 0
DWIDTH 7 0
BBX 5 8 1 0
BITMAP
70
88
88
70
88
88
88
70
ENDCHAR
STARTCHAR 2089
ENCODING 8329
SWIDTH 350 0
DWIDTH 7 0
BBX 5 8 1 0
BITMAP
70
88
88
88
78
08
08
F0
ENDCHAR
STARTCHAR 20AC
ENCODING 8364
SWIDTH 550 0
DWIDTH 11 0
BBX 9 14 1 0
BITMAP
0700
0880
1000
1000
2000
FE00
2000
2000
FC00
2000
2000
1000
0880
0700
ENDCHAR
STARTCHAR 20AE
ENCODING 8366
SWIDTH 550 0
DWIDTH 11 0
BBX 9 14 1 0
BITMAP
FF80
0800
0800
0800
0B00
0C00
3800
4800
0B00
0C00
3800
4800
0800
0800
ENDCHAR
STARTCHAR 20B4
ENCODING 8372
SWIDTH 550 0
DWIDTH 11 0
BBX 11 14 0 0
BITMAP
1E00
2100
0080
0080
0100
FFE0
0400
0800
FFE0
2000
4000
4000
2080
1F00
ENDCHAR
STARTCHAR 20B9
ENCODING 8377
SWIDTH 550 0
DWIDTH 11 0
BBX 9 14 2 0
BITMAP
FF80
0400
0200
FF80
0200
0600
0C00
F000
4000
2000
2000
1000
0800
0400
ENDCHAR
STARTCHAR 2113
ENCODING 8467
SWIDTH 400 0
DWIDTH 8 0
BBX 8 16 0 0
BITMAP
0E
11
21
21
21
21
22
22
24
28
30
60
A0
20
31
0E
ENDCHAR
STARTCHAR 2116
ENCODING 8470
SWIDTH 1100 0
DWIDTH 22 0
BBX 19 14 2 0
BITMAP
804380
C04440
A04820
A04820
904820
884820
884440
844380
824000
824000
814FE0
80C000
80C000
804000
ENDCHAR
STARTCHAR 2122
ENCODING 8482
SWIDTH 750 0
DWIDTH 15 0
BBX 13 7 1 7
BITMAP
FA08
2318
2318
22A8
22A8
2248
2208
ENDCHAR
STARTCHAR 2126
ENCODING 8486
SWIDTH 750 0
DWIDTH 15 0
BBX 13 14 1 0
BITMAP
0F80
3060
4010
4010
8008
8008
8008
8008
8008
4010
4010
2020
1040
F8F8
ENDCHAR
STARTCHAR 212E
ENCODING 8494
SWIDTH 900 0
DWIDTH 18 0
BBX 16 14 1 0
BITMAP
07E0
1818
2004
6006
6007
E007
FFFF
E000
E000
6000
6000
2004
1818
07E0
ENDCHAR
STARTCHAR 2153
ENCODING 8531
SWIDTH 850 0
DWIDTH 17 0
BBX 14 14 2 0
BITMAP
2020
6040
A040
2080
2100
2100
2238
2244
0404
0438
080C
1004
1004
2038
ENDCHAR
STARTCHAR 2154
ENCODING 8532
SWIDTH 850 0
DWIDTH 17 0
BBX 15 14 1 0
BITMAP
7010
8820
0820
1040
2080
4080
811C
F922
0202
021C
0406
0802
0802
101C
ENDCHAR
STARTCHAR 2155
ENCODING 8533
SWIDTH 850 0
DWIDTH 17 0
BBX 14 14 2 0
BITMAP
2020
6040
A040
2080
2100
2100
227C
2240
0440
0478
0804
1004
1044
2038
ENDCHAR
STARTCHAR 2156
ENCODING 8534
SWIDTH 850 0
DWIDTH 17 0
BBX 15 14 1 0
BITMAP
7010
8820
0820
1040
2080
4080
813E
F920
0220
023C
0402
0802
0822
101C
ENDCHAR
STARTCHAR 2157
ENCODING 8535
SWIDTH 850 0
DWIDTH 17 0
BBX 15 14 1 0
BITMAP
7010
8820
0820
7040
1880
0880
093E
7120
0220
023C
0402
0802
0822
101C
ENDCHAR
STARTCHAR 2158
ENCODING 8536
SWIDTH 850 0
DWIDTH 17 0
BBX 15 14 1 0
BITMAP
1010
3020
5020
5040
9080
F880
113E
1120
0220
023C
0402
0802
0822
101C
ENDCHAR
STARTCHAR 2159
ENCODING 8537
SWIDTH 850 0
DWIDTH 17 0
BBX 14 14 2 0
BITMAP
2020
6040
A040
2080
2100
2100
2218
2220
0440
0478
0844
1044
1044
2038
ENDCHAR
STARTCHAR 215A
ENCODING 8538
SWIDTH 850 0
DWIDTH 17 0
BBX 15 14 1 0
BITMAP
F810
8020
8020
F040
0880
0880
890C
7110
0220
023C
0422
0822
0822
101C
ENDCHAR
STARTCHAR 215B
ENCODING 8539
SWIDTH 850 0
DWIDTH 17 0
BBX 14 14 2 0
BITMAP
2020
6040
A040
2080
2100
2100
2238
2244
0444
0438
0844
1044
1044
2038
ENDCHAR
STARTCHAR 215C
ENCODING 8540
SWIDTH 850 0
DWIDTH 17 0
BBX 15 14 1 0
BITMAP
7010
8820
0820
7040
1880
0880
091C
7122
0222
021C
0422
0822
0822
101C
ENDCHAR
STARTCHAR 215D
ENCODING 8541
SWIDTH 850 0
DWIDTH 17 0
BBX 15 14 1 0
BITMAP
F810
8020
8020
F040
0880
0880
891C
7122
0222
021C
0422
0822
0822
101C
ENDCHAR
STARTCHAR 215E
ENCODING 8542
SWIDTH 850 0
DWIDTH 17 0
BBX 14 14 2 0
BITMAP
F820
1040
1040
2080
2100
4100
4238
4244
0444
0438
0844
1044
1044
2038
ENDCHAR
STARTCHAR 2202
ENCODING 8706
SWIDTH 550 0
DWIDTH 11 0
BBX 9 16 1 0
BITMAP
7C00
0200
0100
0100
0080
0080
1E80
2180
4080
8080
8080
8080
8100
8100
4200
3C00
ENDCHAR
STARTCHAR 2206
ENCODING 8710
SWIDTH 650 0
DWIDTH 13 0
BBX 13 14 0 0
BITMAP
0200
0200
0500
0500
0880
0880
1040
1040
2020
2020
4020
4010
8010
FFF8
ENDCHAR
STARTCHAR 220F
ENCODING 8719
SWIDTH 700 0
DWIDTH 14 0
BBX 10 16 2 -2
BITMAP
FFC0
8040
8040
8040
8040
8040
8040
8040
8040
8040
8040
8040
8040
8040
8040
8040
ENDCHAR
STARTCHAR 2211
ENCODING 8721
SWIDTH 500 0
DWIDTH 10 0
BBX 8 16 1 -2
BITMAP
FF
80
40
40
20
20
10
08
08
10
20
20
40
40
80
FF
ENDCHAR
STARTCHAR 2212
ENCODING 8722
SWIDTH 550 0
DWIDTH 11 0
BBX 9 1 1 5
BITMAP
FF80
ENDCHAR
STARTCHAR 2215
ENCODING 8725
SWIDTH 150 0
DWIDTH 3 0
BBX 9 14 -3 0
BITMAP
0080
0100
0100
0200
0400
0400
0800
0800
1000
1000
2000
4000
4000
8000
ENDCHAR
STARTCHAR 2219
ENCODING 8729
SWIDTH 150 0
DWIDTH 3 0
BBX 1 2 1 5
BITMAP
80
80
ENDCHAR
STARTCHAR 221A
ENCODING 8730
SWIDTH 550 0
DWIDTH 11 0
BBX 11 14 0 0
BITMAP
0020
0020
0040
0040
0080
0080
0080
2100
D100
1100
0A00
0A00
0A00
0400
ENDCHAR
STARTCHAR 221E
ENCODING 8734
SWIDTH 550 0
DWIDTH 11 0
BBX 9 6 1 3
BITMAP
6300
9480
8880
8880
9480
6300
ENDCHAR
STARTCHAR 222B
ENCODING 8747
SWIDTH 350 0
DWIDTH 7 0
BBX 7 20 0 -4
BITMAP
06
08
10
10
10
10
10
10
10
10
10
10
10
10
10
10
10
10
20
C0
ENDCHAR
STARTCHAR 2248
ENCODING 8776
SWIDTH 550 0
DWIDTH 11 0
BBX 9 7 1 3
BITMAP
3080
4900
8600
0000
3080
4900
8600
ENDCHAR
STARTCHAR 2260
ENCODING 8800
SWIDTH 550 0
DWIDTH 11 0
BBX 9 11 1 0
BITMAP
0200
0200
0400
FF80
0800
0800
1000
FF80
2000
2000
4000
ENDCHAR
STARTCHAR 2264
ENCODING 8804
SWIDTH 550 0
DWIDTH 11 0
BBX 9 11 1 0
BITMAP
0100
0600
0800
3000
C000
3000
0800
0600
0100
0000
FF80
ENDCHAR
STARTCHAR 2265
ENCODING 8805
SWIDTH 550 0
DWIDTH 11 0
BBX 9 11 1 0
BITMAP
4000
3000
0800
0600
0180
0600
0800
3000
4000
0000
FF80
ENDCHAR
STARTCHAR 25CA
ENCODING 9674
SWIDTH 550 0
DWIDTH 11 0
BBX 9 15 1 0
BITMAP
0800
0800
1400
2200
2200
4100
4100
8080
4100
4100
2200
2200
1400
0800
0800
ENDCHAR
STARTCHAR E0FF
ENCODING 57599
SWIDTH 800 0
DWIDTH 16 0
BBX 14 14 1 0
BITMAP
0FC0
3FE0
7F30
78B8
E77C
EF9C
AFDC
AFFC
EF9C
E73C
78F8
7F30
3FE0
0FC0
ENDCHAR
STARTCHAR EFFD
ENCODING 61437
SWIDTH 1700 0
DWIDTH 34 0
BBX 31 8 1 0
BITMAP
70070E1C
88089122
88089122
88071122
88089122
88089122
89089122
71070E1C
ENDCHAR
STARTCHAR F000
ENCODING 61440
SWIDTH 900 0
DWIDTH 18 0
BBX 16 13 1 1
BITMAP
7C3E
0241
0241
8241
0241
0241
7C00
8041
8041
8041
8041
8041
7C3E
ENDCHAR
STARTCHAR F001
ENCODING 61441
SWIDTH 600 0
DWIDTH 12 0
BBX 9 16 2 0
BITMAP
3C00
4000
8080
8080
8000
FC80
8080
8080
8080
8080
8080
8080
8080
8080
8080
8080
ENDCHAR
STARTCHAR F002
ENCODING 61442
SWIDTH 650 0
DWIDTH 13 0
BBX 11 16 2 0
BITMAP
3C80
4080
8080
8080
8080
FC80
8080
8080
8080
8080
8080
8080
8080
8080
8080
8060
ENDCHAR
STARTCHAR F0FF
ENCODING 61695
SWIDTH 450 0
DWIDTH 9 0
BBX 9 9 0 7
BITMAP
1C00
7B00
7700
DD80
DF80
DD80
7700
7B00
1C00
ENDCHAR
STARTCHAR F200
ENCODING 61952
SWIDTH 3500 0
DWIDTH 70 0
BBX 70 15 1 0
BITMAP
0018000000000001F0
00180000000C0003E8
00180000000C00079C
00180000000C0006EC
C19FC3067F0FD836FC
C19FE3067F8FD836EC
C198630661CC18379C
C198330660CC1833E8
C198330660CC1831F0
C198330660CC183000
C198330660CC183000
C198330660CC183000
E198638660CC1C3000
7F9FE1FE60C7CFF000
3F9F80FE60C7C7F000
ENDCHAR
STARTCHAR F506
ENCODING 62726
SWIDTH 850 0
DWIDTH 17 0
BBX 14 14 2 0
BITMAP
2020
6040
A040
2080
2100
2100
227C
2208
0408
0410
0810
1020
1020
2020
ENDCHAR
STARTCHAR F507
ENCODING 62727
SWIDTH 850 0
DWIDTH 17 0
BBX 15 14 1 0
BITMAP
7010
8820
0820
1040
2080
4080
813E
F904
0204
0208
0408
0810
0810
1010
ENDCHAR
STARTCHAR F508
ENCODING 62728
SWIDTH 850 0
DWIDTH 17 0
BBX 15 14 1 0
BITMAP
7010
8820
0820
7040
1880
0880
093E
7104
0204
0208
0408
0810
0810
1010
ENDCHAR
STARTCHAR F509
ENCODING 62729
SWIDTH 850 0
DWIDTH 17 0
BBX 15 14 1 0
BITMAP
1010
3020
5020
5040
9080
F880
113E
1104
0204
0208
0408
0810
0810
1010
ENDCHAR
STARTCHAR F50A
ENCODING 62730
SWIDTH 850 0
DWIDTH 17 0
BBX 15 14 1 0
BITMAP
F810
8020
8020
F040
0880
0880
893E
7104
0204
0208
0408
0810
0810
1010
ENDCHAR
STARTCHAR F50B
ENCODING 62731
SWIDTH 850 0
DWIDTH 17 0
BBX 15 14 1 0
BITMAP
3010
4020
8020
F040
8880
8880
893E
7104
0204
0208
0408
0810
0810
1010
ENDCHAR
STARTCHAR F50C
ENCODING 62732
SWIDTH 850 0
DWIDTH 17 0
BBX 14 14 2 0
BITMAP
2020
6040
A040
2080
2100
2100
2238
2244
0444
0444
083C
1004
1004
2078
ENDCHAR
STARTCHAR F50D
ENCODING 62733
SWIDTH 850 0
DWIDTH 17 0
BBX 15 14 1 0
BITMAP
7010
8820
0820
1040
2080
4080
811C
F922
0222
0222
041E
0802
0802
103C
ENDCHAR
STARTCHAR F50E
ENCODING 62734
SWIDTH 850 0
DWIDTH 17 0
BBX 15 14 1 0
BITMAP
1010
3020
5020
5040
9080
F880
111C
1122
0222
0222
041E
0802
0802
103C
ENDCHAR
STARTCHAR F50F
ENCODING 62735
SWIDTH 850 0
DWIDTH 17 0
BBX 15 14 1 0
BITMAP
F810
8020
8020
F040
0880
0880
891C
7122
0222
0222
041E
0802
0802
103C
ENDCHAR
STARTCHAR F510
ENCODING 62736
SWIDTH 850 0
DWIDTH 17 0
BBX 14 14 2 0
BITMAP
F820
1040
1040
2080
2100
4100
4238
4244
0444
0444
083C
1004
1004
2078
ENDCHAR
STARTCHAR F511
ENCODING 62737
SWIDTH 850 0
DWIDTH 17 0
BBX 15 14 1 0
BITMAP
7010
8820
8820
7040
8880
8880
891C
7122
0222
0222
041E
0802
0802
103C
ENDCHAR
STARTCHAR F800
ENCODING 63488
SWIDTH 550 0
DWIDTH 11 0
BBX 9 14 1 0
BITMAP
1C00
2200
4100
8080
8080
8080
8080
8080
8080
8080
8080
4100
2200
1C00
ENDCHAR
STARTCHAR F801
ENCODING 63489
SWIDTH 350 0
DWIDTH 7 0
BBX 4 14 1 0
BITMAP
10
30
50
90
10
10
10
10
10
10
10
10
10
10
ENDCHAR
STARTCHAR F802
ENCODING 63490
SWIDTH 500 0
DWIDTH 10 0
BBX 7 14 1 0
BITMAP
78
84
02
02
02
02
04
08
10
20
40
80
80
FE
ENDCHAR
STARTCHAR F803
ENCODING 63491
SWIDTH 500 0
DWIDTH 10 0
BBX 8 14 0 0
BITMAP
78
84
02
02
02
04
3C
06
01
01
01
01
82
7C
ENDCHAR
STARTCHAR F804
ENCODING 63492
SWIDTH 550 0
DWIDTH 11 0
BBX 9 14 1 0
BITMAP
0200
0600
0A00
1200
2200
2200
4200
4200
8200
FF80
0200
0200
0200
0200
ENDCHAR
STARTCHAR F805
ENCODING 63493
SWIDTH 500 0
DWIDTH 10 0
BBX 8 14 0 0
BITMAP
3F
20
20
20
40
78
06
02
01
01
01
01
82
7C
ENDCHAR
STARTCHAR F806
ENCODING 63494
SWIDTH 550 0
DWIDTH 11 0
BBX 8 14 2 0
BITMAP
06
18
20
40
40
80
BC
C2
81
81
81
81
42
3C
ENDCHAR
STARTCHAR F807
ENCODING 63495
SWIDTH 450 0
DWIDTH 9 0
BBX 9 14 0 0
BITMAP
FF80
0080
0100
0200
0400
0400
0800
0800
1000
1000
1000
2000
2000
2000
ENDCHAR
STARTCHAR F808
ENCODING 63496
SWIDTH 550 0
DWIDTH 11 0
BBX 9 14 1 0
BITMAP
3E00
4100
8080
8080
8080
4100
3E00
4100
8080
8080
8080
8080
4100
3E00
ENDCHAR
STARTCHAR F809
ENCODING 63497
SWIDTH 550 0
DWIDTH 11 0
BBX 9 14 1 0
BITMAP
3E00
4100
8080
8080
8080
8080
4180
3E80
0080
0100
0100
0200
0C00
7000
ENDCHAR
STARTCHAR F80A
ENCODING 63498
SWIDTH 350 0
DWIDTH 7 0
BBX 5 8 1 8
BITMAP
70
88
88
88
88
88
88
70
ENDCHAR
STARTCHAR F80B
ENCODING 63499
SWIDTH 350 0
DWIDTH 7 0
BBX 3 8 1 8
BITMAP
20
60
A0
20
20
20
20
20
ENDCHAR
STARTCHAR F80C
ENCODING 63500
SWIDTH 350 0
DWIDTH 7 0
BBX 5 8 1 8
BITMAP
70
88
08
10
20
40
80
F8
ENDCHAR
STARTCHAR F80D
ENCODING 63501
SWIDTH 350 0
DWIDTH 7 0
BBX 5 8 1 8
BITMAP
70
88
08
70
18
08
08
70
ENDCHAR
STARTCHAR F80E
ENCODING 63502
SWIDTH 350 0
DWIDTH 7 0
BBX 5 8 1 8
BITMAP
10
30
50
50
90
F8
10
10
ENDCHAR
STARTCHAR F80F
ENCODING 63503
SWIDTH 350 0
DWIDTH 7 0
BBX 5 8 1 8
BITMAP
F8
80
80
F0
08
08
88
70
ENDCHAR
STARTCHAR F810
ENCODING 63504
SWIDTH 350 0
DWIDTH 7 0
BBX 5 8 1 8
BITMAP
30
40
80
F0
88
88
88
70
ENDCHAR
STARTCHAR F811
ENCODING 63505
SWIDTH 350 0
DWIDTH 7 0
BBX 5 8 1 8
BITMAP
F8
10
10
20
20
40
40
40
ENDCHAR
STARTCHAR F812
ENCODING 63506
SWIDTH 350 0
DWIDTH 7 0
BBX 5 8 1 8
BITMAP
70
88
88
70
88
88
88
70
ENDCHAR
STARTCHAR F813
ENCODING 63507
SWIDTH 350 0
DWIDTH 7 0
BBX 5 8 1 8
BITMAP
70
88
88
88
78
08
08
F0
ENDCHAR
STARTCHAR F814
ENCODING 63508
SWIDTH 350 0
DWIDTH 7 0
BBX 5 8 1 -3
BITMAP
70
88
88
88
88
88
88
70
ENDCHAR
STARTCHAR F815
ENCODING 63509
SWIDTH 350 0
DWIDTH 7 0
BBX 3 8 1 -3
BITMAP
20
60
A0
20
20
20
20
20
ENDCHAR
STARTCHAR F816
ENCODING 63510
SWIDTH 350 0
DWIDTH 7 0
BBX 5 8 1 -3
BITMAP
70
88
08
10
20
40
80
F8
ENDCHAR
STARTCHAR F817
ENCODING 63511
SWIDTH 350 0
DWIDTH 7 0
BBX 5 8 1 -3
BITMAP
70
88
08
70
18
08
08
70
ENDCHAR
STARTCHAR F818
ENCODING 63512
SWIDTH 350 0
DWIDTH 7 0
BBX 5 8 1 -3
BITMAP
10
30
50
50
90
F8
10
10
ENDCHAR
STARTCHAR F819
ENCODING 63513
SWIDTH 350 0
DWIDTH 7 0
BBX 5 8 1 -3
BITMAP
F8
80
80
F0
08
08
88
70
ENDCHAR
STARTCHAR F81A
ENCODING 63514
SWIDTH 350 0
DWIDTH 7 0
BBX 5 8 1 -3
BITMAP
30
40
80
F0
88
88
88
70
ENDCHAR
STARTCHAR F81B
ENCODING 63515
SWIDTH 350 0
DWIDTH 7 0
BBX 5 8 1 -3
BITMAP
F8
10
10
20
20
40
40
40
ENDCHAR
STARTCHAR F81C
ENCODING 63516
SWIDTH 350 0
DWIDTH 7 0
BBX 5 8 1 -3
BITMAP
70
88
88
70
88
88
88
70
ENDCHAR
STARTCHAR F81D
ENCODING 63517
SWIDTH 350 0
DWIDTH 7 0
BBX 5 8 1 -3
BITMAP
70
88
88
88
78
08
08
F0
ENDCHAR
STARTCHAR FB00
ENCODING 64256
SWIDTH 750 0
DWIDTH 15 0
BBX 14 16 2 0
BITMAP
3C3C
4040
8080
8080
8080
FCFC
8080
8080
8080
8080
8080
8080
8080
8080
8080
8080
ENDCHAR
STARTCHAR FB01
ENCODING 64257
SWIDTH 600 0
DWIDTH 12 0
BBX 9 16 2 0
BITMAP
3C00
4000
8080
8080
8000
FC80
8080
8080
8080
8080
8080
8080
8080
8080
8080
8080
ENDCHAR
STARTCHAR FB02
ENCODING 64258
SWIDTH 650 0
DWIDTH 13 0
BBX 11 16 2 0
BITMAP
3C80
4080
8080
8080
8080
FC80
8080
8080
8080
8080
8080
8080
8080
8080
8080
8060
ENDCHAR
STARTCHAR FB03
ENCODING 64259
SWIDTH 1000 0
DWIDTH 20 0
BBX 16 16 2 0
BITMAP
3C3C
4040
8081
8081
8080
FCFD
8081
8081
8081
8081
8081
8081
8081
8081
8081
8081
ENDCHAR
STARTCHAR FB04
ENCODING 64260
SWIDTH 1000 0
DWIDTH 20 0
BBX 18 16 2 0
BITMAP
3C3D00
404100
808100
808100
808100
FCFD00
808100
808100
808100
808100
808100
808100
808100
808100
808100
8080C0
ENDCHAR
ENDFONT
